<svg xmlns="http://www.w3.org/2000/svg" width="283.737" height="401" viewBox="0 0 283.737 401">
  <g id="Canterbury" transform="translate(-45.2 -24.1)">
    <path id="Manawatu-Whanganui" d="M718.44,441.276l.121,1.426.7,1.092,1.578.455.243.607.121.576.121.182-.03.273-.485.394-.091.455-.182.455.121.364.516.243.637.546-.273.758-.121.941.121,1.7-.516.364-.758.212-.728.364-1.062,1.426-.485.3-.334.334.273.182.273.091.152.364-.152.485.243.759.364.667-.091.182-.212.061-.091.364-.03.394-1.092,3.914-.243,2.033-.516,2.336-.03.212.091.364.425.546.485.152,1.517-.061,1.4,1.214.334.212.394.061.182.061.182.121.121.364-.061.425.091.455.273.334.789.789.061.576-.152.516v.819l.667,1.638.061.941-.121,1.062-.061.91.7.789.819.576,2.488.212.7.364.941.88-.03.243-.425.7-.546.03-.607-.121-.455.121-1.335,2.245-1.4,1.4-.212.394-.03.3-.091.364-.121.334-.485.88-.152.121-.394.061-.152.121-.152.273-.91,2.306-.546.88-.789-.425-.728-1-2.124-.516-3.155-.121-4.551.637-3.61.546-3.7.425-.637-.243-1.214-.394-.091-.061-1.76.485-3.034-.061-2.427.516-.728-.03.7-1.153,1.092-2.458.637-2.124.243-.516.212-.637.091-1.729.121-.7v-.152l-.03-.212.03-.182.061-.061h.182l.212-.061.152-.091-.152-.485-.061-.455-.03-.455.03-.273.212-.516.273-1.76.091-1.214-.03-.334-.121-.273-.394-.7-.3-2-.425-1.669-.3-.789-.364-.7-1.79-1.851-.455-.85-2.154-2.458-1.638-1.032-1.274-.607-.607-.121H685.4l.637-1.153.485-.516.576-.364.576-.7.7-.546.516-.182.394-.485-.061-.425v-.607l.091-.212.243-.121.546-.152.425-.394-.152-.3-.212-.243.03-1.4.364-1.365-.212-.91-.334-.94-1.092-.941-.667-.88-.212-.637-.03-.667.152-.273.091-.3-.121-.455-.455-.243-1.062-.758.061-.425.243-.425.364-1,.667-.728.546-.091.394-.182.485-1.062,1.972-2.579.273-.091.394.121.273-.182-.243-.516-.455-.425-1.547-.364v-.941l-.364-.759-.941-.212-.516-.576-.243-.849.061-1-.364-.7-.819.364-.607-1-.243-1.153.516-1.062.091-.121.121-.121.516-.182.394-.243.819-.516.88-.3-.03-.243.061-.273.576-.971-.091-.546.182-.394,1.456-.273.546-.273.485-.394.273-.061.243.121.212-.152.243-.182.971.061.91.182.576-.091.94-.516.394-.334.3-.182.243-.091.03-.334.121-.334.485-.334.394.364h.546l1.4-.334h1.456l.789.546.971.455.7-.243.667-.425.3.334-.364.849-.667.758-.3,1-.516,1.244-.819,1.3.425.819.667.576v.85l-.425.849.121.728.455.546.061.485-.212.364-.182,1.092.819.485.758-.121.759.061v.637l-.394.849-.394.576-.152.7.3.485.212.607-.3,1.4-.485,1.274-.546,1.092.091,1.183,2.033.607,2.124-.03.971.121.91-.455.273-.364.121-.485.182-.455.243-.394.152-.394.273-.364.94-.334.637-.759.061-.182.121-.091,1.032-.121,1.76.061,1.365-.485.637.212Z" transform="translate(-445.616 -278.084)" fill="#7c7c7c" stroke="#fff" stroke-linecap="round" stroke-linejoin="round" stroke-width="1"/>
    <path id="Gisborne_District" data-name="Gisborne District" d="M891.077,366.86l-.758-1.183-1.062-.182-2.518-2.215-3.883-4.43-.061-2.276-2.063-1.4-.455,1.578-4.976-3,.394-.789-.212-1.032-.03-.971,1.578-1.123,2.822-1.183.88-.819.485-.941.091-1.062-.152-.546.212-.455.576-.243.637-.091.637-.3.576-.455.516-.546.364-.152.334-.212.121-.364.121-.364.485-.546.091-.667.03-1.153-.273-.7.273-.243.789.243.88.91.941.789,1,.607.94-1.274,1.335-4.672,1.214-2.306.88-.88.637-1.123-.212-.607-.546-.03-.607.485-.516-.425.091-.7.182-.576.03-.971-.243-.85-.121-.273.061-.334.516-.243,1.335-.425.455-.759.03-.485,4.672.243.546.152.273.243-.3.334v.182l.273.152.455.455.243.212.394.152.394.061h.819l.273.091.455.394.3.091h.728l.3.061.334.152.364.3.516.546.364.576-.03.516-.212.273-.425.728-.88.941-.485,1.365-.334.728-.819.607-.364.637-.637,1.851-.273.485-.364.485-.182.3-.091.334.182.7.334.607.273.637-.152.789-.364.394-.485.364-.212.455.576,1.244-.061.607-.3.576-.334.516-.152.607.334.607.455.516.243.394-.091.334-.182.3-.394.394-.091.394-.061.667-.152.364.273.121.243.212.152.3-.03.425-.152.243-.88.485-.091.243V354l-.121.243-2.64,2.943-2.4,2.124-.394.212-.91-.85-.607-.152-.576.152-.516.364-.182.121-.152-.061h-.091l-.03.364v.152l.091.334.03.121.455.455.182.334-.061.364-.394.728-.152.667-.03,1.578-.243,1.76Z" transform="translate(-577.901 -209.19)" fill="#7c7c7c" stroke="#fff" stroke-linecap="round" stroke-linejoin="round" stroke-width="1"/>
    <path id="Hawkes_Bay" data-name="Hawkes Bay" d="M830.194,433.107l-.061,1.183-.182.485.212.607-.182.425-.334.455-.152.576,1.608.182.759.394.334.759-1.274,1.335-.546,1.517-.212.971-.273.334-.394.3-.334.394-.637-1.851-.182-.971.03-.88.091-.516.182-.485.212-.425.212-.334.03-.364-.334-.243-.425.03-.334.485-.243-.121-.7-.516-.364-.121-3.671-.182-3.792-.091-.3-.121-.212-.212-.212-.061-.607.546-4.339,2.154-3.186,1.547-.273.364-.121.667-.243.637-.3.607-.576.759-.849.941-.546.425-.061.091-.273.849-.3.364-.152.364-.061.394-.03.516.091.516.182.273.273.212.273.334.152.607.152,2.822.061.576.182.516h.121l.152.182.394.212.607.455.152.152.3.212h.425l.789-.091.728.182-.061.425-.425.607-.243.728-.121.243-.243.243-.3.182-.516.212-.182.334-.546,2.033v.091l.03.152.03.182-.061.212-.091.061-.364.152-.121.091-.3.576-.789,2.7-.485,1.244-.334.516-.091.273-.03.394.061.789-.03.182-.03.152-.3.455-.061.152-.394,1.062L805.042,470l-.94,1.365-1,.971-.212.091-.212-.121-.182-.243-.212-.121-.273.182-.576.85-.212.485-.091.637.152-.273.182-.212.212-.121.273-.061-1.517,3.095-.212,1.942-.941-.88-.7-.364-2.488-.212-.819-.576-.7-.789.061-.91.121-1.062-.061-.94-.667-1.638v-.819l.152-.516-.061-.576-.789-.789-.273-.334-.091-.455.061-.425-.121-.364-.182-.121-.182-.061-.394-.061-.334-.212-1.4-1.214-1.517.061-.485-.152-.425-.546-.091-.364.03-.212.516-2.336.243-2.033,1.092-3.914.03-.394.091-.364.212-.061.091-.182-.364-.667-.243-.759.152-.485-.152-.364-.273-.091-.273-.182.334-.334.485-.3,1.062-1.426.728-.364.758-.212.516-.364-.121-1.7.121-.941.273-.759-.637-.546-.516-.243-.121-.364.182-.455.091-.455.485-.394.03-.273-.121-.182-.121-.576-.243-.607-1.578-.455-.7-1.092-.121-1.426,1.153-1.456,1.578,1.517,1.82.607.364-.455-.273-.607.576-.425.667-.182-.061-.819-.182-1,1.153-1.487,1.729.03,1.153-.152.334-.152-.182-.516-.061-.789.334-.7L801.1,430.8l.88-1.214-.091-.971.152-.3.152-.273-.061-1.517.485-.728.7-.485.576-.3,2-.546,1.335.789.667.152h.576l.394-.394.3-.425.182-.425.182-.455.394-.455.455-.364.3-.091.152.091.455-.212.334-.546,1.092-.425.182-.334.212-.273.3-.7.576-.182.425-.212,4.976,3,.455-1.578,2.063,1.4.061,2.275,3.884,4.43,2.518,2.215,1.062.182.758,1.183Z" transform="translate(-517.018 -275.436)" fill="#7c7c7c" stroke="#fff" stroke-linecap="round" stroke-linejoin="round" stroke-width="1"/>
    <path id="Auckland" d="M663.362,202.392l-.03.273.182.607.03.273-.061.212-.121.091-.3-.061-.182.03-.485.152-.485.061-.485-.061-.941-.364.152-.212-.516-.516-.212-.03-.3.243-.243.091-.091-.334.061-.516.182-.334h1.365l.273.152.182.273.243.152L662,202.3l1.032-.91.516-.3.121.091.243.3.212.425-.182.152-.334.091-.243.243Zm-6.462-9.5-.364.121-.819-.03-.243-.121.364-.243v-.334l-.243-.728.061-.334.334-.212.364.152.3.334.121.394.152.7Zm5.249-6.462-.394.061-.3-.03-.455-.637.334-.546.576-.334.334.03.091.182.212.243.182.273v.364l-.212.273-.364.121Zm4.551,22.785-1.274.7-.758-.485-.485,1.123-.516,1.578-.121,2.063-2.154.3-2.64.637-2.518.637-2.033.637-1.4.941-1.365.212-.485-1.214-.243-.91-.546-1.062-.091-.273-.152-.607-.971-1.881-.182-.819.394-.03.637.152.94-.3.334.121.243.243-.061.3-.212.334-.03.182L652.2,214.1l.091.941.334.758.394.3.243-.667-.273-.758-.061-.455.273-.212.7.121.3-.03.334-.273h-.455l-1.183-.212-.425-.182.364-.182,1.244-1.123.182.061-.03.637.971-1.153.516-.425.576-.061.91,1.032.3.182.334-.152.061-.334-.121-.394-.212-.334.061-.334-1.183-.455-.455-.394-.364.121-.212-.364-.182-.576-.212-.425-.576.728-.364-.3-.03-.637.273-.364.273-.091.273-.212.212-.273.121-.334L653.683,207l-1.578.091-.789.212-.607.485-.212.364-.152.7-.091.334-.243.3h-.182l-.546-.516-.334.516-.516.455-.546.182-.455-.243-.273-.516-.94-3.337L645.7,203.3l-.455-1.3-1.214-2.245-3.216-4.066-.7-1.335L640,193.017l.061-.334.091-.273.182-.152.3-.061-.273.819-.03.394.121.394.394-.758.212-.3.334-.121.334.212.364.941.455.455.546.941.334.243.394.091.212.273-.03.334-.334.273.94.364.243.03.03.091-.243.152-.334.121-.334.061.212.152.091.243-.03.273-.121.3.3.03.212.091.455.3v-.212l.03-.394-.03-.212.243.425.243.667.212.3.243-.576.273.03.091-.334.03-.485.121-.425.152-.182.364-.334.121-.273-.364.121-.121.061-.212-.546.243-1.3-.182-.334-.212.425-.091-.212V193.29l-.03-.091.091-.152.394-.425-.182-.334-.273-.3-.212-.334.091-.334.516-.455-.03-.182-.728-.455h-.152l-.394.516-.3.273-.182.121-1.4.121-.728-.182-.516-.485-.152-.941.3.182.182-.7.273-.061.3.212.364.152,1-.061.485-.152.364-.273.364-.394.3-.182.7-.334.637-.576.243-.121h.182l.152-.091.061-.394-.121-.121-.061-.03-.03-.061-.091-.182.7-.516,2.275-1.942.425-.273.273.334,1.335,2.033.728.85.971.7.607.243.03.152-.152.394v.091l.091.03.061.061-.061.121-.091.061-.091-.03-.03-.091-.03-.03-.121.091-.091-.061-.061.03-.061.334.182.516.516.212.667.091.546.182-.7.121-1.911-.091-.425.061.061.394.334,1.214.394.758.03.516-.061.516-.091.455-.485-1.365-.364-.576-.607-.243.425,1.274-.061.485-.516.03v.212l.212.091.212.121.182.152.182.212-.152.3-.516.3-.121.212v.394l.243.516.061.394v.576l.121.091.3.3.212.182.334.091.637.03,1-.394h.273l.243.212-.091.152-1.092.637-.577.212-.364-.03-1-.394.485.516.364.728,1.4,4.369-.516-.152-.3-.273-.334-.091-.607.334-.182-.152-.091-.182v-.212l.121-.273-.455-.091-.334-.789h-.334l-.819.425-.394.243-.364.425v.212h.182l.819-.121.425.121-.212.212-.334.212-.243.243.121.212.394.243.091.091v.182l.03,1.244.091.394.3.152.182-.152.03-.334-.03-.425.061-.3.152.243.182-.334.212-.3.273-.212.273-.152.364-.061,1.092.243H656.2l.485.334-.061.88-.243.334-.212.212-.121.243.091.576.121.364.152.212.152-.061.212-.3.637-3.216h.152l.516,1.4.182.667-.03.758.516-.152h.607l.3-.243-.394-.7-.091-.485.546-.152.759.091.485.212.273.667-.273,1.335.3.516.364.091.3-.121.243-.182.394-.121.546-.394.152.061.121.121.121.03.759-.364.212-.03.243.091.516.425.273.091.212.121.819,1.032.152.273Zm2.761-25.7.061.334.334.334.607.394.607.243.212.03.212.121-.121.243-.212.3-.121.243-.091.425-.121.334v.334l.3.485.091.121.121.091.121.061.152.03.061.03v.121l-.03.152.03.091.455.637.182.152-.455,1-.212.212-.334.03-.182-.212-.091-.364v-.364l-.121-.3-.3.091-.364.212h-.243l-.121-.3-.061-.728-.091-.243-.182-.152h-.182l-.576.152.091-.273V187.4l-.091-.152-.152-.212-.546.182-.667-.3-.546-.576-.152-.7.607.758.182.061.212-.243v-.364l-.061-.394.091-.3.182-.485-.3-.273-.485-.243-.273-.485.7.03.3-.121.273-.3-.455-.485-.091-.576.273-.425.607-.091.212.091.212.152.152.273.061.364.091.182.7.516-.455.243Z" transform="translate(-413.991 -109.436)" fill="#7c7c7c" stroke="#fff" stroke-linecap="round" stroke-linejoin="round" stroke-width="1"/>
    <path id="Bay_of_Plenty" data-name="Bay of Plenty" d="M818.3,312.57l-.03.485-.455.759-1.335.425-.516.243-.061.334.121.273.243.85-.03.971-.182.576-.091.7.516.425.607-.485.546.03.212.607-.637,1.123-.88.88-1.214,2.306-1.335,4.672-.94,1.274-1-.607-.941-.789-.88-.91-.789-.243-.273.243.273.7-.03,1.153-.091.667-.485.546-.121.364-.121.364-.334.212-.364.152-.516.546-.576.455-.637.3-.637.091-.576.243-.212.455.152.546-.091,1.062-.485.941-.88.819-2.822,1.183-1.578,1.123.03.971.212,1.032-.394.789-.425.212-.576.182-.3.7-.212.273-.182.334-1.092.425-.334.546-.455.212-.152-.091-.3.091-.455.364-.394.455-.182.455-.182.425-.3.425-.394.394h-.576l-.667-.152-1.335-.789-2,.546-.576.3-.7.485-.485.728.061,1.517-.152.273-.152.3.091.971-.88,1.214-1.153,1.244-.334.7.061.789.182.516-.334.152-1.153.152-1.729-.03-1.153,1.487.182,1,.061.819-.667.182-.576.425.273.607-.364.455-1.82-.607-1.578-1.517,1.092-1.851-.455-2.731-.394-.394-.546.3-.728-.152-.607-.576-.667-1.123-.576-1.214-.273-.425.152-.971.212-.7.485.03,1.547.607.516-.182.425-.455-.516-1.123-.94-1.092.273-1.183.546-1.3-.364-.425-1.942-.789-1.335-.364-.243-.637.212-.667.334-.061.334-.091.212-.455.273-.364.607-.637.425.425.485.273.485.607.121.121h.789l.394-.061.364-.152.212-.152.364-.334.212-.121h.334l.3.121.243.243.091.364-.03.364-.152.243-.364.394-.152.364-.061.3.334.243.576.03.516-.243.273-.667.152-.607.425-.3,1.4.667.455-.819.546-2.367-.243-1.153-.607-.576-3.55-1.608-.273-.364-.243-.485-.394-.667-.3-.819-.212-1.244-.3-1.244.03-.667-.364-.455-1.032-1-1.669-.273-.7-.425-.546-.516-.243-.819-.789-.364-.394-.03-.364-.091-.273-.485-.364-1.244.182-.7.03-.637-.637-.819-.182-.364-.3-2.4-.819-2.033-.576-.941-.455-1.062-.03-.849-.394-.819.061-.7.182-.455-.243-.546-.3-.364.182-.455.273-.425.7.394.758.212.061-.364-.546-.485.091-.516.425-.182.485-.789.121-1.123.94-.364.061.243.425.91.091.455.061.212.334.243.091.243v.394l-.121-.061-.182-.182-.182.061-.182.455.212.182.94.152.394.182.425.273.364.3.334.334.243.394.364.88.182.364.667.637.3.364.091.516-.85-.667-.273-.152-.364-.03-.334.061-.364-.061-.394-.364.243-.152.728-.273-.819-.546-.394-.394-.3-.364-.455-.273-.607-.061-1.092.212.121.182.212.334.121.121-.091.152-.061.212-.03.243.03.182.152.243.152.03.121-.061h.061l.121.091.243.061.091.061.061.152-.061.182-.091.152-.03.121.091.637.03.152.121.152.121.061h.425l.182-.061.121-.152.091-.121.091-.061.394.182.212.364.121.425.243.455.364-.273.212.182.212.3.243.182.334-.152.121-.3.152-.243.455.061.3.212.121.273.03.364v.485l.121.273h.273l.394-.121.334-.061-.3-1.426-.546-.88-.121-.394.334-.121.455.394.819,1.517.576.334.637.152,1.4.7.667.152.273.121.576.546.273.121h.7l.121.121.091.212.182.091.273-.212,4.672,3.428.94.455,1.487.243,1.4.546,1.578.243,1.3.819,2.154.273.88.516h-1.365l-.243.061.121.182,1.092.789.3.121.334.061.3-.152.061-.364-.121-.394-.152-.3.394-.121.212.152.212.212.3.152h1.517l.061.061.243.455.152.091.091-.061.121-.091.121-.061.091-.091v-.425l.152-.091.273-.03.7-.152,2.093-.152.546-.364.425-.394,1.82-1.123.7-.607.243-.334.091-.273v-.728l.394-.728.091-.3.121-.182.971-.516.364-.516.273-1.092.273-.516.334-.425.152-.243.061-.364.182-.212,2.336-.667.455-.03.425-.121.3-.334.546-.85.364-.212,1.062-.091.425-.212.3-.334.091-.273-.121-.334-.273-.455.91.182,1.092.061Z" transform="translate(-501.275 -196.859)" fill="#7c7c7c" stroke="#fff" stroke-linecap="round" stroke-linejoin="round" stroke-width="1"/>
    <path id="Canterbury-2" data-name="Canterbury" d="M388.738,764l-1.82,1.942-.667,1.123-.334.728-.121.637.03.971-.061.546-.212.3-.152.3-.182.425-.03.152-.455.576-.455.85-.455.455-1.062.667-.485.485-.728,1.183-.121.121-.182.03-.334-.03-.212.576-.121.182-.243.243-.243.182-.182.243-.03.516.091.3.394.485.152.3-.152.243-.182.212-.485-.637-.243-.182-.364-.061-.3.091-.516.455-.243.091-.273.243-1.244,1.517-.455,1.214-.364,1.4-.546,1.153-1.032.546v.243h.152l.121.061.091.091.121.061-1.82,3.944-.243,1.092-.364.7-.455.576-.728.364-.03.334.091.607v.364l.03.182v.182l-.182.394-.212.273-.212.121-.152.152-.061.455-.091.212-.212.212-1.032.637-.243.091-.667.121-.971.485-.121.334-.091.364-.091.273-.212.212-1.123.88-3.155.789-.789.364-.607.789-1.79,1.335-.364.637-.516,1.335-.546.849-.121.273.061.455.182.394-.182.789-.091.819-.03,1.7-.152.182-.152.455.061.7.425,2,.667,1.911-.061.516-.3-.364-.273-.061-.091.212.182.455.364.243,1.426.394-.667.3-1.547.121-.7.243-.607.576.273.243.637.091.516.182.485-.637.88-.212h.819l.394.061.091.485.212.455.212.273.121-.121.091-.819.212-.819.637.394.121.273.03.546-.061.88.091.212.3-.091.212-.243.182-.394.182-.334.3-.152.364.03.334.152.273.273.091.455.667-.759.273-.152.091.576.273.3.334.273.273.394v.243l-.061.273-.091.212-.03.152.061.212.212.334.061.152.091.88-.091.94-.182.91-.273.819-.3-.455-.576.759-.425-.091-.152.7v.212l-.212-.273-.182-.061-.212.121-.212.212-.091-.425-.3-.728-.091-.425v-.485l.091-.273-.061-.273-.243-.394-.152-.425.061-.485-.03-.394-.3-.152-.364.121-.152.334.091.364.273.3-.334.88v.88l.243.849.728,1.183-.091.061-.546-.091h-1.517l-.334-.182-.516-.667-.546.182-.273-.243-.485-.637-.91-.971-.03-.425.455-.607-.425.03-.637.3-1.911.3-.637.334-1.365.121-2.063.758-.941.152-.182-.121.091-.334.212-.243.3-.152.607-.091,3.519-1.244.364-.03.364-.121-.182-.243-.667-.425-.273-.061-.758.091-.394-.152-.152-.182-.3-.455-.182-.212-.607-.334-.607.121-.607.243-.667.152-.394.334-.212.819-.091.941-.03.789.061.485.061.182-.061.182-.273.394-.273.121-1.942.3-.273-.061-.485.182-.425.485-1.062.364-.485.425-2.427,1.153-4.521,3.307-.7.121-.364-.061-.364.03-.3.182-1.729,1.244-.88.182-.364.152-.273.273-.243.3-.273.212-.667.212-.607.455-.243.121-.394.121-.425.516-.243.243-.152.273-.607.243-.273.212-1.456,1.547-.546.334-.485-.182-.334.243-.273.212-.182.364-.091.3L323.265,841l-.091.364v1.881l-.121.607-.3.485-.7.819-.03.273-.03.394-.061.3-.273.152-.182.061-.7.394.516.667.121,1.123v2.458l.273,1.578.03.576-.121.607-.273.273-.3.182-.243.394.667.121.243.789-.03,1.062-.182,1.972-.243.667-.273.455-.212.455-1.092-.212-2.458-1-4.157-1.153-1.972.546h-.91l-.941.243-.819.425-3.641,3.368-2.275,1.335L302,863.18l-.516-.849-.243-.85-.121-.91.061-.728-.273-.637-.455-.3-.88-.061-2.063.455-1.669-.121-.728-.394-.485-.637-.7-1.123-.819-1.972-.758-2.367L291.8,851.5l-.7-.91-.759-.334-1.729.212-1.3-1.4-.637-.88-.667.091-.516-.3-.455-.637-.364-2.154-.364-.85-.667-.607-.728-.3-.152-.485-.061-.819v-5.916l.061-.7.485-.758.3-.637.546-.91.516-.637.394-.88.607-1,.273-.789-.182-1.82,1.244-1.487.819-.789.789-.94,3.641-3.034.637-1.153.516-.546.455-.88.607-.728.607-.88.334-.819.364-.7.607-.728,1.82-1.638.728-.455,2.336-.819,3.155-1.82,1.123-.455.789-.121.394.152h.607l2.275-2.549,4.1-3.277,2.336-1.214.88-.576,1.456-2.549.91-.576.485.061,1.851-.607.455-.273.273-.334.091-.364.152-.485.3-.576,1-1,.546-.394.941-.394.789-.061.425-.091.364-.212.485-.364.849-.334.3-.03.243.061.152.121h.121l.182-.03.88-.243.971-.091.85-.182,1.183.03.334-.212.273-.3.121-.394.091-.425.273-.849.182-.849.091-.334.121-.152,1.214-.364,1.426-.88.091-.607.121-.364.546-.667.546-.819.455-.394.7-.516.334-.091.7-.061.425-.152.607-.3.667-.607.637-1.274,1.032-.85.273-.334.243-.455.485-.485.212-.3.243-.485.334-.394,1.456-1.123,1.183-1.062.667-.3.455-.091.576-.273.3-.334.121-.364.091-.334.3-.637.152-.364.091-.3.121-.607.667-.182.425-.273.425-.364,1.092-1.3.3-.667.637-1.79.061-.455.091-.334.182-.152.243-.061h.273l.273.061.152.091.364.061.243.152.394,1,.425.243.425.091h.364l.455.455.3.091.121.425.091.516.243.758.273.394.061.455-.091.394-.061.455.182.334.394.182.425.152.425.212.273.667.3.425.182.394.152.243.91.758-.03.455-.121.485v.364l.243.243.394.121.334.152.607.607h.455l.3-.334.88-.546.455-.091.394-.3.425-.637.576-.637.455-.971.03-.394-.637-.455.3-.455.576-.576.758-.637,1.244-1.244.789-.425,2.154-.88.334-.364.152-.485.243-.485.061-.91.637-1.79,1.487-1.3.607-.364.455-.394.455-.121.546-.364.394-.334.485-.334.364-.334.394-1,.3-.334.425.152.334.364.243.394.212.182.273-.182.3-.273.455-.212,1.972-.425.394-.03.394.061.3.182.3.152.667.152.455-.03.334.03.243.121.121.182.7.849Z" transform="translate(-165.095 -513.883)" fill="#72bf44" stroke="#fff" stroke-linecap="round" stroke-linejoin="round" stroke-width="1"/>
    <path id="Marlborough" d="M565.893,651.88l-.182.394-.121.941-.182.334-.334.243-.425.03-.425-.061-.425.03-.3.182-.576.516-.243.152-.364.061-1.183-.061.121-.121.243-.243.091-.061.243-.03.576.061.212-.121,1.183-1.4.425.425.516-.212.364-.516v-.546l-.3.152-.273-.03-.243-.212-.152-.334.425-.03.3-.243.273-.243.273-.121.394.061.061.212-.03.364.061.425Zm-7.464,25.88-.7-.849-.121-.182-.243-.121-.334-.03-.455.03-.667-.152-.3-.152-.3-.182-.394-.061-.394.03-1.972.425-.455.212-.3.273-.273.182L551.3,677l-.243-.394-.334-.364-.425-.152-.3.334-.394,1-.364.334-.485.334-.394.334-.546.364-.455.121-.455.394-.607.364-1.487,1.3-.637,1.79-.061.91-.243.485-.152.485-.334.364-2.154.88-.789.425-1.244,1.244-.758.637-.577.576-.3.455.637.455-.03.394-.455.971-.576.637-.425.637-.394.3-.455.091-.88.546-.3.334h-.455l-.607-.607-.334-.152-.394-.121-.243-.243v-.364l.121-.485.03-.455-.91-.759-.152-.243-.182-.394-.3-.425-.273-.667-.425-.212-.425-.152-.394-.182-.182-.334.061-.455.091-.394-.061-.455-.273-.394-.243-.758-.091-.516-.121-.425-.3-.091-.455-.455h-.364l-.425-.091-.425-.243-.394-1-.243-.152.789-2.731,2.366-3,.212-.607.273-1.669.243-.941.819-1.214.394-.485.091-.425.212-.485,1.4-1.214.971-1.214.667-1.123,1.851-2.154.607-1,1.062-.3.576-.061.455-.243.212-.485-.091-.7.03-.819.121-.667.03-.455.243-.789.577-.212.789-.546,1.062-1.092,2.033-3.155.971-.941.728-.941.364-.607.394-1.062.212-1v-.789l.3-.152.394.182.364.394.243.546.03.607h.152l.121-.3.121-.091.121.091.091.3.334-.212-.3-.728.334-.364.607-.212.577-.3.182-.334-.03-.3-.182-.243-.3-.091-.88.637-.152-.091v-.394l.03-.182.364-.485.212-.182.516-.273.243-.182.243-.121,1.183-.182.121-.152.516-.819.576-.394L553,646.631l.576.152.091-.121.7-.728.061-.152.061-.394.03-.121.121-.061.364-.121,1.153-.637.182-.03h.273l.273.061.212.152.243.819-.394.121-1.123-.3.152.425-.152.212-.212.212-.121.455-.273-.121h-.243l-.243.091-.212.243.152.182.03.121.091.061.212.061-.394.364-.758.243-.728.03-.334-.334-.364-.061-.667.091-.364.334.576.607-.334.212-.243.273.03.212.394.152-.091.394-.152.364-.212.3-.212.212.212.243.273.091.243-.182.091-.485.546-.789v-.152l1.547-.273.819-.061.607.334-.243-.03-.212.061-.121.182-.061.3-.091.3-.182-.03-.212-.121-.152-.03-.121-.03-.182-.121h-.121l-.061.243.03.121.121.182v.121l-.03.3-.091.152-.152-.03-.212-.091-.152.7-.334.212-.364.121-.273.455h.364l.425.182.364.334.152.425-.061.334-.212.7-.061.364-.3.364-.667.334-1.274.394.091.334.152.273.212.121.182.091,2.488-1.456.88-.243v-.212l-.364-.121-.3.03-.243-.061-.212-.273,1-.121h.485l.364.243.364.121.576-.061.546-.182.364-.212-.121-.091-.364-.364,1.365.152.7-.182.485-.576-2.609.061-.425.152-.061.091v.121l-.03.152-.212.03h-.273l-.091-.061-.121-.121.152-.425-1.244.546-.637-.03-.212-.941L554,652l.243-.273.3-.212.3-.273.061-.182-.061-.212v-.182l.152-.061.212-.03.121-.091.03-.212-.03-.3.819.182-.273.485-.061.485.152.971.394-.759.212-.607.3-.334h.7l-.394-.607-.091-.3.394-.637v-.455l-.182-.334-.394-.03-.152.3-.091.485-.152.334-.3-.152-.728-.789-.152-.364h.819l-.212-.394-.03-.3.182-.121.364.182.03-.667.394.182.849.88.516.364.485.152.425-.152.364-.546.394.394.394-.182.212-.485-.061-.576.334.121.364.334.3.485.121.425v.364l-.03.243-.121.091-.485.091-.121.121v.212l.121.273.425.364.455-.152.394-.425.485-.637.94-.94.334-.121.182.394-.182.516-1.214,1.942-.121.3-.03.607-.091.273-.061-.091-.334.182-.273.243.03.091-.091.061-.212.152h-.212l-.121-.334v-1.274l-.061-.121-.152.212-.182.364-.061.3-.364-.152v.273l.182.394.182.334.485.516.152.273.152.485-.121.061-.273.091-.091.03v-.061l-.485.3-.182.212-.121.182-.182.182-.3.061h-1.244l-.607.182-.394.455-.273-.182-.273-.061-.243.121-.182.334-.364-.152-.425.121-.425.273-.3.3-.091.364h.546l.667-.212.243-.152.516.182.334-.152.334-.3.425-.273.243-.03.273.091.243.03.455-.3.485-.121.212-.091.243.3.334.273.334.212.3.091.273-.091.334-.3.243-.061.637-.091.485-.212.971-.759-.3.789-.364.728-.152.212-.485.425-.212.3-.121.3-.091.3-.152.243-.728.212-.546.425-.364.121.121-.3.394-.7.061-.182-.243-.091-.485.516-.3-.091.152-.455-.667.485-.455.758-.364.91-.455.819-.546.759-.121.394.03.576.273.941.03.455-.152.516.425.091.273.394.121.425-.091.182.091.121.273.152.243-.061.121-.637-.121-.152-.212-.637-.061-.485.3.3,1.3,2.215.03.425.121.425.091.3.152.576v.334l.516,1.729.121.212.212.546.516.3.607.061.425-.152-.121.759-1.669,3.186-.394.607-2.731,2.943Zm-2.943-37.136.152.334.03.212-.091.061-.152.091-.334.425-.091.182-.091.3-.091.789-.121.364-.091.03-.485-.03-.121.091-.273.364-.152.152L553,644.2l-.152.091-.121.212-.061.212-.061.152-.3.212-.334.152-.334.03-.3-.182.091-.121.03-.091v-.091l.03-.152.273-.152.152-.243.03-.3-.121-.334-.273.3-.061.091-.121-.334-.061-.394.061-.394.121-.334.364.334.273.364.3.273.485.091v-.212l-.273-.243-.243-.3-.212-.425-.061-.485.061-.455.3-1.183.121-.273.121.03.03.273.061.243.273.061.091-.425.121-.273.182-.121.334.182.03.455-.061.546.091.516.182-.3.758-.243.364-.334h-.819l.546-.455.212-.243.212-.334.243-.88.121-.212.121.455-.03.455-.061.425-.243.789Z" transform="translate(-334.787 -427.644)" fill="#7c7c7c" stroke="#fff" stroke-linecap="round" stroke-linejoin="round" stroke-width="1"/>
    <path id="Tasman" d="M-2613.827-1379.211l-.333-.455-.486-1.062-.182-.758-.182-1.3-.182-.546-.273-.394-.395-.273-.333-.031-.577.061-.242-.061-.212-.121-.182-.182-.151-.061-.122-.121-.122-.243-.182-.394-.152-.273-.364-.152-.668.122-.3-.061-.273-.212-.242-.395-.152-.485-.031-.607v-.425l-.061-.394-.212-.273-.212-.122-.273-.182-.243-.243-.212-.607-.121-.455-.061-.334.273-1.547.576-.485.212-.455.273-.819.061-.789-.061-.516-.06-.3-.122-.273-.03-.243v-.212l.06-.546.122-.3.212-.334.455-.425.395-.212.394-.182,1.183-.182.243-.182.031-.425-.061-.425.091-.395.273-.3.576-.212.364-.212.3-.364.273-.7.242-.789.273-1.274.151-.425.212-.334,1.123-.789.212-.394.091-.364v-.3l-.243-.395-.031-.212.121-.182.364-.212.3-.121.273-.031.88.273h.425l.425-.152.394-.3.486-.546.273-.455.091-.607v-.516l.061-.516.061-.364.03-.3-.061-.182-.333-.394v-.273l.242-.212,1.638-.667,1.062-.971.091-.243-.061-.212-.212-.242-.425-.3-1.183-.364-.3-.121-.3-.243-1-1.062-.3-.182-.273-.091-.212-.121-.182-.212-.212-.364-.182-.273-.121-.273-.122-.334-.122-.334-.3-.273-.3-.121h-.486l-.7.152-.243-.061-.242-.091h-.212l-.182.121-.455.668-.273.03-.212-.243-.091-.91.122-.516.243-.364.151-.152.273-.395.121-.364-.061-.394-.273-.395-.3-.243-.273-.3-.182-.395-.212-.546-.212-.364-.758-.668-.212-.455-.334-2.063-.091-.3.3.03.152-.03.333-.3.637-.455.3-.06.091-.122,1.214-.94,2.336-2.913,1-1,.88-.333-.395,1-.03.364.334.122.121-.152.152-.273.152-.212.395.182.212-.091.182-.152.152-.152-.092-.425.7-.334.031-.273-.274-.333-.06-.091-.3.3-.334.182-.334.061-.3-.121.91-1.153,1.062-.576,4.612-.212,1.517.182,1.4.394.759.091-.516.212-5.066-.395-.364.091-.242.3-.212.637-.243,1.214-.212.577-.364.3.212.637-.121.243-.3.03-.425-.061.334.85.122.091.394.152.122.152v.516l-.3.91.152.516.152-.152.486-.273.333.88.789.819,2,1.608.3.091.3-.122.576-.455.122-.061h.3l.091-.091-.061-.425.03-.121.395-.394.182.03.243.364.3-.486.333-.273.334.03.3.455.121.395v.3l-.121.607.151.273-.03.273-.3.3.395.091.364-.031.3.091.243.455-.061.152-.243,1.365.091.576.061.273-.061.212-.273.425-.516.546-.607.486.243.152.152.061.182-.061.243-.152.273,1.547.03.486.151.485.243.394.182.425-.091.516-.091-.3-.152-.243-.182-.182-.212-.121-.152,1.092.061.273.364.394.152.212.061.364h.152l.243-.394.182.394.243,1.274.273.85.03.243-.152.182-.394.212-.091.212.182.455.394.273.516.121h1.092l.273-.061h0l.121.394.485.789.91.85.85.425-.243.789-.03.455-.122.667-.03.819.091.7-.212.486-.455.243-.577.061-1.062.3-.606,1-1.851,2.154-.667,1.123-.971,1.214-1.4,1.214-.212.485-.091.425-.395.485-.819,1.214-.243.941-.273,1.668-.212.607-2.366,3-.789,2.731-.364-.06-.152-.091-.273-.061h-.273l-.243.061-.182.152-.091.334-.061.455-.637,1.79-.3.667-1.092,1.3-.425.364-.425.273-.667.182-.425-.061h-.212l-.243.031-.152.091-.091.182-.091.182-.121.212-.182.121-.243.06Zm19.964-29.187-.91-.85-.485-.789-.121-.394.212-.031.455-.212.85-.758.819-.516.395-.425.91-1.274,1.456-1.456.576-.243.273-.455.242-.091.121.091.03.243-.091.273-.061.243.789-.364.394-.242.334-.364.364-.728.182-.212.212-.031.212.152h.182l.212-.333-.242-.334.212-.425.394-.364.061-.03v.789l-.212,1-.395,1.062-.364.607-.728.94-.97.941-2.033,3.155-1.062,1.092-.789.546-.576.212Z" transform="translate(2798.058 1639.915)" fill="#7c7c7c" stroke="#fff" stroke-linecap="round" stroke-width="1"/>
    <path id="Northland" d="M570.129,74.3l-.425.273-2.275,1.942-.7.516-.243.273-.3.182-.334.091h-.091l-.243.03-.212.121-.576.516-.243.182-.182-.334-.394.243-.455.425-.425.243-.577-.091-.334-.152-.212-.152-.121-.516.243-.121.7.243.364.364.182.03.121-.728.364-.941.546-.728.152-.3.03-.212.03-.243.121-.425.364.182.3-.061.061-.243-.273-.455-.212-.152-.88-.273.091.88-.3,1-.576.789-.667.334.364-.485.121-.091-.273-.121-.243.061H562.3l-.061-.273-.061-.455-.152-.091-.212.061H561.6l-.243-.091h-.152l-.061-.091-.03-.425.03-.3.061-.3.212-.576-.364.03-.243.182-.485.576.091-.789-.364-.03-1,.819.243.243v.637l.3.121h.425l.3.061.212.152.243.364-.121.425v.273l.212.121.152-.061.121-.121.212-.3h.212l.243.243.425.637-.849.243-.121.061-.061.273-.152.152-.182.061h-.243l-.182-.121-.3-.394-.212-.091-.273-.03-.152-.121-.546-.819-.212-.425-.273-.425-.394-.364-.425-.091-1.123-.03-.212-.182-.152-.273-.364-.364-.394-.3-.3-.152-.364-.212-.182-.546V72.143l-.152-.425-.667-.7-.273-.88-.3-.334-.7-.546.849-.789.212-.455-.091-.7-.152-.212-.243-.243-.243-.182h-.182l-.03.394.152.273.243.212.121.152-.152.607-.88.485-.091.455,1.183,1.7.182.3.485.3.182.667.121.758.182.546.152.243.3.637.182.334.212.152.3.121.273.182.182.576.212.212.243.152.182.182,1.274,1.972.3.182.364-.061.334.03.212.364-.485.212.212.364.485.485.243.637-.182.607-.455.394-1.092.455-1.123.03-.576-1-.728-2.791-3.034-4.187-.85-1.7-5.279-7.13-5.249-7.1-.152-.546.152-.455.789-1.032.182-.485.03-.667.182-.637.273-.394.485.243.121-.3.03-.121.212.273.243.3.243.273.334.121.061-.182-.061-1,.091-.364.637,1,.121-.516v-.546l.121-.546.394-.394h.212l.152.121.152.091.273-.212.091-.182.152-.607.394-.667-.849.273-.273-.091V50.51l-.03-.212-.091-.121-.273-.03-.091.152V51.36l-.243-.425-.394-1.365-.394.425.091.546.3.516.182.485-.152.485-.364.273-.455-.03-.607-.364-.243-.03-.121.091.212.576-.152.121-.243.061-.212.091-.212.121-.152-.091-.273-.425h-.182l-.273.121-.455.364.212.425-.152.182-.3.121-.212.273v.152l.061.152.061.091.03-.03-.061,2.154-.091.243-.212.03-.182-.182-2-2.822-.273-.758.121-.485.789-.91h-.152l-.334-.03-.152.03.455-.546.212-.3.121-.334-.7.121-.425.455-.273.667-.212.728L537,52.118l-.728-.85-.152-.3.212-.243.819-.607.273-.334-.364-.121-.667.394-.425.091-.394-.121-.334-.273-.546-.758-.94-.971-.152-.394.03-.546.334-.152.455.091.425.212.758-1.062.455-1.335.091-1.456-.334-1.426-.728-1.79-.3-.485-1.426-1.426-.425-.607L532.2,35.8l-.3-.3-.425-.212-4.763-6.341-.941-.789L523.8,26.936l.243-.212.152-.212.243-.546-.061-.212-.03-.455.121-.3.394.273.516.3,1.365.061.576.334.3-.3.728-.182.728-.455,2.64.243.425-.091.243-.212.243-.273.273-.091.364.394-.667.425-.182.576.03,1.517-.061.394-.091.212-.182.152-.394.03-.091-.152-.091-.334-.182-.364-.334-.121.03-.152.091-.3.03-.152-.455-.152-.182.03-.182.728-.061.607-.182.182-.394-.243v.3l-.091.212-.152.182-.212.121.212.243.759.546.061-.3.121-.273.152-.182.273-.03-.121.425-.061.182-.121.182.243.182h.243l.182-.121.121-.273.152.334.03.364v1.638l.091.182.212-.182.273-.667.061-.85-.152-.789-.364-.607.637.3.334,1.4.243,1.638.243,1.123.758.88.971.85.789.971.212,1.183-1.123-1.365-.485-.394.091,1.032.971,1,3.125,1.82-.091.334-.485.607-.152.243-.061.3-.03,1.183.061.152.152-.03.273.03.759.212H539l.182-.273.091-.334.121-.273.334-.152.3-.334-.061-.819-.334-1.365.152-.637.425-.182.576-.091.546-.364.152-.364-.03-.334-.121-.273V36.19l.273-.273h.182l.152.212.121.334v.273l-.03.243-.121.485.7-.364.273-.061-.121.3.061.243.334.425-.94.425h-.971l-.243.091-.152.455.121.546.243.485.212.364.3.455.394.364.455.273.516.091,1.153-.152.425.152.455.607.243-.485.061-.121-.243-.334-.3-.273-.243-.334-.03-.455.243-.485.3-.03.334.3.243.425.273-.273.334-.061.273.152.243.637.334.152h.7l.091-.061.061-.152.091-.121.182-.061.212.061.03.152v.182l.061.152.121.212.061.182.091.152.212.061.182.03.152.03.3.152-.3.152-.121.243-.091.3-.121.273-.546.394-.212.243.03.243.789.7.516-.03.091-.121-.03-.182V43.9l.485-.971.03-.182-.061-.425.03-.152.152-.152.394-.061.425-.243h.364l.667.03-.061.152.212.334.394.485.94.728.364.455.152.7.3.516.758.121,1.335-.152.576.152.576.394.425.607.212.7-.971.3-.273-.091-.091-.273v-.3l-.121-.3-.121.061-.182.121h-.243l-.273-.394-.576.334-.243.182.243.182.425.667-.789.121-.061.394.364.3.485-.212.243.152.243.061.243-.061.243-.152.3.425-.061.394-.182.364-.061.364.152.364.88.91.121.273.091.334.03.758.091.091.152-.3.152-.455.091-.394.455.243.243.121.273.03-.061-.152-.061-.3-.061-.121.364-.03.182.152.152.182.182.091.212-.121.061-.273-.091-.3-.182-.121-.516-.03-.667-.182-.576-.3-.212-.455.152.212.334-.334.546-.03,1.183.152-.121-.273-.061-.121.243-.03.334.061.243.091v.091l.243-.152.03-.121v-.121l.121-.273.637-.7.728-.607.182.728L563,48.72l-.3.576-.152.667.182.667.394.3.516.061.516-.03v.182l-.212.394.7.88-.334.3-.152-.091-.637-.7-.728-.576-.243-.212.394.637.849,1.911.546.425.455.03.485.121v-.121l.061-.061.091.03.121.091.061.243.061.061.212.212.546,1,.121.334-.91.152.091.334,1.244,1,1.123,1.214.212.667-.3.971-.364-.212-1.062-.152-.425-.03-.243.152.394.334.88.485-.121.03-.334.182.607.152.243.091.091.243-.091.3-.182.212-.273.121-.243.061,1.365.85.243.334v.334l-.152.7.061.273.546,1.062-.637.182-.455-.3-.455-.485-.516-.364.152-.516-.667-.212.03-.455-.364.03-.576.243-.364.091-.152-.03-.243-.273-.152-.061-.152.091-.121.394-.121.091-.364.03-.061-.061.091-.243v-.516l-.061-.425-.121-.334-.182-.334-.273-.3-.091.637.091,1.578-.061.485-.121.273-.03.394.061.364.152.212.364.061.212-.243.152-.364.152-.334.425-.061,1.578.182.485.182.394.516-.091.546-.394.576-.546.546.394.394.091.7-.03.758.03.516.273.364,1.062.789.425.243.3.03h.576l.273.152.212.364-.03.273-.121.243-.061.334.091.667.273.364.334.273.121.121Z" transform="translate(-333.045)" fill="#7c7c7c" stroke="#fff" stroke-linecap="round" stroke-linejoin="round" stroke-width="1"/>
    <path id="Taranaki" d="M633.31,440.193l-.394.243-.516.182-.121.121-.091.121-.516,1.062.243,1.153.607,1,.819-.364.364.7-.061,1,.243.849.516.576.941.212.364.759v.941l1.547.364.455.425.243.516-.273.182-.394-.121-.273.091-1.972,2.579-.485,1.062-.394.182-.546.091-.667.728-.364,1-.243.425-.061.425,1.062.758.455.243.121.455-.091.3-.152.273.03.667.212.637.667.88,1.092.941.334.941.212.91-.364,1.365-.03,1.4.212.243.152.3-.425.394-.546.152-.243.121-.091.212v.607l.061.425-.394.485-.516.182-.7.546-.576.7-.576.364-.485.516-.637,1.153-.88.03-1.881-.7-1.426-.152-.607-.152-.546-.364-2.488-2.366-.455-.576-1.365-2.154-.941-1-1.183-.667-1.244-.425-4-.637-1.335-.455-3.155-2.366-.88-.941-.7-1.214-.455-1.4-.121-1.365.121-1.4.3-1.426.7-1.365,1.062-.849,2.4-1.092,5.977-3.762.516-.152,3.125.212,1.123-.364,1.032-.789,2.791-2.913.364-.637.182-1.092.212-.7.061-.394v-.941l.091-.212,1.638.849,2.063.152.455-.152.334.091.3.243.425.485.637.425Z" transform="translate(-391.281 -288.045)" fill="#7c7c7c" stroke="#fff" stroke-linecap="round" stroke-linejoin="round" stroke-width="1"/>
    <path id="West_Cpast" data-name="West Cpast" d="M268.242,645.5l.091.3.334,2.063.212.455.758.667.212.364.212.546.182.394.273.3.3.243.273.394.061.394-.121.364-.273.394-.152.152-.243.364-.121.516.091.91.212.243.273-.03.455-.667.182-.121h.212l.243.091.243.061.7-.152h.485l.3.121.3.273.121.334.121.334.121.273.182.273.212.364.182.212.212.121.273.091.3.182,1,1.062.3.243.3.121,1.183.364.425.3.212.243.061.212-.091.243-1.062.971-1.638.667-.243.212v.273l.334.394.061.182-.03.3-.061.364-.061.516v.516l-.091.607-.273.455-.485.546-.394.3-.425.152h-.425l-.88-.273-.273.03-.3.121-.364.212-.121.182.03.212.243.394v.3l-.091.364-.212.394-1.123.789-.212.334-.152.425-.273,1.274-.243.789-.273.7-.3.364-.364.212-.576.212-.273.3-.091.394.061.425-.03.425-.243.182-1.183.182-.394.182-.394.212-.455.425-.212.334-.121.3-.061.546v.212l.03.243.121.273.061.3.061.516-.061.789-.273.819-.212.455-.576.485-.273,1.547.061.334.121.455.212.607.243.243.273.182.212.121.212.273.061.394v.425l.03.607.152.485.243.394.273.212.3.061.667-.121.364.152.152.273.182.394.121.243.121.121.152.061.182.182.212.121.243.061.576-.061.334.03.394.273.273.394.182.546.182,1.3.182.758.485,1.062.334.455.334.212.243-.061.182-.121.121-.212.091-.182.091-.182.152-.091.243-.03h.212l.425.061-.121.607-.091.3-.152.364-.3.637-.091.334-.121.364-.3.334-.576.273-.455.091-.667.3-1.183,1.062-1.456,1.123-.334.394-.243.485-.212.3-.485.485-.243.455-.273.334-1.032.849-.637,1.274-.667.607-.607.3-.425.152-.7.061-.334.091-.7.516-.455.394-.546.819-.546.667-.121.364-.091.607-1.426.88-1.214.364-.121.152-.091.334-.182.849-.273.849-.091.425-.121.394-.273.3-.334.212-1.183-.03-.85.182-.971.091-.88.243-.182.03h-.121l-.152-.121-.243-.061-.3.03-.85.334-.485.364-.364.212-.425.091-.789.061-.941.394-.546.394-1,1-.3.577-.152.485-.091.364-.273.334-.455.273-1.851.607-.485-.061-.91.576-1.456,2.549-.88.576-2.336,1.214-4.1,3.277-2.275,2.549h-.607l-.394-.152-.789.121-1.123.455-3.155,1.82-2.336.819-.728.455L219,734.031l-.607.728-.364.7-.334.819-.607.88-.607.728-.455.88-.516.546-.637,1.153-3.641,3.034-.789.94-.819.789-1.244,1.487-.7-.394h-.425l-.607.091-.394.576-.334.667-.455.637-.7.364-.85.607-.971.485-.789.607-.91.485-.759-.212-.607-.334-.394-.3-.7.03-.88.485-1.456.212-1.153-.061-.971.152-1.092.485-1.092.91-.243.334-.273.576-.819,1.032-.819.485-.546.516-.425.546-.243.7-.152.637-.576,1.578-.516.819-.88.94-.667.394-1.517.212-4.581,2.215-2.913.334.667-2.64.182-.546.212-.758-.3-.576-.243-.667-.485-.7-.455-.546-.789-.546-.819-.364-1.183.061-1.274.425-.212-.273-.576-.243v-.212l1.092-.394.455-.273.85-1,1.456-1,.91-.91.789-1,.03-.182v-.334l.091-.425.182-.394.243-.243.273-.243.273-.152.243-.121-.152-.091-.455-.364.455-.243.455-.152,1.456-.091.85-.182.789-.425.485-.334.212-.243.334-.182.607.061.182-.091.576-.546.394.212.364.577.485.516,1.123.182,1.335-.425,1.274-.819,1.4-1.426,1.092-.728.455-.455.394-.3,1.487-.819.394-.334.121-.273v-.334l.091-.273.182-.182.637-.394.212-.091.455-.243.88-1.062.425-.243.455-.182,1.7-1.153,1.183-.394.637-.334.273-.485.091-.243.273-.273.273-.212.243-.061.637-.061.182.03.212.03.212-.03.273-.182.334-.364.941-.273.789-.607.941.212.516-.061,1.214-.971.485-.121.364-.273.789-1.214.364-.394.121-.364.03-.394.455-.576.607-.121.273-.3.03-.425.152-.7.485-.607.516-.425,3.095-1.547.3-.516.212-.85.516-.182.334-.3.212-.516.182-.455.243-.212.546-.243.607-.425.334-.152.364-.091.273.091.485.3.273.091,1.517-2.427-.728-.152-.607.637-.516.849-.546.394.455-1.4.789-.941.607-.455.212-.485v-.243l1.729-.121.516-.243.182-.212-.182-.273.425-.334.3-.485.364-.273.516.212.061-.516.273-.121.152-.243.91-.577,2.093-.758.91-.728.758-.121.364-.03.243-.03.212-.243.273-.364.273-.212.85-.425.425-.485.819-1.214.425-.273.394-.334,2-3.489.3-.3.243-.091.455-.212.425-.3.182-.394.334-.607.243-.273.243-.121.364-.243.394-.576.576-1.123.425-.243,1.669-3.459.485-.576.243-.455.061-1.032.152-.728,1.153-1.76.485-1.426.637-4.672.425-1.153.091-.7.243-.789.121-.243.789-.971.334-.576.243-.7.394-2,.334-.607.212-1.032.485-1.183-.152-.364-.182.243-.091-.243-.03-.152-.03-1.487.364-.273,1.4.212,1.638-.243.425.03h.182l1.153-.516,2.215-1.426.576-.7.212-.152.334-.091.334.061.212-.061.182-.728.182-.212.212-.152.243-.212.334-.546.85-1.942.121-.152.121-.03.061-.121.061-.637.03-.061.061-.061.121-.091.182-.3.121-.273.091-.364v-.364l.273-.455.637-.516.667-.455.485-.182-.091-.273v-.3l.03-.3.334-.607.03-.364.03-.667.061-.758.121-.3.212.091.121-.03.212-.152.273-.121.273-.03-.455-.88-.121-.364-.212-3.428.061-.394.212-.7.03-.3-.152-1.608v-3.368l-.121-.94V648.9l.212-.243.273-.03.212-.061.152-.212.3-.607.576-.728.091-.182.03-.334.061-.121.152-.182h.3l.152-.091.091-.121.061-.212.091-.182.152-.091h.061Z" transform="translate(-87.772 -432.52)" fill="#7c7c7c" stroke="#fff" stroke-linecap="round" stroke-linejoin="round" stroke-width="1"/>
    <path id="Otago" d="M209.635,978.194l.182,1.82-.273.789-.607,1-.394.88-.516.637-.546.91-.3.637-.485.759-.061.7v5.916l.061.819.152.485.728.3.667.607.364.85.364,2.154.455.637.516.3.667-.091.637.88,1.3,1.4,1.729-.212.758.334.7.91.546,1.183.758,2.367.819,1.972.7,1.123.485.637.728.394,1.669.121,2.063-.455.88.061.455.3.273.637-.061.728.121.91.243.85.516.849.485.485,2.275-1.335,3.641-3.368.819-.425.941-.243H235l1.972-.546,4.157,1.153,2.458,1,1.092.212-.212.485-.091.516-1.578,2.973-2.609,2.7-1.244,2.761-.576,2.367-.3.7-.273.85.3.394.425.394-.061.759-.85,1.031-.212.455-.03.364.091.364.061.425-.3.607-.667.455-.485.516.182.819-.273.394-.3.182-.3-.03-.394-.3.03.364.061.334.212.637-.394.394-.3.121-.819-.03-.485.182.03.334.334.334.516.061-.546,1.214-.182.182-.243.091-.3.182-.485.425-.182.061-.152-.061-.121.03-.03.3v.3l.03.182.091.061.212.03.334.121.334.212.3.03.3-.364.425.364.607.334.485.334v.455l-.425.3-1.123.243-.455.243-.455.728-.182.212-.212.091-.243.061-.243.121-.3.849-.85.576-.243.577.455-.243.819-.212.728-.637,1.062-.425.3-.3.364-.758.273-.394.334-.212.273-.091.273-.152.243-.455.243.425.091.516-.061,1.82-.212.455-.334.152-.516.061-.485-.03-.091.03-.243.212-.121.212v.243l-.03.182-4.854.485-1.972.7-1.76,1.274-1.335,1.972-.364.789-.091.394-.091,1.032-.212.607-.03.3-.182.728-.425.637-.516.516-.485.334-1.244.516-.576.364-.516.607-.394.637-.455.516-3.216,2.306-.819,1.153-.3,1.76.061.91-.121.334-.667.273-.546.455-.182.121-.394-.061-.789-.334-.394-.061-.394.061-.7.3-.364.091.364.152,1.881.091-.455,1.183-.758.516-.819.334-.789.667-.334-.061-.607-.243-.637-.152-.485.212-.3.273-1.244.759.152.152.212.395.152.182-.637.182-.789-.243-.728-.03-.425.789-.485-.394-.152-.091-.819-.121-.394.03-.334.212-.455.516-.3.212-.273.091-.819.121-.3-.061-.3-.3.091-.7-.061-.394h-.061l.091-1.82.394-.728.273-.88-.03-.667-.941-1.335-.121-.728v-.88l-.182-.91-.3-.849.182-1.032.334-.849.152-.971.061-2.185-.758-1.881-.273-.91.061-.88-.273-1.153-.637-1.123-.607-.88-.212-1.062-.03-1,.121-.941-.121-.849-.3-.728-.667-.637-.394-.455-.121-1.153-.121-.7-.061-.607v-.91l.152-1.092.364-1.456,1.426-2.973,1.638-4.308.971-.91-.394-1.426-2.154-2.4-.85-.485-1.032.546-2.579,3.762-1.032.485-.91-.152-.789-.334-.576-1.153-1.487-2.154-.667-1.669-.546-.273-4.1,1.881-1.547.121-.91-.03-1.153-.607-.334-1-.03-.91-.728-1.578-.394-1.123-.121-.971.85-2.791-.061-.637-1.3-.607-.667-.607-.637-.88-.455-1.032-.243-1.062-.121-1.244.485-1.274.394-2.64-.091-1.183.607-2.458.455-1.214.819-1.426.789-1,.758-.546.516-.516,2.913-.334,4.581-2.215,1.517-.212.667-.394.88-.941.516-.819.576-1.578.152-.637.243-.7.425-.546.546-.516.819-.485.819-1.032.273-.576.243-.334,1.092-.91,1.092-.485.971-.152,1.153.061,1.456-.212.88-.485.7-.03.394.3.607.334.758.212.91-.485.789-.607.971-.485.85-.607.7-.364.455-.637.334-.667.394-.576.607-.091h.425l.7.394Z" transform="translate(-89.026 -664)" fill="#7c7c7c" stroke="#fff" stroke-linecap="round" stroke-linejoin="round" stroke-width="1"/>
    <path id="Southland" d="M68.667,1109.937l-.546.182-.182-.425.273-.485.576-.364.516-.061.243.455-.3.273Zm5.795-1.911.334.091.212-.03.091.3-.091.121-.061.03v.152l-.182.152-.212-.03v-.3l-.121-.121-.091-.152Zm-6.705-1.153-.182.364.03-.152-.03-.212-.03-.182.121-.121.091-.03.03.121v.091l-.03.121Zm19.569-8.07-.152.061-.273-.121.061-.243.182-.152.182.243Zm-12.864-4.217-.364.121-.3-.121-.152-.455.091-.455.273-.212.364-.061.3.091.3.273-.243.577-.273.243Zm20.449,0-.212.334.091-.364-.152-.3-.243-.334-.212-.425.364-.03.364-.152.243-.3.152-.455.364.759-.273.728Zm-14.138-3.125.455.364.394.485,2.093,2.943.334.364.394.273.3.3.152.485.273.091.546.3.273.425-.455.455.485.243v.212l-.576.212-2.124-.212.152-.455-1.3-.061-.455.243.243.637-.061.394-1.153,1.608.607-.061.789-1.062.516-.273.243.091.637.485.607.182.91.395-.091.243-.061.182-.121.152-.182.121v.212l.273.03,1.244-.455.3-.03.3-.182.182-.061.091.121.061.273.182.273.212.182.182.091-.121.334-.152.85-.061.243-.243.152-.273-.03-.273-.091-.334-.03v.243l1.062.7.3.364.061.212-.182.091-.243.061-.182-.03-.121-.121-.182-.425-.182-.152-.516-.03-.121.243.152.849-.273.152-.789-.334.273.516h-1.76l-1.456.273-.576.273-1.456,1.365-.425.576-.334.243h-.394l-.425-.212-.3-.273-.364-.212-.85.152-.273-.03-.243-.425-.152-.485-.182-.273-.485.455-.394.121-.182.091v.152l-.152.819-.364-.273-1.214.971-.667.243.394.455.728-.121,1.426-.576-.273.667-.273.455-.728.789v-.849l-.273.03-.425.425-.334.485L72.4,1111l-.789.182-.789.061-.485-.152-.121-.667.152-.88.273-.819.273-.546.243-.212.455-.091.455-.364.819-.425-.394-.273v-.3l.152-.364.121-.425-.03-.516-.091-.425v-.364l.182-.485.243-.334.243-.243.546-.364.394-.152.3.091.273.152.3.03.425-.455-.091-.819-.182-.91.091-.759.3-.182h.7l.3-.273.364-.667.152-.364.061-.485-.121-.759-.334-.728-.789-1.214-.121-.364.091-.3.182-.243.091-.273v-.212l-.061-.152-.061-.152-.121-.182-.091-.243.03-.182.121-.182.03-.182.121-.971.334-.485.516-.182.728-.03.607.243.364.061.3-.182.334-.334.273-.061,1.092.577Zm-24.09-4.612.03.212-.3-.364-.212-.273.334-.03.152.03.03.152Zm21.45-3.61-.091.091-.182-.212-.243-.03.061-.091.3-.03.091-.091.061.182v.182ZM49.31,1072.406l-.212.121-.091-.091.03-.121-.061-.364.03-.455.3-.334.364-.091.334.182.121.273-.152.273Zm-2.063-2.609-.121.212-.121-.091-.334-.455v-.212l.121-.182.212.03.212.121h.152l.061.061-.121.182-.061.334Zm.273-.941-.061.03-.3-.121-.03-.182.061-.182.061-.03.152.061.121.182v.243Zm.88-1.335-.455.546h-.212l-.273-.121-.061-.091.061-.121.121-.152.03-.152.03-.061.394-.152h.121l.091-.061h.182l.061.182Zm4.49-8.1-2.549.971-.182-.061-.121.061-.667.091-.121-.061v-.061l-.091-.061.091-.121.516-.091.3-.3.607-.03.88-.425,1.123-.091h.152l.121.091Zm-6.189.7-.455.03-.121-.152v-.121l.091-.3.485-.152h.364l.212-.182.334-.03.334.152v.182l-.273.152-.273.061-.334.182-.364.182Zm7.646-.546H53.77l-.364-.182.121-.121-.182-.091V1059l.243-.273.273-.152,1.4.152.121.152.03.182-.121.091-.941.425Zm-2.488-4.339.3.637.182.758.091.728-.091.728-.273.546-.425.3-.516.061-.061-.182-.152-.334-.182-.152-.182.607-.182.121H50.16l-.182-.061-.121-.334-.121-.667-.091-.667.03-.394-.334-.637-.394.061-1.456,1.729-.364.273-.516.152.121-.425.243-.607.273-.546.273-.243.061-.091.273-.516.182-.485.273-.091.576.03,1.881-.667.425-.03.212.061.455.334Zm7.1-10.862-.789.152-.3-.091-.425-.425-.364-.243-.516-.182-.455-.243-.182-.455-.273-.425-.03-.243.212-.121-.03-.152.152-.3,1.426-2.276v.152l.03.091.061.091.061.121.212,1.183.334,1.123.88,2.245Zm50.425,44.3-.273-.091-.212.243v.758l-.273.243-.061.182-.061.152-.121.091h-.728l-.394-.152-.243-.3-.182-.334-.152-.182-.3.061v.3l.061.395-.091.425-.607.394-.789-.212-.819-.425L103.5,1090l-.758.03-.425-.061-.273-.425-.607-2.124-.03-.334-.121-.394h-.334l-.7.273-2.4.455h-.789l.182-.364.3-.121.3-.03.334-.182-.455-.273-.607-.152-1.153-.03.182.486.3.3.121.243-.3.364.091.091.152.273.091.091-1.274.425-4-.425.273-.576.152-.182.182-.152.334-.121.85.03.273.091.243.394.667.121.425-.182-.546-.576-.667-.273-2.033.03-.941-.607-.455-.091-.212.577.152.7.7.91.273.637-.637-.121-.85-1.032-.516-.273-.091-.152-.03-.3-.152-.334-.607-.212-.182-.182-.091-.3-.061-.394.728-.212h.243l.243.091.061.091v.152l.091.243.152-.243,1.214-1.031.243-.91-.182-1.092-.425-.789h-.607l.212.85-.243.789-.455.485-.485-.03-.273-.485-.485-1.4-1.244-2.336-.394-.425-.637-.182-2.306.425-.334.182v.395l.061.394-.061.182-.334-.121-.394-.182-.394-.152-.3.121-.7-.121-.455.03-.212.3-.121.364-.273.091-.273-.03-.243-.091-.334-.182-.182-.03-.152.061-.364.334-.152.061-.243-.121-.243-.212-.212-.334-.273-.121-.212-.3-.3-.637-.243-.243-.546-.3-.273-.243.3-.212.334-.121.273-.212.243-.394-1.214-1.608-.576-.971v-.667l-.364-.334-.941-.091-.485-.152-1.092-.728-.334-.091-2.67-.3-.212.091-.121.212-.03.576-.091.243-.273.546-.091.455-.03.455-.152.485-.3.425-.364.091-.789-.061-.364.152-.728.455-.334.121-.455-.061-.971-.364-.516-.03-.364.091-.212.121-.121.121-.182.091-.121-.121-.091-.212-.091-.091-.273-.061-1.487-.728h-.425l-.394.091-.394-.03-1.578-.425-3.216.061-1.578-.273-1.3-.971-.7-.94-.121-.334.152-.212.667-.3.243-.182.88-1.032.789-1.153.667-1.547.364-.7.485-.3.7-.152,1.062-.91.576-.334v-.212l-.516.061-1.426.88-1,.364-.546.334-.364.425-.061.364.03.273.091.212-.061.3-.091.091-.728.789-.03.152-.061-.03-.212-.273.03-.182.091-.243v-.3l-.273-.243-.3,1.062-.728.425-1.7.394v-.607l.061-.516.212-.273.364.243.091-1.092.273-.728.425-.516.667-.425,1.4-.364.607-.273.394-.758-.789.394-.819.273-.334-.03-.425-.121-.364-.212-.061-.212,1.274-1.547.212-.364.03-.243-.243-.273-.243.03-.273.212-.212.243-.091.152-.091.243-.091.212-.03.212-.425.3-.152.152-.637,1.031-.091.334-.334.364-2.215.667-.3.212-.546.607-.182.121-.182-.182-.182-.395-.121-.425v-.273l.091-.364-.03-.455-.121-.667v-3.034l.152-.758.394-.334,1.517-.243h1.608l-.182.243.182.243.576-.516.7-.182H52.1l.576-.121,1.244-.485.637-.091.7.121.334-.03.243-.212.212-.243.212-.212.485-.364,1.123-.516.485-.395.3-.7-1,.425-.364.061-1.669-.212-2.184.637-.546-.182.425-1,.273-.334.425-.3,1.244-.364.364-.3-2.275.334-.394-.121-.152-.789v-.758l.273-.546.546-.212.607-.121,1.183-.637.7-.121,1.214.455.637.03.516-.485-.789.03-.364-.152-.273-.364,1.517-.485.667-.516.212-.819-3.125,1.638-1.911.395-1.274.728-.273.03-.516.152-.243.03-.425-.061-.182-.121-.3-.607v-.516l.88-1.881.425-2,.243-.516,1.032-.577,1.153.485,1.123.758,1,.243-.273-.789-.364-.849-.364-.273-.273.758-.425-.364-.941-.455-.394-.3-.3-.394-.091-.364.152-.425.3-.546.789-.849.516-.395.243.121.182.546.425.425.971.485-.212.152-.182.212-.152.243-.091.334.758-.091.667-.3.607-.061.667.667.182.3.091.3-.03.334-.243.425-.607.485-.243.3.212.152.789-.061.3-.182.3-.334.152-.425.091-.455.152-.182.637.607.3.182.243.273.152.789.425,1.123.091-.091.061-.121.182.152.3.152.152.152-.121-1.092-1.214-1.578-2.367-2.367.334-.455.394-.243,2.4-.7.425.03.243.273.394.789.334.3.425.152.485.03.425-.212.273-.425-.394-.121-.819.061-.334-.243-.212-.364-.061-.152.03-.637.152-.364.182-.152v-.03l-.88.03-.88.394-.607.182-1.881.182-.425-.243-.03-.425-.212-.667-.152-.667-.425-.364-.091-.364-.091-1.487.182-.546.516-.364.7.03.546.394.91,1.274.273.212.394.152h.364l.182-.243-.121-.212-.85-.7-.85-1.123-.485-.425-.576-.03.91-1.517.576-.576.516.152.88,1.487.061.486-.03.425.03.364.273.3.121-.455-.091-.667.121-.243.364-.182,1.4.182-.334-.425-1.335-.485-.485-.334-.394-.546-.273-.546-.061-.546.334-.516.546-.212.607.182.637.3.607.182.485.243.576.516.516.273.334-.364-.425-.121-2.822-1.638-.273-.273.091-.485.394-.455,1.183-1,.364-.212.455-.091.546-.03-.121-.152-.212-.364-.121-.152,1.79-1.092.758-.03.334,1,.061.152.182.182.152.243.061.334-.061.3-.212.637-.03.3.182.455.273.334.182.425-.152.607.85.091.425-.061-.091-.364-.091-.182-.091-.243-.03-.243-.03-.243-.061-.212-.485-.485-.061-.334.061-.455v-.546l-.152-.455-.182-.364-.334-1.062-.061-.395.273-1.123.7-.728.85-.121.728.728.182.425-.061.243-.212.243-.212.455-.121.607.091.485.212.395.425.3.061-.728.182-.485.243-.455.182-.577-.03-.667-.607-.7-.152-.576-.273-.425-.061-.243.455-.243.243-.212.243-.152.273.182.425.637.394.394.425.243.607.182-.394-.243-.88-1.092-.607-.546-.091-.364.182-.455.364-.3,1.244-.364.182-.212.182-.455.121-.212.152-.091.394-.152.182-.121.667-.728.667-.3.7.182,1.032.94.789.455.3.364.728,1.426.152-.364.061-.485-.061-.516-.152-.425-.121-.121-.546-.3-.607-.7-.152-.091-.121-.03-.091-.061-.121-.243-.061-.243.061-.88-.152-.971-.152-.485-.182-.364.546-.819L80.2,1015.1l.667-.607.85-.576.576-.758-.091-1.062h2.093l.212-.121.273-.576.03-.516-.091-.091,1.274-.425,1.183-.061.819.364.789.546.455.546.485.7.243.667.3.576-.212.758-.182.546-.667,2.64-.516.516-.758.546-.789,1-.819,1.426-.455,1.214-.607,2.458.091,1.183-.394,2.639-.485,1.274.121,1.244.243,1.062.455,1.032.637.88.667.607,1.3.607.061.637-.85,2.791.121.971.394,1.123.728,1.578.03.91.334,1,1.153.607.91.03,1.547-.121,4.1-1.881.546.273.667,1.669,1.487,2.154.576,1.153.789.334.91.152,1.032-.485,2.579-3.762,1.032-.546.85.485,2.154,2.4.394,1.426-.971.91-1.638,4.308-1.426,2.973-.364,1.456-.152,1.092v.91l.061.607.121.7.121,1.153.394.455.667.637.3.728.121.85-.121.941.03,1,.212,1.062.607.88.637,1.123.273,1.153-.061.88.273.91.758,1.881-.061,2.185-.152.971-.334.85-.182,1.031.3.85.182.91v.88l.121.728.941,1.335.03.667-.273.88-.394.728-.091,1.82Z" transform="translate(0 -686.641)" fill="#7c7c7c" stroke="#fff" stroke-linecap="round" stroke-linejoin="round" stroke-width="1"/>
    <path id="Waikato" d="M701.959,225.49h-.425l-.182-.061-.273-.152-.061-.091.03-.121.061-.121.03-.091.03-.091-.03-.091-.03-.091-.152-.121-.182-.061-.182-.121-.121-.3.637-.212.152.243.243.758.273.03.182.121.152.182.121.273-.152.091-.121.03Zm2.882,21.663-.94.364-.121,1.123-.485.789-.425.182-.091.516.546.485-.061.364-.759-.212-.7-.394-.273.425-.182.455.3.364.243.546-.182.455-.061.7.394.819.03.85.455,1.062.576.941.819,2.033.3,2.4.182.364.637.819-.03.637-.182.7.364,1.244.273.485.364.091.394.03.789.364.243.819.546.516.7.425,1.669.273,1.032,1,.364.455-.03.667.3,1.244.212,1.244.3.819.394.667.243.485.273.364,3.55,1.608.607.576.243,1.153-.546,2.367-.455.819-1.4-.667-.425.3-.152.607-.273.667-.516.243-.576-.03-.334-.243.061-.3.152-.364.364-.394.152-.243.03-.364-.091-.364-.243-.243-.3-.121h-.334l-.212.121-.364.334-.212.152-.364.152-.394.061h-.789l-.121-.121-.485-.607-.485-.273-.425-.425-.607.637-.273.364-.212.455-.334.091-.334.061-.212.667.243.637,1.335.364,1.942.789.364.425-.546,1.3-.273,1.183.94,1.092.516,1.123-.425.455-.516.182L709,288.749l-.485-.03-.212.7-.152.971.273.425.576,1.214.667,1.123.607.576.728.152.546-.3.394.394.455,2.731-1.092,1.851-1.153,1.456-.637-.212-1.365.485-1.76-.061-1.032.121-.121.091-.061.182-.637.758-.94.334-.273.364-.152.394-.243.394-.182.455-.121.485-.273.364-.91.455-.971-.121-2.124.03-2.033-.607-.091-1.183.546-1.092.485-1.274.3-1.4-.212-.607-.3-.485.152-.7.394-.576.394-.85v-.637l-.758-.061-.758.121-.819-.485.182-1.092.212-.364-.061-.485-.455-.546-.121-.728.425-.85v-.85l-.667-.576-.425-.819.819-1.3.516-1.244.3-1,.667-.758.364-.85-.3-.334-.667.425-.7.243-.971-.455-.789-.546h-1.456l-1.4.334h-.546l-.394-.364-.485.334-.121.334-.03.334-.243.091-.3.182-.394.334-.941.516-.576.091-.91-.182-.971-.061-.243.182-.212.152-.243-.121-.273.061-.485.394-.546.273-1.456.273-.182.394.091.546-.576.971-.061.273.03.243-.88.3-.819.516-.637-.425-.425-.485-.3-.243-.334-.091-.455.152-2.063-.152-1.638-.849.03-.091.364-.121-.152-.516.061-.455.152-.455.091-.516.061-5.158.182-1.123.819-1.881.3-1.032.182-1.153.121-1.76.212-1.062.03-.607-.091-.546-.212-.546-.121-.516.121-.425.364.182.425.061.455-.091.364-.152.03.334.121.273.152.243.152.152h.152v-.425l.364.273.273.394.334.212.485-.243-.182-.121-.485-.516.637-.212.728.091.637-.061.425-.637h-.425l-.182.061-.182.182-.182-.243.061-.576-.455-.425-.667-.212-.455.121-.182.334-.091.3-.152.212-.364.061-.243-.182-.03-.425.091-.485.091-.3.212-.334.212-.091.212-.03.3-.152.758-.819.364-.273.03-.576-.273-.516-.546-.061-.364.516-.212.7-.3.364-.637-.455-.091-.546.182-2.822.637-1.4,1.092-.394,1.335-.03,1.274-.182-.091-.273-.152-.182-.182-.121-.243-.03.334-.243.243-.334.091-.425-.182-.455-.971.607-.091.152-.091.334-.121.121-.091-.03-.152-.091-.152-.061-.728.334-.394-.455-1.487-5.795-1.365-3.277-.243-1.335v-.334l.212-.364.273-.152.667-.182.273-.152.243-.576.212-.667.3-.546.576-.243.061-.121-.121-.212-.243-.121-.334.182-.212.182-.455.3-.212.182-.667,1.214-.334.152-.516-.455L675.23,246l-.455-1.062,1.365-.212,1.4-.941,2.033-.637,2.518-.637,2.64-.637,2.154-.3.121-2.063.516-1.578.485-1.123.758.485,1.274-.7.121.364.061.425v.667l-.3,2.033.091.7.273.637.364.546.364.425.849.485,1.032.03,1.062-.273.91-.425.182-.182.091-.212.121-.152.334-.061.182.121.061.334v.637l.121.576.3.364.425.061.425-.273-.364-.091L696.5,243l-.152-.425-.091-.941-.212-.758-.061-.394-.394-.88-.091-.425.03-1.547-.091-.364-.121-.243-.546-1.79-.152-.334-.243-.334-.273-.3-.607-.425-.243-.273-.121-.3-.091-.3-.121-.3-.3-.273.516-.182.546.091h.516l.334-.485h-.758l-.364-.061-.334-.182.3-.091.3-.061.243-.152.152-.273h-.212l-.152-.091-.152-.061-.121-.061,1.153-.334.394-.364-.121-.7-.364.243-.121.152-.152-.3-.121-.273v-.3l.121-.3-.516-.88.152-.789.3-.7-.091-.667-.212-.091-.273-.03-.212-.121-.121-.243-.061-.061-.425-.607-.425-.243-.849-.334-.394-.364-.212-.364-.121-.485-.061-1.123.212-.425h.455l.576.121.789-.182.152.152.091.243.152.243.091.243.03.091.091.091.182.091.485.485.243.03.607-.7.425.546.273.728-.03.758-.516.576.485.394h.546l.394.152.182.758.061.728-.061.394-.243-.121-.3-.273-.212.061-.091.273.152.334.243.121.7-.121.243.091.152.334-.091.3-.152.273-.061.3.152.85.334.091.94-.758-.334-.152-.152-.03.182-.273.273-.091.334.061.273.182.273.152.334-.182.576-.455.425-.152.334-.03.3.121.3.364.273.03.3-.182.243-.03.061.485-.121.394-.243.091-.667-.091-.121.152-.455.85-.3.212-.576.243-.3.243-.364.516-.364.607.3.212-.03.212-.091.212.061.243.273.273.273.182.182-.03-.03-.3.394-.3-.182-.941.3-.394.485.273.971-.212.546.455.091.334-.03.728.091.334.364.485.091.212.121.394.121,1.4-.061.941v.152l.03.3-.121.3-.212.334-.091.3.121.182.243-.152.273-.3.152-.243.425.546-.091.728-.334.789-.394.637-.03.273.243.091.3.061.212.091.061.364-.03.85.121.394-.212-.152-.182-.243-.121-.3-.121-.3h-.182l.121.728.152.637.061.516-.334.334.789.364.273.273.243.546.212,1.153.091,1.183.061.212Z" transform="translate(-437.327 -136.813)" fill="#7c7c7c" stroke="#fff" stroke-linecap="round" stroke-linejoin="round" stroke-width="1"/>
    <path id="Wellington" d="M679.017,645.794l-.364.121-.152-.061-.091-.152.061-.182.091-.152.728-.759.121-.182.212-.546.121-.091.182-.03.121-.03.212.121.061.152-.394.758-.91,1.032Zm32.494-2.731-.819,2.063-.364,1.456-.364.607-1.153.485-.485.546-.394.728-.273.637-.758,2.822-.485,1.183-2.366,3.337-3.58,2.943-.85.91-1.183.849-1.365.728-5.127,4.066-1.608.637-.394.273-.758.88-.394.182-1.79.152-.364-.212-.212-.971-.364-.3.121-.455-.121-.364-.182-.3-.152-.394-.03-.425.364-2.336-.091-.334-.273-.212-2.791-1.092-.637-.061-.576.152-.546.364-1.153,1.274-.212.152-.243.061-.394-.091-.516-.394-.3-.3-.061-.273.3-.576-.03-.516-.152-.576-.03-.759.182-.667.516-1.214.091-.789-.273-.7-.607-.182-.7.121-.485.212-.364.3-.273.3-.182.394-.152.485,1.092.273.334.3-.152.728-.152.243-.212.212-.243.03-.273-.182-.243-.091-.273.212-.273.273-.3.152-1.092-.212-1.123-.607-.88-.88-.212-1.092.273-.607.425-.243,1.062-.212.394-.334.91-1.123.576-.546.576-1.3.364-.3.485-.243.3-.334.243-.03.3.819.3-.3.121-.273v-.3l-.091-.425-.121-.061-.3-.394-.152-.394.182-.212.273-.121.394-.576.273-.121.273-.091.3-.212.273-.273.182-.273.182-.394.061-.3.091-.789.485-1.4.212-.455,1.4-1.517.607-1.062.728.03,2.427-.516,3.034.061,1.76-.485.091.061,1.214.394.637.243,3.7-.425,3.61-.546,4.551-.637,3.155.121,2.124.516.728,1,.789.425Z" transform="translate(-436.351 -429.385)" fill="#7c7c7c" stroke="#fff" stroke-linecap="round" stroke-linejoin="round" stroke-width="1"/>
  </g>
</svg>
