<svg id="Layer_2" data-name="Layer 2" xmlns="http://www.w3.org/2000/svg" xmlns:xlink="http://www.w3.org/1999/xlink" viewBox="0 0 400 300" width="406" height="306" class="illustration styles_illustrationTablet__1DWOa"><defs><linearGradient id="linear-gradient" x1="87.89" y1="214.2" x2="121.73" y2="179.18" gradientUnits="userSpaceOnUse"><stop offset="0" stop-color="#007f68"></stop><stop offset="1"></stop></linearGradient><linearGradient id="linear-gradient-2" x1="137.14" y1="246.84" x2="216.32" y2="180.6" xlink:href="#linear-gradient"></linearGradient><linearGradient id="linear-gradient-3" x1="206.82" y1="256.69" x2="278.72" y2="196.55" xlink:href="#linear-gradient"></linearGradient></defs><title>PP</title><path d="M189.1,288.42l-165.77-98c-5.28-3-9.8-7.83-4.66-11L185,83.55c2.5-1.55,6.29-2.56,8.82-1.09l174,101c5.28,3.06,6.22,11.63.94,14.69L211,288.26A22,22,0,0,1,189.1,288.42Z" fill="#007f68"></path><polyline points="226.58 146.13 91.32 222.83 36.24 192.2 168.86 118.05" opacity="0.32" fill="url(#linear-gradient)"></polyline><polyline points="271.58 177.49 136.33 254.19 100.57 234.31 233.47 160.29" opacity="0.32" fill="url(#linear-gradient-2)"></polyline><polyline points="328.9 193.73 206.09 263.37 173.63 245.31 294.3 178.1" opacity="0.32" fill="url(#linear-gradient-3)"></polyline><polyline points="87.38 55.62 87.38 183.77 124.25 204.87 165.9 180.26 165.9 52.12" fill="#ff734d"></polyline><polygon points="87.38 55.62 130.17 31.26 165.9 52.12 124.25 76.72 87.38 55.62" fill="#ffb5a4"></polygon><polygon points="124.25 76.72 124.25 204.87 165.9 180.26 165.9 52.12 124.25 76.72" fill="#f78b72"></polygon><polygon points="211.68 68.08 168.88 92.44 168.88 193.92 205.76 215.02 247.4 190.41 247.4 88.94 211.68 68.08" fill="#72bf44"></polygon><polygon points="168.88 92.44 211.68 68.08 247.4 88.94 205.76 113.54 168.88 92.44" fill="#fff" opacity="0.49"></polygon><polygon points="205.76 113.54 205.76 215.02 247.4 190.41 247.4 88.94 205.76 113.54" opacity="0.2"></polygon><polyline points="249.86 149.56 249.86 196.85 286.74 217.95 328.39 193.34 328.39 146.06" fill="#ffad4a"></polyline><polygon points="249.86 149.56 292.66 125.19 328.39 146.06 286.74 170.66 249.86 149.56" fill="#fd9"></polygon><polygon points="286.74 170.66 286.74 217.95 328.39 193.34 328.39 146.06 286.74 170.66" fill="#ffc36c"></polygon><path d="M264.71,118l-23.9,101c-.58,2.43,3.17,3.47,3.74,1l23.9-101c.58-2.43-3.17-3.47-3.74-1Z" fill="#72bf44"></path><path d="M287.14,130l-23.9,101c-.58,2.43,3.17,3.47,3.74,1l23.9-101c.58-2.43-3.17-3.47-3.74-1Z" fill="#72bf44"></path><path d="M262.22,134l22.43,12.53c2.18,1.22,4.14-2.13,2-3.35l-22.43-12.53c-2.18-1.22-4.14,2.13-2,3.35Z" fill="#72bf44"></path><path d="M259.88,148l21.51,12c2.18,1.22,4.14-2.13,2-3.35l-21.51-12c-2.18-1.22-4.14,2.13-2,3.35Z" fill="#72bf44"></path><path d="M257.28,159.38l21.48,12c2.18,1.22,4.14-2.13,2-3.35l-21.48-12c-2.18-1.22-4.14,2.13-2,3.35Z" fill="#72bf44"></path><path d="M253.9,171.61l21.29,11.89c2.18,1.22,4.14-2.13,2-3.35l-21.29-11.89c-2.18-1.22-4.14,2.13-2,3.35Z" fill="#72bf44"></path><path d="M251,182.8l21.33,11.92c2.18,1.22,4.14-2.13,2-3.35l-21.33-11.92c-2.18-1.22-4.14,2.13-2,3.35Z" fill="#72bf44"></path><path d="M247.72,195.81l22.43,12.53c2.18,1.22,4.14-2.13,2-3.35l-22.43-12.53c-2.18-1.22-4.14,2.13-2,3.35Z" fill="#72bf44"></path><path d="M88.4,74,60,194.13c-.68,2.89,3.77,4.12,4.45,1.23L92.85,75.27c.68-2.89-3.77-4.12-4.45-1.23Z" fill="#72bf44"></path><path d="M115.08,88.26,86.66,208.35c-.68,2.89,3.77,4.12,4.45,1.23L119.53,89.49c.68-2.89-3.77-4.12-4.45-1.23Z" fill="#72bf44"></path><path d="M85.44,93l26.67,14.9c2.6,1.45,4.93-2.54,2.33-4L87.77,89c-2.6-1.45-4.93,2.54-2.33,4Z" fill="#72bf44"></path><path d="M82.66,109.68,108.24,124c2.6,1.45,4.93-2.54,2.33-4L85,105.69c-2.6-1.45-4.93,2.54-2.33,4Z" fill="#72bf44"></path><path d="M79.56,123.2l25.54,14.27c2.6,1.45,4.93-2.54,2.33-4L81.89,119.21c-2.6-1.45-4.93,2.54-2.33,4Z" fill="#72bf44"></path><path d="M75.55,137.74l25.31,14.14c2.6,1.45,4.93-2.54,2.33-4L77.88,133.75c-2.6-1.45-4.93,2.54-2.33,4Z" fill="#72bf44"></path><path d="M72.07,151.05l25.36,14.17c2.6,1.45,4.93-2.54,2.33-4L74.4,147.06c-2.6-1.45-4.93,2.54-2.33,4Z" fill="#72bf44"></path><path d="M68.2,166.52l26.67,14.9c2.6,1.45,4.93-2.54,2.33-4l-26.67-14.9c-2.6-1.45-4.93,2.54-2.33,4Z" fill="#72bf44"></path><path d="M172.53,109.54,145.89,222.1c-.64,2.71,3.53,3.86,4.17,1.15L176.7,110.69c.64-2.71-3.53-3.86-4.17-1.15Z" fill="#f2f2f2"></path><path d="M197.53,122.86,170.89,235.42c-.64,2.71,3.53,3.86,4.17,1.15L201.71,124c.64-2.71-3.53-3.86-4.17-1.15Z" fill="#f2f2f2"></path><path d="M169.76,127.29l25,14c2.43,1.36,4.62-2.38,2.18-3.74l-25-14c-2.43-1.36-4.62,2.38-2.18,3.74Z" fill="#f2f2f2"></path><path d="M167.15,142.94l24,13.39c2.43,1.36,4.62-2.38,2.18-3.74l-24-13.39c-2.43-1.36-4.62,2.38-2.18,3.74Z" fill="#f2f2f2"></path><path d="M164.24,155.62,188.19,169c2.43,1.36,4.62-2.38,2.18-3.74l-23.94-13.38c-2.43-1.36-4.62,2.38-2.18,3.74Z" fill="#f2f2f2"></path><path d="M160.48,169.24l23.73,13.25c2.43,1.36,4.62-2.38,2.18-3.74l-23.73-13.25c-2.43-1.36-4.62,2.38-2.18,3.74Z" fill="#f2f2f2"></path><path d="M157.22,181.72,181,195c2.43,1.36,4.62-2.38,2.18-3.74L159.4,178c-2.43-1.36-4.62,2.38-2.18,3.74Z" fill="#f2f2f2"></path><path d="M153.59,196.22l25,14c2.43,1.36,4.62-2.38,2.18-3.74l-25-14c-2.43-1.36-4.62,2.38-2.18,3.74Z" fill="#f2f2f2"></path><path d="M69.89,156.87a93.54,93.54,0,0,0-1.47,11.87c.08,1.83,2.85,2,3.7,1.94s2.52-.85,3.57-.88,6.91-1.14,6.74-2.69-1.18-3-2.5-3.12-4.88.15-4.88.15l.36-8.48" fill="#ff6753"></path><path d="M68.76,166.19a13,13,0,0,0,8.65-.11,4,4,0,0,0,2.35-2.15h.14c1.32.07,2.34,1.56,2.52,3.1s-5.67,2.69-6.72,2.74-2.72.83-3.57.91-3.62-.08-3.72-1.91a24.09,24.09,0,0,1,.15-2.67Z" fill="#312a87"></path><path d="M87.7,81.69a8.22,8.22,0,0,0,1.74-2.63c.15-.93-1.18.11-1.18.11l.52-2.32s-1.09,1.23-1.63,1.79S84.72,82,84.39,82.51a12.9,12.9,0,0,1-2.86,1.6s.32,2.25,1,2.51,4.59-2.29,4.59-2.29Z" fill="#f04900"></path><path d="M72.62,109.79c0-.14-4.07,7.32-4.19,13.19-.09,4.43-.34,39.94-.34,39.94s3.74,2.21,10.84.15c1-.3,2.34-30.59,2.34-30.59l-2.43-15.62" fill="#4739aa"></path><path d="M84.36,167.62a93.54,93.54,0,0,0-.87,11.93c.18,1.83,3,1.86,3.8,1.75s2.47-1,3.52-1.06,6.84-1.49,6.6-3-1.33-3-2.65-3-4.87.4-4.87.4l-.07-8.49" fill="#ff6753"></path><path d="M81.16,156.92a4.07,4.07,0,0,0-.17-.48,53.42,53.42,0,0,0-3.75-13.35c-.44-2.44-.74-4.05-.77-4.18-2.1-8.4-.53-10.68-1-23.39l9.11.47s5,16.6,6.86,31.56c.44,3.59,1,23.14,1,23.14a12.21,12.21,0,0,1-10,1.35l-.19-1C83.42,166.33,82.4,161.49,81.16,156.92Z" fill="#4739aa"></path><path d="M86.58,107.7c.79-3.43,2.34-5.06,2.08-8.55a38.09,38.09,0,0,0-6.74-7.33L79.16,92a5.24,5.24,0,0,0-4.79,4.27c-1,5.36-2.63,14.31-2.53,15.06s4.66,6.11,12.75,5.38C85.3,113.72,85.89,110.7,86.58,107.7Z" fill="#a07def"></path><path d="M87.85,87.12s-.16,7.22-2.88,7.4-5.07-3.37-5-4.84S84.78,84,87.85,87.12Z" fill="#f04900"></path><path d="M87.62,83.34c.26.15,2.43,2,2.12,2.93s-1.06,3-1.7,2.59-.43-1.76-1.16-.87S85.56,89.52,85,89.19a1.4,1.4,0,0,0-1.12-.13s-.84,5.1-1.37,4.67S79.68,91.84,79,90.15a8.07,8.07,0,0,1,.12-4.34A4.66,4.66,0,0,1,80,83.92C80.91,83,85.78,82.29,87.62,83.34Z" fill="#fbb03b"></path><path d="M80,83.92a13.79,13.79,0,0,0-3.88,7.75c-.47,4.55,7.46,6.48,7.46,6.48l.31-9.1" fill="#fbb03b"></path><path d="M85.64,176.58c2.73.6,5.7,1,7.8-1.28a4,4,0,0,0,.69-1.07l.63,0c1.32,0,2.41,1.45,2.65,3s-5.54,2.94-6.6,3-2.68.95-3.52,1.06-3.62.08-3.8-1.75a28,28,0,0,1,.05-3.11A7.69,7.69,0,0,0,85.64,176.58Z" fill="#312a87"></path><path d="M72.62,123.77c-.06-.4.55-.57.61-.17,2.28,16.11,10.68,31.29,9.42,47.88,0,.4-.66.4-.63,0C83.28,155,74.9,139.83,72.62,123.77Z" fill="#a07def"></path><path d="M101.79,108.45c.24,0,4.89-.74,5.44-1.58s1.48-4.12,2-3.94-.32,3.1.3,2.76,3.46-2.34,3.82-1.89-2.93,2.24-2.09,2.18,4.14-2,4.12-1.58c-.06,1.4-4.42,2.48-3.82,2.66s3-.92,3-.12-3.17,1.38-2.93,1.53,2.57-.15,1.79.68-2.75.26-3.58.54-3.22,2.39-10.33,2.57" fill="#f04900"></path><path d="M105.12,107.08c-2.58.17-7.1,1.47-9.3-.19-4-3-8.86-10-8.86-10l-3.66,7.18s2.53,5.62,7.39,8.28c3.63,2,9.47,1.79,12.81,1.45A65,65,0,0,0,105.12,107.08Z" fill="#a07def"></path><path d="M200.42,58.17s2.76-3.36,3-4.49.38-5.7,1.19-5.8,1.26.83,1.75.73a10,10,0,0,1,2.13-.39c.18.12,2.93,3,2.59,4.17s-4.65,4-4.65,4l-5.23,5.73" fill="#fcbf81"></path><path d="M174.11,52.12s-.44-4.33,0-5.39,2.84-5,2.22-5.49-1.51,0-1.86-.35-1.35-1.51-1.56-1.51-4.11.89-4.46,2,1.64,5.94,1.64,5.94L171.28,55" fill="#fcbf81"></path><path d="M179.75,73.46s-5.24-23.36-6-23.5a8.58,8.58,0,0,0-5.08,1.18c-1.82,1.18,2.13,27.62,2.13,27.62" fill="#06825e"></path><path d="M177.12,170.09l3.48,1.57a2,2,0,0,0,1.34,1.44.8.8,0,0,0,.48.32,9.42,9.42,0,0,0,4.31-.35c1.76-.4,8.66-2.43,6.42,2.24-1.29.76-2.72,1.39-4,2.05-.74.37-1.48.74-2.23,1.08a4.25,4.25,0,0,1-1.3.48c-1,.07-3.25-.84-3.33-.6s-.44,2.07-.44,2.07-6.29,1.84-6.22-2.27C175.59,177.59,177.12,170.09,177.12,170.09Z" fill="#e55600"></path><path d="M174,164.25s6.25-2.2,7.71-2.19,3.85.7,1.51,3.2c0,0-6.68,3.64-7.53,3.7s-2.83-.73-2.9-.52-.39,1.8-.39,1.8-5.47,1.6-5.41-2c0-.47,1.33-7,1.33-7" fill="#e55600"></path><path d="M175,133c.22-12.11.78-24.27-.81-36.32.14-3.09-2-1.28-1.78-2.49,1.88-9.83,15.38,3.13,15.38,3.13.55.52.37,3.57.43,4.27q.52,5.79.76,11.6c.83,19.55-1.6,38.74-4.13,58.08-3.32,2.89-5.4,3.66-10.19,1.24,0-12.79.12-25.58.33-38.36Q175,133.59,175,133Z" fill="#ffe427"></path><path d="M167,154.34c.31-4.81.9-9.61,1.31-14.37.63-7.3.45-14.61.54-21.92.91-9.06,1.83-20.58,1.83-20.58l7.5,2.09s4.87,63.16-2.61,65.84-8.63-2.19-8.63-2.19S167,159.5,167,154.34Z" fill="#ffe427"></path><path d="M170.08,97a20.15,20.15,0,0,1,.48-3.77,44.91,44.91,0,0,0,0-12.1c-.46-3.88-.49-7.89,1.9-11.2,3.45-2,8.25-.21,11.16,1.93,3.93,2.9,5.25,22.59,5.2,28.68,0,.86-5.22,1.3-5.8,1.34a24.53,24.53,0,0,1-8.08-.6c-1.88-.51-4.22-1.44-4.75-3.54A3.92,3.92,0,0,1,170.08,97Z" fill="#22b68e"></path><path d="M174.95,102.72a.55.55,0,0,1,1,.34c-3.56,10.9,2.34,22.17,1.2,33.28-.6,5.85-1.64,11.62-2,17.51a140.44,140.44,0,0,0,.19,18.77c.05.7-1,.64-1.09-.05a140.44,140.44,0,0,1-.19-18.77c.36-6.21,1.57-12.3,2.07-18.48C177.07,124.39,171.42,113.5,174.95,102.72Z" fill="#34323d"></path><path d="M179.18,58.82c.33.07,3.32,6.26,2.4,10.13s-7.58.2-9.33-2.65S173,57.48,179.18,58.82Z" fill="#fcbf81"></path><path d="M179.13,59.7a3,3,0,0,1-1.71,2.83c-1.8.74-3.29,1.26-3.15,2.1s3.29-.25,3.37,1.67a14.37,14.37,0,0,1-.36,3.86c-.16,1-5.74-1.72-7.74-6.58s2.45-6.35,2.67-6.4a4.58,4.58,0,0,1,2.76-2c2.19-.57,2.85.26,2.85.26a2.68,2.68,0,0,1,3.24.22,3.41,3.41,0,0,1-.55,5.8Z" fill="#34323d"></path><path d="M180.23,70.35s6.73.06,9.78-2.27S201.77,54,201.77,54s6.36,4.4,6.37,5.83-10.8,16.42-13.77,18.11-9.21,5.41-9.21,5.41" fill="#22b68e"></path><path d="M187.15,82s-2.26-.06-3.36,0,4.73,10.86,4.73,10.86Z" fill="#06825e"></path><path d="M268.47,163.2s3.94-3.75,4.53-4.63-.66-4.36.38-5.45,1.46.59,1.46.59,1.13-1.33,2.13-1,3.42,2.09,3.1,3-1.66,3.92-3.55,5.3c0,0-4.18,6.59-5.69,6.81S268.47,163.2,268.47,163.2Z" fill="#ce4823"></path><path d="M252.65,233.79c-.06-2-2.29-2.09-2.89-3.44a3.56,3.56,0,0,1-.15-1.66.86.86,0,0,1-.86-.92,10.76,10.76,0,0,1,.59-2.91L246.26,222a45.32,45.32,0,0,0-2.7,4.8,50.92,50.92,0,0,0-.2,8.07c.2.63,1.31.48,1.87.34s0-5.16.54-4.9.86,4.58,1.57,5.54,5,.55,5,.55A6,6,0,0,0,252.65,233.79Z" fill="#273238"></path><path d="M249.5,227.94c-.54-3.73.73-10.38.73-10.38l-5.1.39-.82,7.46a.81.81,0,0,1,.17.43.46.46,0,0,0,0,.1l.1.16c.33.37,1.23.42,1.63.64a2.42,2.42,0,0,1,1.16,2.2c.21,1.65.21,4.17,4.7,3.48C252.1,232.42,250,231.66,249.5,227.94Z" fill="#ce4823"></path><path d="M260,236.84c-.15-2-2.38-2-3-3.3a3.56,3.56,0,0,1-.23-1.65.86.86,0,0,1-.9-.88,10.76,10.76,0,0,1,.44-2.93L253,225.38a45.32,45.32,0,0,0-2.47,4.93,50.92,50.92,0,0,0,.19,8.07c.23.62,1.33.42,1.88.25s-.23-5.16.3-4.92,1.08,4.53,1.83,5.46,5.06.31,5.06.31A6,6,0,0,0,260,236.84Z" fill="#273238"></path><path d="M256.56,231.14c-.72-3.7.23-10.41.23-10.41l-5.08.64-.45,7.49a.81.81,0,0,1,.19.42.46.46,0,0,0,0,.1l.1.15c.34.36,1.25.36,1.66.56a2.42,2.42,0,0,1,1.27,2.15c.29,1.64.41,4.16,4.86,3.25C259.38,235.5,257.28,234.84,256.56,231.14Z" fill="#ce4823"></path><path d="M245.25,152.93s-2.91.86-4.3,8.07-2.15,11.26-.63,13.41,6.79,5.69,6.79,5.69l6.21-8.34" fill="#faca66"></path><path d="M246.64,170.18s-7.06-14.73-1.38-17.25,12.67,1.17,13.84,4.9-.53,14.9-.53,14.9S251.11,172.94,246.64,170.18Z" fill="#faca66"></path><path d="M258.14,156.1s4.89,8.21,8.65,7.09,4.8-2.82,4.8-2.82,3.2,3.39,2.63,7.34c0,0-4.11,4.05-8.25,4.62s-9.25-4.71-9.25-4.71" fill="#faca66"></path><path d="M244.73,222.46c5.52,2.84,8.67,5.59,14.77,4.19,1.72-.42,3.27-25.09,3.27-26.35,0-8.12,1.14-13.3-.92-21.17-.29-1.1-1.92-7.2-3.16-7.35l-12.06-1.6s-2.36,4.14-2.47,13c-.07,5.91.76,11.78.89,17.68a50.58,50.58,0,0,1-1,10.2c-.32,1.72-.9,3.63-1.31,5.52a32,32,0,0,0-.44,4.38A18,18,0,0,0,244.73,222.46Z" fill="#bc3b1d"></path><path d="M247.07,154c-.24-.13-1.42-2.35.16-2.93s6.8,0,6.77,1,0,2.4,0,2.4A8.86,8.86,0,0,1,247.07,154Z" fill="#e5572c"></path><path d="M246.8,169.59a33.73,33.73,0,0,1-2.68-11.83c0-.43-.7-.44-.68,0a34.68,34.68,0,0,0,2.78,12.17C246.39,170.33,247,170,246.8,169.59Z" fill="#ce4823"></path><path d="M241,148c-1.41,2.44,1.91,7.35-1.4,8.73a6.91,6.91,0,0,1-2.32.37A5.86,5.86,0,0,0,232.9,159a6.55,6.55,0,0,0-.05,7.73c1.81,2.48,4.89,2.8,7.53,1.63,6.26-2.78,2.26-14.65,7-17.86l.23-5.35S242.84,144.86,241,148Z" fill="#ed913e"></path><path d="M255.71,143.75s-.12,7.7-1.63,8.67-5.67-.47-5.84-2.6S255.71,143.75,255.71,143.75Z" fill="#ce4823"></path><path d="M251.46,140.05s-2.66-1-6.53,1.15-2.6,9.39,1.92,10.86,5.67-2.92,6.52-4.72,2.32-2.4,2.32-3.22S255.59,139.93,251.46,140.05Z" fill="#ed913e"></path></svg>