<svg xmlns="http://www.w3.org/2000/svg" width="818.182" height="1000" viewBox="0 0 818.182 1000">
  <g id="Play_Cart_Banner_1000" data-name="Play Cart Banner 1000" transform="translate(-4118 -2612)">
    <path id="Banner" d="M730.273,1H93.909c-50,0-90.455,40.909-90.455,90.909L3,679.636a91.159,91.159,0,0,0,40,75.455L412.091,1001,780.727,755.091a91.159,91.159,0,0,0,40-75.455l.455-587.727C821.182,41.909,780.273,1,730.273,1Z" transform="translate(4115 2611)" fill="#3cadf1"/>
    <g id="shoppingcart" transform="translate(-3307.636 -276.632)">
      <rect id="Rectangle_75" data-name="Rectangle 75" width="545.45" height="545.45" transform="translate(7562 3025)" fill="none"/>
      <path id="Shopping_Cart-595b40b85ba036ed117dba8a" data-name="Shopping Cart-595b40b85ba036ed117dba8a" d="M2,2V56.545H64.215l71.59,213.066L94.9,324.156h-.852c-12.531,17.542-13.088,40.98-4.261,57.954s27.443,28.977,48.579,28.977H492.9V356.542H138.363c.055-.147-.277-.466,0-.851L179.271,302H435.8c10.906,0,21.987-5.285,24.714-16.192L544.895,94.9c8.179-19.091-5.626-38.352-24.717-38.352H121.317l-11.932-35.8L103.42,2H2ZM138.363,438.36A54.545,54.545,0,1,0,192.908,492.9,54.544,54.544,0,0,0,138.363,438.36Zm300,0A54.545,54.545,0,1,0,492.9,492.9,54.544,54.544,0,0,0,438.36,438.36Z" transform="translate(7560 3023)" fill="#fff"/>
    </g>
  </g>
</svg>
