<svg xmlns="http://www.w3.org/2000/svg" width="141.368" height="200" viewBox="0 0 141.368 200"><g transform="translate(-418.632 -2266)"><g transform="translate(372.932 2241.4)" opacity="0.8"><path d="M701.92,432.538l.061.713.349.546.789.228.121.3.061.288.061.091-.015.136-.243.2-.046.228-.091.228.061.182.258.121.319.273-.136.379-.061.47.061.85-.258.182-.379.106-.364.182-.531.713-.243.152-.167.167.137.091.137.045.076.182-.076.243.121.379.182.334-.046.091-.106.03-.045.182-.015.2-.546,1.957-.121,1.016-.258,1.168-.015.106.046.182.212.273.243.076.759-.03.7.607.167.106.2.03.091.03.091.061.061.182-.03.212.046.228.137.167.394.394.03.288-.076.258v.41l.334.819.03.47-.061.531-.03.455.349.394.41.288,1.244.106.349.182.47.44-.015.121-.212.349-.273.015-.3-.061-.228.061-.667,1.123-.7.7-.106.2-.015.152-.046.182-.061.167-.243.44-.076.061-.2.03-.076.061-.076.136-.455,1.153-.273.44-.394-.212-.364-.5-1.062-.258-1.578-.061-2.276.319-1.805.273-1.851.212-.318-.121-.607-.2-.045-.03-.88.243-1.517-.03-1.214.258-.364-.015.349-.576.546-1.229.319-1.062.121-.258.106-.319.046-.865.061-.349v-.076l-.015-.106.015-.091.03-.03h.091l.106-.03.076-.046-.076-.243-.03-.228-.015-.228.015-.137.106-.258.137-.88.046-.607-.015-.167-.061-.137-.2-.349-.152-1-.212-.834-.152-.394-.182-.349-.9-.925-.227-.425-1.077-1.229-.819-.516-.637-.3-.3-.061H685.4l.319-.576.243-.258.288-.182.288-.349.349-.273.258-.091.2-.243-.03-.212v-.3l.045-.106.121-.061.273-.076.212-.2-.076-.152-.106-.121.015-.7.182-.683-.106-.455-.167-.47-.546-.47-.334-.44-.106-.319-.015-.334.076-.137.046-.152-.061-.227-.228-.121-.531-.379.03-.212.121-.212.182-.5.334-.364.273-.045.2-.091.243-.531.986-1.289.137-.046.2.061.137-.091-.121-.258-.228-.212-.774-.182v-.47l-.182-.379-.47-.106-.258-.288-.121-.425.03-.5-.182-.349-.41.182-.3-.5-.121-.576.258-.531.045-.061.061-.061.258-.091.2-.121.41-.258.44-.152-.015-.121.03-.136.288-.485-.045-.273.091-.2.728-.137.273-.136.243-.2.136-.03.121.061.106-.076.121-.091.485.03.455.091.288-.045.47-.258.2-.167.152-.091.121-.045.015-.167.061-.167.243-.167.2.182h.273l.7-.167h.728l.395.273.485.228.349-.121.334-.212.152.167-.182.425-.334.379-.152.5-.258.622-.41.652.212.41.334.288v.425l-.213.425.061.364.228.273.03.243-.106.182-.091.546.41.243.379-.061.379.03v.318l-.2.425-.2.288-.076.349.152.243.106.3-.152.7-.243.637-.273.546.046.592,1.016.3,1.062-.015.485.061.455-.227.136-.182.061-.243.091-.228.121-.2.076-.2.136-.182.47-.167.319-.379.03-.091.061-.046.516-.061.88.03.683-.243.319.106Z" transform="translate(-542.658 -338.642)" fill="#fff"/><path d="M883.188,345.88l-.379-.592-.531-.091-1.259-1.107-1.942-2.215-.03-1.138-1.031-.7-.228.789-2.488-1.5.2-.394-.106-.516-.015-.485.789-.561,1.411-.592.44-.41.243-.47.046-.531-.076-.273.106-.228.288-.121.318-.046.319-.152.288-.228.258-.273.182-.076.167-.106.06-.182.061-.182.243-.273.046-.334.015-.577-.137-.349.137-.121.394.121.44.455.47.394.5.3.47-.637.667-2.336.607-1.153.44-.44.319-.561-.106-.3-.273-.015-.3.243-.258-.212.045-.349.091-.288.015-.485-.121-.425-.061-.137.03-.167.258-.121.667-.212.228-.379.015-.243,2.336.121.273.076.137.121-.152.167v.091l.137.076.228.228.121.106.2.076.2.03H889l.137.045.227.2.152.046h.364l.152.03.167.076.182.152.258.273.182.288-.015.258-.106.137-.212.364-.44.47-.243.683-.167.364-.41.3-.182.319-.318.925-.137.243-.182.243-.091.152-.045.167.091.349.167.3.137.319-.076.394-.182.2-.243.182-.106.228.288.622-.03.3-.152.288-.167.258-.076.3.167.3.228.258.121.2-.046.167-.091.152-.2.2-.045.2-.03.334-.076.182.137.061.121.106.076.152-.015.212-.076.121-.44.243-.046.121v.971l-.061.121-1.32,1.471-1.2,1.062-.2.106-.455-.425-.3-.076-.288.076-.258.182-.091.061-.076-.03h-.046l-.015.182v.076l.045.167.015.061.227.228.091.167-.031.182-.2.364-.076.334-.015.789-.122.88-.152.455Z" transform="translate(-703.75 -254.745)" fill="#fff"/><path d="M809.047,426.553l-.03.592-.091.243.106.3-.091.212-.167.227-.076.288.8.091.379.2.167.379-.637.667-.273.759-.106.485-.137.167-.2.152-.167.2-.319-.925-.091-.485.015-.44.045-.258.091-.243.106-.212.106-.167.015-.182-.167-.121-.212.015-.167.243-.121-.061-.349-.258-.182-.061-1.835-.091-1.9-.046-.152-.061-.106-.106-.106-.03-.3.273-2.169,1.077-1.593.774-.137.182-.061.334-.121.319-.152.3-.288.379-.425.47-.273.212-.03.046-.136.425-.152.182-.076.182-.03.2-.015.258.046.258.091.136.137.106.136.167.076.3.076,1.411.03.288.091.258h.061l.076.091.2.106.3.228.076.076.152.106H799l.394-.046.364.091-.03.212-.212.3-.121.364-.061.121-.121.121-.152.091-.258.106-.091.167-.273,1.016v.046l.015.076.015.091-.03.106-.046.03-.182.076-.061.046-.152.288-.394,1.35-.243.622-.167.258-.046.136-.015.2.03.394-.015.091-.015.076-.152.228-.03.076-.2.531-.288.561-.47.683-.5.486-.106.045-.106-.061-.091-.121-.106-.061-.136.091-.288.425-.106.243-.046.319.076-.137.091-.106.106-.061.137-.03-.758,1.547-.106.971-.47-.44-.349-.182L792,448.5l-.41-.288-.349-.394.031-.455.061-.531-.03-.47-.334-.819v-.41l.076-.258-.03-.288-.394-.394-.137-.167-.045-.228.03-.212-.061-.182-.091-.061-.091-.03-.2-.03-.167-.106-.7-.607-.759.03-.243-.076-.212-.273-.046-.182.015-.106.258-1.168.121-1.016.546-1.957.015-.2.046-.182.106-.03.045-.091-.182-.334-.121-.379.076-.243-.076-.182-.137-.046-.137-.091.167-.167.243-.152.531-.713.364-.182.379-.106.258-.182-.061-.85.061-.47.137-.379-.319-.273-.258-.121-.061-.182.091-.228.045-.228.243-.2.015-.137-.061-.091-.061-.288-.121-.3-.789-.228-.349-.546-.061-.713.576-.728.789.758.91.3.182-.228-.136-.3.288-.212.334-.091-.03-.41-.091-.5.576-.743.865.015.576-.076.167-.076-.091-.258-.03-.394.167-.349.576-.622.44-.607-.045-.485.076-.152.076-.137-.03-.758.243-.364.349-.243.288-.152,1-.273.667.394.334.076h.288l.2-.2.152-.212.091-.212.091-.228.2-.228.227-.182.152-.046.076.046.228-.106.167-.273.546-.212.091-.167.106-.137.152-.349.288-.091.212-.106,2.488,1.5.228-.789,1.031.7.03,1.138,1.942,2.215,1.259,1.107.531.091Z" transform="translate(-629.609 -335.418)" fill="#fff"/><path d="M651.681,192.046l-.015.137.091.3.015.137-.03.106-.061.046-.152-.03-.091.015-.243.076-.243.03-.243-.03-.47-.182.076-.106-.258-.258-.106-.015-.152.121-.121.046-.045-.167.03-.258.091-.167h.683l.137.076.091.137.121.076L651,192l.516-.455.258-.152.061.045.121.152.106.212-.091.076-.167.046ZM648.45,187.3l-.182.061-.409-.015-.121-.061.182-.121v-.167l-.121-.364.03-.167.167-.106.182.076.152.167.061.2.076.349Zm2.624-3.231-.2.03-.152-.015-.228-.319.167-.273.288-.167.167.015.045.091.106.121.091.137v.182l-.106.137-.182.061Zm2.276,11.393-.637.349-.379-.243-.243.561-.258.789-.06,1.032-1.077.152-1.32.319-1.259.319-1.016.319-.7.47-.683.106-.243-.607-.121-.455-.273-.531-.046-.137-.076-.3-.485-.941-.091-.41.2-.015.319.076.47-.152.167.061.121.121-.03.152-.106.167-.015.091.592,1.153.045.47.167.379.2.152.121-.334-.136-.379-.03-.228.136-.106.349.061.152-.015.167-.137h-.228l-.592-.106-.212-.091.182-.091.622-.561.091.03-.015.319.485-.576.258-.212.288-.03.455.516.152.091.167-.076.03-.167-.061-.2-.106-.167.03-.167-.592-.228-.228-.2-.182.061-.106-.182-.091-.288-.106-.212-.288.364-.182-.152-.015-.319.137-.182.136-.046.137-.106.106-.137.061-.167-.759-.137-.789.046-.394.106-.3.243-.106.182-.076.349-.045.167-.121.152h-.091l-.273-.258-.167.258-.258.228-.273.091-.228-.121-.137-.258-.47-1.669-.258-1.365-.228-.652-.607-1.123-1.608-2.033-.349-.667-.061-.667.03-.167.046-.136.091-.076.152-.03-.137.41-.015.2.061.2.2-.379.106-.152.167-.061.167.106.182.47.228.228.273.47.167.121.2.046.106.137-.015.167-.167.137.47.182.121.015.015.046-.121.076-.167.061-.167.03.106.076.046.121-.015.137-.061.152.152.015.106.046.228.152v-.106l.015-.2-.015-.106.121.212.121.334.106.152.121-.288.136.015L643.2,190l.015-.243.061-.212.076-.091.182-.167.061-.137-.182.061-.061.03-.106-.273.121-.652-.091-.167-.106.212-.046-.106v-.758l-.015-.046.046-.076.2-.212-.091-.167-.136-.152-.106-.167.045-.167.258-.228-.015-.091-.364-.228h-.076l-.2.258-.152.137-.091.061-.7.061-.364-.091-.258-.243-.076-.47.152.091.091-.349.137-.03.152.106.182.076.5-.03.243-.076.182-.137.182-.2.152-.091.349-.167.319-.288.121-.061h.091l.076-.046.03-.2-.061-.061-.03-.015-.015-.03-.046-.091.349-.258,1.138-.971.212-.137.137.167.667,1.016.364.425.486.349.3.121.015.076-.076.2v.046l.046.015.03.03-.03.061-.046.03-.046-.015-.015-.046-.015-.015-.061.046-.046-.03-.03.015-.03.167.091.258.258.106.334.046.273.091-.349.061-.956-.046-.212.03.03.2.167.607.2.379.015.258-.03.258-.046.228-.243-.683-.182-.288-.3-.121.212.637-.03.243-.258.015v.106l.106.046.106.061.091.076.091.106-.076.152-.258.152-.061.106v.2l.121.258.03.2v.288l.061.046.152.152.106.091.167.046.319.015.5-.2h.137l.121.106-.045.076-.546.319-.288.106-.182-.015-.5-.2.243.258.182.364.7,2.184-.258-.076-.152-.137-.167-.045-.3.167-.091-.076-.046-.091v-.106l.061-.137-.227-.046-.167-.394h-.167l-.41.212-.2.121-.182.212v.106h.091l.41-.061.212.061-.106.106-.167.106-.121.121.061.106.2.121.045.046v.091l.015.622.046.2.152.076.091-.076.015-.167-.015-.212.03-.152.076.121.091-.167.106-.152.136-.106.136-.076.182-.03.546.121h.743l.243.167-.03.44-.121.167-.106.106-.06.121.045.288.061.182.076.106.076-.03.106-.152.318-1.608h.076l.258.7.091.334-.015.379.258-.076h.3l.152-.121-.2-.349-.045-.243.273-.076.379.046.243.106.137.334-.137.667.152.258.182.046.152-.061.121-.091.2-.061.273-.2.076.03.061.061.061.015.379-.182.106-.015.121.046.258.212.137.046.106.061.409.516.076.137Zm1.381-12.849.03.167.167.167.3.2.3.121.106.015.106.061-.061.121-.106.152-.06.121-.045.212-.061.167v.167l.152.243.045.061.061.045.061.03.076.015.03.015v.061l-.015.076.015.046.227.319.091.076-.227.5-.106.106-.167.015-.091-.106-.045-.182v-.182l-.061-.152-.152.046-.182.106H655l-.061-.152-.03-.364-.045-.121-.091-.076h-.091l-.288.076.045-.137v-.091l-.045-.076-.076-.106-.273.091-.334-.152-.273-.288-.076-.349.3.379.091.03.106-.121v-.182l-.03-.2.046-.152.091-.243-.152-.137-.243-.121-.136-.243.349.015.152-.061.137-.152-.228-.243-.045-.288.136-.212.3-.046.106.046.106.076.076.137.03.182.046.091.349.258-.227.121Z" transform="translate(-504.145 -133.268)" fill="#fff"/><path d="M791.8,309.885l-.015.243-.228.379-.667.212-.258.121-.03.167.061.137.121.425-.015.485-.091.288-.045.349.258.212.3-.243.273.015.106.3-.319.561-.44.44-.607,1.153-.667,2.336-.47.637-.5-.3-.47-.394-.44-.455-.394-.121-.136.121.136.349-.015.576-.045.334-.243.273-.061.182-.061.182-.167.106-.182.076-.258.273-.288.228-.319.152-.318.045-.288.121-.106.228.076.273-.045.531-.243.47-.44.41-1.411.592-.789.561.015.486.106.516-.2.394-.212.106-.288.091-.152.349-.106.136-.091.167-.546.212-.167.273-.228.106-.076-.046-.152.046-.228.182-.2.228-.091.227-.091.212-.152.212-.2.2h-.288l-.334-.076-.667-.394-1,.273-.288.152-.349.243-.243.364.03.759-.076.137-.076.152.045.485-.44.607-.576.622-.167.349.03.394.091.258-.167.076-.576.076-.865-.015-.576.743.091.5.03.41-.334.091-.288.212.136.3-.182.228-.91-.3-.789-.759.546-.925-.228-1.365-.2-.2-.273.152-.364-.076-.3-.288-.334-.561-.288-.607-.137-.212.076-.485.106-.349.243.015.774.3.258-.091.212-.227-.258-.561-.47-.546.137-.592.273-.652-.182-.212-.971-.394-.668-.182-.121-.319.106-.334.167-.03.167-.045.106-.228.137-.182.3-.319.212.212.243.137.243.3.061.061h.394l.2-.03.182-.076.106-.076.182-.167.106-.061h.167l.152.061.121.121.046.182-.015.182-.076.121-.182.2-.076.182-.03.152.167.121.288.015.258-.121.137-.334.076-.3.212-.152.7.334.227-.41.273-1.183-.121-.576-.3-.288-1.775-.8-.136-.182-.121-.243-.2-.334-.152-.41-.106-.622-.152-.622.015-.334-.182-.228-.516-.5-.834-.137-.349-.212-.273-.258-.121-.41-.394-.182-.2-.015-.182-.045-.137-.243-.182-.622.091-.349.015-.319-.319-.41-.091-.182-.152-1.2-.41-1.016-.288-.47-.228-.531-.015-.425-.2-.41.03-.349.091-.228-.121-.273-.152-.182.091-.227.137-.212.349.2.379.106.03-.182-.273-.243.046-.258.212-.091.243-.394.061-.561.47-.182.03.121.212.455.045.228.03.106.167.121.045.121v.2l-.061-.03-.091-.091-.091.03-.091.228.106.091.47.076.2.091.212.137.182.152.167.167.121.2.182.44.091.182.334.319.152.182.046.258-.425-.334-.136-.076-.182-.015-.167.03-.182-.03-.2-.182.121-.076.364-.137-.41-.273-.2-.2-.152-.182-.228-.136-.3-.03-.546.106.061.091.106.167.061.061-.046.076-.03.106-.015.121.015.091.076.121.076.015.061-.03h.03l.061.045.121.03.046.03.03.076-.03.091-.046.076-.015.061.046.319.015.076.061.076.061.03h.212l.091-.03.06-.076.046-.061.045-.03.2.091.106.182.061.212.121.227.182-.136.106.091.106.152.121.091.167-.076.061-.152.076-.121.227.03.152.106.061.136.015.182v.243l.061.136h.137l.2-.061.167-.03-.152-.713-.273-.44-.061-.2.167-.061.228.2.41.759.288.167.318.076.7.349.334.076.136.061.288.273.137.061h.349l.061.061.046.106.091.045.137-.106,2.336,1.714.47.228.743.121.7.273.789.121.652.41,1.077.137.44.258h-.682l-.121.03.061.091.546.394.152.061.167.03.152-.076.03-.182-.061-.2-.076-.152.2-.061.106.076.106.106.152.076h.759l.03.03.121.228.076.045.046-.03.061-.046.061-.03.046-.046v-.212l.076-.045.137-.015.349-.076,1.047-.076L784.6,316l.212-.2.91-.561.349-.3.121-.167.045-.137v-.364l.2-.364.046-.152.061-.091.485-.258.182-.258.137-.546.136-.258.167-.212.076-.121.03-.182.091-.106,1.168-.334.227-.015.212-.061.152-.167.273-.425.182-.106.531-.045.212-.106.152-.167.045-.137-.06-.167-.137-.228.455.091.546.03Z" transform="translate(-610.438 -239.729)" fill="#72bf44"/><path d="M335.719,763.15l-.91.971-.334.562-.167.364-.061.319.015.485-.03.273-.106.152-.076.152-.091.212-.015.076-.228.288-.228.425-.228.228-.531.334-.243.243-.364.592-.061.061-.091.015-.167-.015-.106.288-.061.091-.121.121-.121.091-.091.121-.015.258.045.152.2.243.076.152-.076.121-.091.106-.243-.319-.121-.091-.182-.03-.152.046-.258.227-.121.046-.137.121-.622.758-.228.607-.182.7-.273.576-.516.273v.121h.076l.061.03.045.046.061.03-.91,1.972-.121.546-.182.349-.228.288-.364.182-.015.167.046.3v.182l.015.091v.091l-.091.2-.106.136-.106.061-.076.076-.03.227-.046.106-.106.106-.516.319-.121.045-.334.061-.485.243-.061.167-.045.182-.046.136-.106.106-.561.44-1.578.394-.394.182-.3.394-.895.668-.182.318-.258.668-.273.425-.061.136.03.228.091.2-.091.395-.046.41-.015.849L320,785.9l-.076.227.03.349.212,1,.334.956-.03.258-.152-.182-.137-.03-.045.106.091.227.182.121.713.2-.334.152-.774.061-.349.121-.3.288.137.121.319.046.258.091.243-.319.44-.106h.41l.2.03.045.243.106.228.106.137.061-.061.046-.41.106-.409.319.2.061.137.015.273-.03.44.045.106.152-.046.106-.121.091-.2.091-.167.152-.076.182.015.167.076.137.137.046.228.334-.379.137-.076.045.288.137.152.167.137.136.2v.121l-.03.136-.046.106-.015.076.03.106.106.167.03.076.045.44-.045.47-.091.455-.137.41-.152-.228-.288.379-.212-.046-.076.349v.106l-.106-.137-.091-.03-.106.061-.106.106-.046-.213-.152-.364-.046-.212v-.243l.046-.136-.03-.137-.121-.2-.076-.212.03-.243-.015-.2-.152-.076-.182.061-.076.167.046.182.136.152-.167.44V793l.121.425.364.592-.045.03-.273-.046h-.759l-.167-.091-.258-.334-.273.091-.137-.121-.243-.318-.455-.485-.015-.212.227-.3-.212.015-.319.152-.956.152-.319.167-.683.061-1.032.379-.47.076-.091-.061.045-.167.106-.121.152-.076.3-.046,1.76-.622.182-.015.182-.061-.091-.121-.334-.212-.137-.03-.379.046-.2-.076-.076-.091-.152-.228-.091-.106-.3-.167-.3.061-.3.121-.334.076-.2.167-.106.41-.046.47-.015.395.03.243.03.091-.03.091-.137.2-.137.061-.971.152-.137-.03-.243.091-.212.243-.531.182-.243.212-1.214.576-2.26,1.653-.349.061-.182-.03-.182.015-.152.091-.865.622-.44.091-.182.076-.137.136-.121.152-.137.106-.334.106-.3.227-.121.061-.2.061-.212.258-.121.121-.076.137-.3.121-.137.106-.728.774L304.3,800l-.243-.091-.167.121-.136.106-.091.182-.046.152-.637,1.183-.045.182v.941l-.061.3-.152.243-.349.41-.015.137-.015.2-.03.152-.137.076-.091.03-.349.2.258.334.061.561v1.229l.137.789.015.288-.061.3-.136.137-.152.091-.121.2.334.061.121.395-.015.531-.091.986-.121.334-.136.227-.106.228-.546-.106-1.229-.5-2.078-.576-.986.273h-.455l-.47.121-.41.213-1.82,1.684-1.138.667-.243-.243-.258-.425-.121-.425-.061-.455.03-.364-.136-.318-.228-.152-.44-.03-1.031.228-.834-.061-.364-.2-.243-.319-.349-.561-.41-.986-.379-1.183-.273-.592-.349-.455-.379-.167-.865.106-.652-.7-.319-.44-.334.045-.258-.152-.228-.319-.182-1.077-.182-.425-.334-.3-.364-.152-.076-.243-.03-.41v-2.958l.03-.349.243-.379.152-.319.273-.455.258-.319.2-.44.3-.5.137-.394-.091-.91.622-.743.41-.394.394-.47,1.82-1.517.319-.576.258-.273.228-.44.3-.364.3-.44.167-.41.182-.349.3-.364.91-.819.364-.228,1.168-.41,1.578-.91.561-.228.394-.061.2.076h.3l1.138-1.274,2.048-1.638,1.168-.607.44-.288.728-1.274.455-.288.243.03.925-.3.227-.136.137-.167.045-.182.076-.243.152-.288.5-.5.273-.2.47-.2.394-.03.212-.046.182-.106.243-.182.425-.167.152-.015.121.03.076.061h.061l.091-.015.44-.121.485-.046.425-.091.592.015.167-.106.136-.152.061-.2.045-.213.137-.425.091-.425.045-.167.061-.076.607-.182.713-.44.046-.3.061-.182.273-.334.273-.41.228-.2.349-.258.167-.046.349-.03.212-.076.3-.152.334-.3.319-.637.516-.425.137-.167.121-.228.243-.243.106-.152.121-.243.167-.2.728-.561.592-.531.334-.152.228-.046.288-.136.152-.167.061-.182.045-.167.152-.318.076-.182.046-.152.061-.3.334-.091.212-.137.212-.182.546-.652.152-.334.319-.9.03-.227.046-.167.091-.076.121-.03h.137l.136.03.076.046.182.03.121.076.2.5.212.121.212.046h.182l.227.227.152.046.061.212.045.258.121.379.137.2.03.228-.045.2-.03.228.091.167.2.091.212.076.212.106.137.334.152.212.091.2.076.121.455.379-.015.228-.061.243v.182l.121.121.2.061.167.076.3.3h.228l.152-.167.44-.273.227-.046.2-.152.212-.319.288-.319.227-.485.015-.2-.319-.228.152-.228.288-.288.379-.318.622-.622.394-.212,1.077-.44.167-.182.076-.243.121-.243.03-.455.319-.9.743-.652.3-.182.228-.2.228-.061.273-.182.2-.167.243-.167.182-.167.2-.5.152-.167.212.076.167.182.121.2.106.091.137-.091.152-.136.228-.106.986-.212.2-.015.2.03.152.091.152.076.334.076.228-.015.167.015.121.061.061.091.349.425Z" transform="translate(-201.048 -625.792)" fill="#fff"/><path d="M546.1,645.19l-.091.2-.061.47-.091.167-.167.121-.212.015-.212-.03-.212.015-.152.091-.288.258-.121.076-.182.03-.592-.03.061-.061.121-.121.045-.03.121-.015.288.03.106-.061.592-.7.212.212.258-.106.182-.258v-.273l-.152.076-.137-.015-.121-.106-.076-.167.212-.015.152-.121.136-.121.136-.061.2.03.03.106-.015.182Zm-3.732,12.94-.349-.425-.061-.091-.121-.061-.167-.015-.228.015-.334-.076-.152-.076-.152-.091-.2-.03-.2.015-.986.212-.228.106-.152.136-.137.091-.106-.091-.121-.2-.167-.182-.212-.076-.152.167-.2.5-.182.167-.243.167-.2.167-.273.182-.227.061-.228.2-.3.182-.743.652-.319.9-.03.455-.121.243-.076.243-.167.182-1.077.44-.394.212-.622.622-.379.318-.288.288-.152.228.319.228-.015.2-.228.485-.288.319-.212.319-.2.152-.228.045-.44.273-.152.167h-.227l-.3-.3-.167-.076-.2-.061-.122-.121v-.182l.061-.243.015-.228-.455-.379-.076-.121-.091-.2-.152-.212-.137-.334-.212-.106-.212-.076-.2-.091-.091-.167.03-.228.045-.2-.03-.228-.137-.2-.121-.379-.046-.258-.061-.212-.152-.045-.228-.228h-.182l-.212-.045-.212-.121-.2-.5-.121-.076.394-1.365,1.183-1.5.106-.3.137-.834.121-.47.41-.607.2-.243.045-.212.106-.243.7-.607.485-.607.334-.561.925-1.077.3-.5.531-.152.288-.03.227-.122.106-.243-.046-.349.015-.41.061-.334.015-.228.121-.394.288-.106.395-.273.531-.546,1.016-1.578.485-.47.364-.47.182-.3.2-.531.106-.5v-.394l.152-.076.2.091.182.2.121.273.015.3h.076l.061-.152.061-.045.061.045.045.152.167-.106-.152-.364.167-.182.3-.106.288-.152.091-.167-.015-.152-.091-.121-.152-.046-.44.318-.076-.045v-.2l.015-.091.182-.243.106-.091.258-.137.121-.091.121-.061.592-.091.061-.076.258-.41.288-.2-.045.713.288.076.045-.061.349-.364.03-.076.03-.2.015-.061.061-.03.182-.061.576-.319.091-.015h.136l.137.03.106.076.121.41-.2.061-.561-.152.076.212-.076.106-.106.106-.061.228-.137-.061h-.121l-.121.045-.106.121.076.091.015.061.045.03.106.03-.2.182-.379.121-.364.015-.167-.167-.182-.03-.334.046-.182.167.288.3-.167.106-.122.137.015.106.2.076-.046.2-.076.182-.106.152-.106.106.106.121.137.046.121-.091.045-.243.273-.394v-.076l.774-.136.41-.03.3.167-.121-.015-.106.031-.061.091-.03.152-.045.152-.091-.015-.106-.061-.076-.015-.061-.015-.091-.061h-.061l-.03.121.015.061.061.091v.061l-.015.152-.045.076-.076-.015-.106-.045-.076.349-.167.106-.182.061-.136.228h.182l.212.091.182.167.076.212-.03.167-.106.349-.03.182-.152.182-.334.167-.637.2.045.167.076.136.106.061.091.045,1.244-.728.44-.121v-.106l-.182-.061-.152.015-.121-.03-.106-.137.5-.061h.243l.182.121.182.061.288-.03.273-.091.182-.106-.061-.045-.182-.182.683.076.349-.091.243-.288-1.3.03-.212.076-.03.045v.061l-.015.076-.106.015h-.137l-.045-.03-.061-.061.076-.212-.622.273-.318-.015-.106-.47.061-.258.121-.136.152-.106.152-.136.03-.091-.03-.106v-.091l.076-.03.106-.015.061-.046.015-.106-.015-.152.41.091-.137.243-.03.243.076.485.2-.379.106-.3.152-.167h.349l-.2-.3-.046-.152.2-.319v-.227l-.091-.167-.2-.015-.076.152-.045.242-.076.167-.152-.076-.364-.394-.076-.182h.41l-.106-.2-.015-.152.091-.061.182.091.015-.334.2.091.425.44.258.182.243.076.212-.076.182-.273.2.2.2-.091.106-.243-.03-.288.167.061.182.167.152.243.061.212v.182l-.015.121-.061.045-.243.046-.061.061v.106l.061.136.212.182.227-.076.2-.212.243-.319.47-.47.167-.061.091.2-.091.258-.607.971-.061.152-.015.3-.046.137-.03-.046-.167.091-.137.121.015.046-.045.03-.106.076h-.106l-.061-.167v-.637l-.03-.061-.076.106-.091.182-.03.152-.182-.076v.137l.091.2.091.167.243.258.076.136.076.243-.061.03-.136.045-.046.015v-.03l-.243.152-.091.106-.061.091-.091.091-.152.03h-.622l-.3.091-.2.227-.137-.091-.136-.03-.121.061-.091.167-.182-.076-.212.061-.212.137-.152.152-.045.182h.273l.334-.106.121-.076.258.091.167-.076.167-.152.212-.136.121-.015.137.045.122.015.227-.152.243-.061.106-.045.121.152.167.136.167.106.152.046.136-.046.167-.152.121-.03.318-.045.243-.106.485-.379-.152.394-.182.364-.076.106-.243.212-.106.152-.061.152-.045.152-.076.121-.364.106-.273.212-.182.061.061-.152.2-.349.03-.091-.121-.046-.243.258-.152-.046.076-.227-.334.243-.228.379-.182.455-.227.409-.273.379-.061.2.015.288.137.47.015.228-.076.258.212.045.137.2.061.212-.045.091.045.061.136.076.121-.03.061-.319-.061-.076-.106-.319-.03-.243.152.152.652,1.107.015.212.061.212.046.152.076.288v.167l.258.865.061.106.106.273.258.152.3.03.212-.076-.061.379-.834,1.593-.2.3Zm-1.471-18.568.076.167.015.106-.045.03-.076.045-.167.212-.045.091-.045.152-.045.394-.061.182-.045.015-.243-.015-.061.045-.136.182-.076.076-.288.106-.076.045-.061.106-.03.106-.03.076-.152.106-.167.076-.167.015-.152-.091.045-.061.015-.046v-.045l.015-.076.137-.076.076-.121.015-.152-.061-.167-.137.152-.03.045-.061-.167-.03-.2.03-.2.061-.167.182.167.136.182.152.136.243.046v-.106l-.136-.121-.121-.152-.106-.212-.03-.243.03-.228.152-.592.061-.137.061.015.015.137.03.121.137.03.045-.212.061-.137.091-.061.167.091.015.227-.03.273.046.258.091-.152.379-.121.182-.167h-.41l.273-.228.106-.121.106-.167.121-.44L541,638.5l.061.228-.015.227-.03.212Z" transform="translate(-407.693 -520.772)" fill="#fff"/><path d="M564.283,679.073l-.425-.212-.455-.425-.243-.394-.061-.2.106-.015.228-.106.425-.379.41-.258.2-.212.455-.637.728-.728.288-.121.137-.228.121-.045.061.045.015.121-.046.137-.03.121.394-.182.2-.121.167-.182.182-.364.091-.106.106-.015.106.076h.091l.106-.167-.121-.167.106-.212.2-.182.03-.015v.394l-.106.5-.2.531-.182.3-.364.47-.485.47-1.016,1.578-.531.546-.394.273Z" transform="translate(-438.911 -550.802)" fill="#fff"/><path d="M489.892,630.085l.061.2.243.394.455.425.425.212-.121.394-.015.228-.061.334-.015.41.045.349-.106.243-.228.121-.288.03-.531.152-.3.5-.925,1.077-.334.561-.485.607-.7.607-.106.243-.046.212-.2.243-.41.607-.121.47-.136.834-.106.3-1.183,1.5-.395,1.365-.182-.03-.076-.046-.137-.03h-.137l-.121.03-.091.076-.045.167-.03.228-.319.895-.152.334-.546.652-.212.182-.212.137-.334.091-.212-.03H481.4l-.121.015-.076.046-.045.091-.046.091-.061.106-.091.061-.121.03-.167-.106-.167-.228-.243-.531-.091-.379-.091-.652-.091-.273-.137-.2-.2-.136-.167-.015-.288.03-.121-.03-.106-.061-.091-.091-.076-.03-.061-.061-.061-.121-.091-.2-.076-.136-.182-.076-.334.061-.152-.03-.136-.106-.121-.2-.076-.243-.015-.3v-.212l-.03-.2-.106-.137-.106-.061-.137-.091-.121-.121-.106-.3-.061-.228-.03-.167.137-.774.288-.243.106-.227.137-.41.03-.395-.03-.258-.03-.152-.061-.136-.015-.121v-.106l.03-.273.061-.152.106-.167.227-.212.2-.106.2-.091.592-.091.121-.091.015-.212-.03-.212.046-.2.136-.152.288-.106.182-.106.152-.182.137-.349.121-.394.136-.637.076-.212.106-.167.561-.394.106-.2.046-.182v-.152l-.121-.2-.015-.106.061-.091.182-.106.152-.061.137-.015.44.136h.212l.212-.076.2-.152.243-.273.136-.228.046-.3v-.258l.03-.258.03-.182.015-.152-.03-.091-.167-.2v-.136l.121-.106.819-.334.531-.485.046-.121-.03-.106-.106-.121-.212-.152-.592-.182-.152-.061-.152-.121-.5-.531-.152-.091-.137-.046-.106-.061-.091-.106-.106-.182-.091-.136-.061-.137-.061-.167-.061-.167-.152-.136-.152-.061h-.243l-.349.076-.121-.03-.121-.046H480.4l-.091.061-.228.334-.137.015-.106-.121-.046-.455.061-.258.121-.182.076-.076.137-.2.061-.182-.03-.2-.137-.2-.152-.121-.137-.152-.091-.2-.106-.273-.106-.182-.379-.334-.106-.228-.167-1.031-.045-.152.152.015.076-.015.167-.152.318-.228.152-.03.046-.061.607-.47,1.168-1.456.5-.5.44-.167-.2.5-.015.182.167.061.061-.076.076-.137.076-.106.2.091.106-.046.091-.076.076-.076-.046-.212.349-.167.015-.137-.137-.167-.03-.046-.152.152-.167.091-.167.03-.152-.061.455-.576.531-.288,2.306-.106.759.091.7.2.379.045-.258.106-2.533-.2-.182.046-.121.152-.106.319-.121.607-.106.288-.182.152.106.319-.061.121-.152.015-.212-.03.167.425.061.045.2.076.061.076v.258l-.152.455.076.258.076-.076.243-.136.167.44.394.41,1,.8.152.045.152-.061.288-.228.061-.03h.152l.045-.045-.03-.212.015-.061.2-.2.091.015.121.182.152-.243.167-.137.167.015.152.228.061.2v.152l-.061.3.076.136-.015.137-.152.152.2.046.182-.015.152.045.121.228-.03.076-.121.683.046.288.03.136-.03.106-.137.212-.258.273-.3.243.121.076.076.03.091-.03.121-.076.136.774.015.243.076.243.121.2.091.212-.046.258-.045-.152-.076-.121-.091-.091-.106-.061-.076.546.03.136.182.2.076.106.03.182h.076l.121-.2.091.2.121.637.136.425.015.121-.076.091-.2.106-.045.106.091.228.2.137.258.061h.546l.137-.03Z" transform="translate(-365.703 -503.042)" fill="#fff"/><path d="M546.964,49.448l-.212.137-1.138.971-.349.258-.121.137-.152.091-.167.046h-.045l-.121.015-.106.061-.288.258-.121.091-.091-.167-.2.121-.227.212-.212.121-.288-.046-.167-.076-.106-.076-.06-.258.121-.061.349.121.182.182.091.015.061-.364.182-.47.273-.364.076-.152.015-.106.015-.121.061-.212.182.091.152-.03.03-.121-.136-.228-.106-.076-.44-.137.045.44-.152.5-.288.394-.334.167.182-.243.061-.046-.137-.061-.121.03h-.106l-.03-.137-.03-.228-.076-.046-.106.03H542.7l-.121-.046H542.5l-.03-.046-.015-.212.015-.152.03-.152.106-.288-.182.015-.121.091-.243.288.045-.394-.182-.015-.5.41.121.121v.319l.152.061h.212l.152.03.106.076.121.182-.061.212v.137l.106.061.076-.03.061-.061.106-.152h.106l.121.121.212.319-.425.121-.061.03-.03.137-.076.076-.091.03h-.121l-.091-.061-.152-.2-.106-.046-.136-.015-.076-.061-.273-.41-.106-.212-.137-.212-.2-.182-.212-.046-.561-.015-.106-.091-.076-.137-.182-.182-.2-.152-.152-.076-.182-.106-.091-.273v-.561l-.076-.212-.334-.349-.137-.44-.152-.167-.349-.273.425-.394.106-.228-.045-.349-.076-.106-.121-.121-.121-.091h-.091l-.015.2.076.137.121.106.061.076-.076.3-.44.243-.045.228.592.85.091.152.243.152.091.334.061.379.091.273.076.121.152.319.091.167.106.076.152.061.137.091.091.288.106.106.121.076.091.091.637.986.152.091.182-.03.167.015.106.182-.243.106.106.182.243.243.121.319-.091.3-.227.2-.546.228-.561.015-.288-.5-.364-1.4-1.517-2.093-.425-.85L535,44.9l-2.624-3.55-.076-.273.076-.228.394-.516.091-.243.015-.334.091-.319.137-.2.243.121.061-.152.015-.061.106.137.121.152.121.137.167.061.03-.091-.03-.5.045-.182.319.5.061-.258v-.273l.061-.273.2-.2h.106l.076.061.076.046.136-.106.046-.091.076-.3.2-.334-.425.137-.136-.046v-.167l-.015-.106-.046-.061-.137-.015-.045.076v.531l-.121-.212-.2-.683-.2.212.045.273.152.258.091.243-.076.243-.182.137-.228-.015-.3-.182-.121-.015-.061.046.106.288-.076.061-.121.03-.106.046-.106.061-.076-.046-.137-.212h-.091l-.136.061-.228.182.106.212-.076.091-.152.061-.106.137v.076l.03.076.03.046.015-.015-.03,1.077-.045.121-.106.015-.091-.091-1-1.411-.136-.379.061-.243.394-.455h-.076l-.167-.015-.076.015.227-.273.106-.152.061-.167-.349.061-.212.228-.137.334-.106.364-.121-.106-.364-.425-.076-.152.106-.121.41-.3.136-.167-.182-.061-.334.2-.212.046-.2-.061-.167-.137-.273-.379-.47-.485-.076-.2.015-.273.167-.076.228.046.212.106.379-.531.228-.667.046-.728-.167-.713-.364-.9-.152-.243-.713-.713-.212-.3L528,30.2l-.152-.152-.212-.106-2.382-3.171-.47-.394-.986-.607.121-.106.076-.106.121-.273-.03-.106-.015-.228.061-.152.2.137.258.152.683.03.288.167.152-.152.364-.091.364-.228,1.32.121.212-.046.121-.106.121-.137.137-.046.182.2-.334.212-.091.288.015.758-.03.2-.046.106-.091.076-.2.015-.045-.076-.045-.167-.091-.182-.167-.061.015-.076.046-.152.015-.076-.227-.076-.091.015-.091.364-.03.3-.091.091-.2-.121v.152l-.045.106-.076.091-.106.061.106.121.379.273.03-.152.061-.137.076-.091.137-.015-.061.212-.03.091-.06.091.121.091h.121l.091-.061.061-.137.076.167.015.182V28.1l.045.091.106-.091.137-.334.03-.425-.076-.394-.182-.3.319.152.167.7.121.819.121.561.379.44.485.425.394.485.106.592-.561-.683-.243-.2.045.516.486.5,1.563.91-.046.167-.243.3-.076.121-.03.152-.015.592.03.076.076-.015.136.015.379.106h.091l.091-.137.046-.167.061-.137.167-.076.152-.167-.03-.41-.167-.683.076-.319.212-.091.288-.046.273-.182.076-.182-.015-.167-.061-.137V30.4l.136-.137h.091l.076.106.061.167v.137l-.015.121-.061.243.349-.182.136-.03-.061.152.03.121.167.212-.47.212h-.485l-.121.046-.076.228.061.273.121.243.106.182.152.228.2.182.228.137.258.046.577-.076.212.076.228.3.121-.243.03-.061-.121-.167-.152-.137-.121-.167-.015-.228.121-.243.152-.015.167.152.121.212.136-.137.167-.03.136.076.121.319.167.076h.349l.046-.03.03-.076.045-.061.091-.03.106.03.015.076v.091l.03.076.061.106.03.091.045.076.106.03.091.015.076.015.152.076-.152.076-.061.121-.045.152-.061.137-.273.2-.106.121.015.121.394.349.258-.015.045-.061-.015-.091v-.137l.243-.485.015-.091-.03-.212.015-.076.076-.076.2-.03.212-.121h.182l.334.015-.03.076.106.167.2.243.47.364.182.228.076.349.152.258.379.061.667-.076.288.076.288.2.212.3.106.349-.486.152-.136-.046-.046-.137v-.152l-.061-.152-.061.03-.091.061h-.121l-.136-.2-.288.167-.121.091.121.091.212.334-.394.061-.03.2.182.152.243-.106.121.076.121.03.121-.03.121-.076.152.212-.03.2-.091.182-.03.182.076.182.44.455.061.137.046.167.015.379.045.046.076-.152.076-.228.045-.2.228.121.121.061.137.015-.03-.076-.03-.152-.03-.061.182-.015.091.076.076.091.091.046.106-.061.03-.137-.046-.152-.091-.061-.258-.015-.334-.091-.288-.152-.106-.228.076.106.167-.167.273-.015.592.076-.061-.137-.03-.061.121-.015.167.03.121.046v.046l.121-.076.015-.061V36.8l.061-.137.318-.349.364-.3.091.364-.106.288-.152.288-.076.334.091.334.2.152.258.03.258-.015v.091l-.106.2.349.44-.167.152-.076-.046-.319-.349-.364-.288-.121-.106.2.319.425.956.273.212.228.015.243.061v-.061l.03-.03.046.015.061.046.03.121.03.03.106.106.273.5.061.167-.455.076.046.167.622.5.561.607.106.334-.152.485-.182-.106-.531-.076-.212-.015-.121.076.2.167.44.243-.061.015-.167.091.3.076.121.046.045.121-.045.152-.091.106-.137.061-.121.03.683.425.121.167v.167l-.076.349.03.137.273.531-.319.091-.228-.152-.227-.243-.258-.182.076-.258-.334-.106.015-.228-.182.015-.288.121-.182.046-.076-.015-.122-.137-.076-.03-.076.046-.061.2-.061.046-.182.015-.03-.03.046-.121v-.258l-.03-.212-.061-.167-.091-.167-.136-.152-.046.319.046.789-.03.243-.061.137-.015.2.03.182.076.106.182.03.106-.121.076-.182.076-.167.212-.03.789.091.243.091.2.258-.046.273-.2.288-.273.273.2.2.046.349-.015.379.015.258.136.182.531.394.212.121.152.015h.288l.136.076.106.182-.015.137-.061.121-.03.167.046.334.137.182.167.137.061.061Z" transform="translate(-405.572)" fill="#fff"/><path d="M620.355,439.147l-.2.121-.258.091-.061.061-.046.061-.258.531.121.576.3.5.41-.182.182.349-.03.5.121.425.258.288.47.106.182.379v.47l.774.182.228.212.121.258-.137.091-.2-.061-.137.046-.986,1.289-.243.531-.2.091-.273.046-.334.364-.182.5-.121.212-.03.212.531.379.228.121.06.228-.045.152-.076.137.015.334.106.319.334.44.546.47.167.47.106.455-.182.683-.015.7.106.121.076.152-.212.2-.273.076-.121.061-.045.106v.3l.03.212-.2.243-.258.091-.349.273-.288.349-.288.182-.243.258-.319.576-.44.015-.941-.349-.713-.076-.3-.076-.273-.182-1.244-1.183-.228-.288-.683-1.077-.47-.5-.592-.334-.622-.212-2-.319-.667-.227-1.578-1.183-.44-.47-.349-.607-.227-.7-.061-.683.061-.7.152-.713.349-.683.531-.425,1.2-.546,2.989-1.881.258-.076,1.563.106.561-.182.516-.395,1.4-1.456.182-.319.091-.546.106-.349.03-.2v-.47l.046-.106.819.425,1.031.076.228-.076.167.046.152.121.212.243Z" transform="translate(-476.49 -350.772)" fill="#fff"/><path d="M219.971,645.5l.045.152.167,1.031.106.227.379.334.106.182.106.273.091.2.137.152.152.121.137.2.03.2-.061.182-.137.2-.076.076-.121.182-.061.258.045.455.106.121.137-.015.228-.334.091-.061h.106l.121.045.121.03.349-.076h.243l.152.061.152.137.061.167.061.167.061.137.091.136.106.182.091.106.106.061.137.045.152.091.5.531.152.121.152.061.592.182.212.152.106.121.03.106-.046.121-.531.486-.819.334-.121.106v.136l.167.2.03.091-.015.152-.03.182-.03.258v.258l-.046.3-.137.228-.243.273-.2.152-.212.076h-.212l-.44-.136-.137.015-.152.061-.182.106-.061.091.015.106.121.2v.152l-.046.182-.106.2-.561.394-.106.167-.076.212-.137.637-.121.394-.137.349-.152.182-.182.106-.288.106-.137.152-.046.2.03.212-.015.212-.121.091-.592.091-.2.091-.2.106-.228.212-.106.167-.061.152-.03.273v.106l.015.121.061.137.03.152.03.258-.03.394-.137.41-.106.228-.288.243-.137.774.03.167.061.227.106.3.121.121.137.091.106.061.106.137.03.2v.212l.015.3.076.243.121.2.137.106.152.03.334-.061.182.076.076.136.091.2.061.121.061.061.076.03.091.091.106.061.121.03.288-.03.167.015.2.136.137.2.091.273.091.652.091.379.243.531.167.228.167.106.121-.03.091-.061.061-.106.046-.091.045-.091.076-.045.121-.015h.106l.212.03-.061.3-.046.152-.076.182-.152.318-.046.167-.061.182-.152.167-.288.136-.228.045-.334.152-.592.531-.728.561-.167.2-.121.243-.106.152-.243.243-.121.228-.137.167-.516.425-.319.637-.334.3-.3.152-.212.076-.349.03-.167.046-.349.258-.228.2-.273.41-.273.334-.061.182-.045.3-.713.44-.607.182-.061.076-.045.167-.091.425-.136.425-.046.212-.061.2-.136.152-.167.106-.592-.015-.425.091-.485.046-.44.121-.091.015h-.061l-.076-.06-.121-.03-.152.015-.425.167-.243.182-.182.106-.212.045-.394.03-.47.2-.273.2-.5.5-.152.288-.076.243-.046.182-.136.167-.228.136-.925.3-.243-.03-.455.288-.728,1.274-.44.288-1.168.607-2.048,1.638-1.138,1.274h-.3l-.2-.076-.394.061-.561.228-1.578.91-1.168.41-.364.227-.91.819-.3.364-.182.349-.167.41-.3.44-.3.364-.228.44-.258.273-.319.576-1.82,1.517-.394.47-.41.394-.622.743-.349-.2h-.212l-.3.045-.2.288-.167.334-.228.319-.349.182-.425.3-.485.243-.394.3-.455.243-.379-.106-.3-.167-.2-.152-.349.015-.44.243-.728.106-.576-.03-.485.076-.546.243-.546.455-.121.167-.137.288-.41.516-.41.243-.273.258-.212.273-.121.349-.076.319-.288.789-.258.41-.44.47-.334.2-.758.106-2.291,1.108-1.456.167.334-1.32.091-.273.106-.379-.152-.288-.121-.334-.243-.349-.228-.273-.394-.273-.41-.182-.592.03-.637.212-.106-.136-.288-.121v-.106l.546-.2.228-.137.425-.5.728-.5.455-.455.394-.5.015-.091v-.167l.046-.212.091-.2.121-.121.137-.121.137-.076.121-.061-.076-.045-.228-.182.228-.121.228-.076.728-.046.425-.091.394-.212.243-.167.106-.121.167-.091.3.03.091-.046.288-.273.2.106.182.288.243.258.561.091.667-.212.637-.41.7-.713.546-.364.228-.228.2-.152.743-.409.2-.167.061-.137v-.167l.046-.137.091-.091.319-.2.106-.045.228-.121.44-.531.212-.121.228-.091.85-.576.592-.2.319-.167.137-.243.046-.121.137-.136.137-.106.121-.03.319-.03.091.015.106.015.106-.015.137-.091.167-.182.47-.137.394-.3.47.106.258-.03.607-.486.243-.061.182-.137.394-.607.182-.2.061-.182.015-.2.228-.288.3-.061.137-.152.015-.212.076-.349.243-.3.258-.212,1.547-.774.152-.258.106-.425.258-.091.167-.152.106-.258.091-.227.121-.106.273-.121.3-.212.167-.076.182-.046.137.046.243.152.137.045.758-1.214-.364-.076-.3.318-.258.425-.273.2.228-.7.394-.47.3-.227.106-.243V682.1l.865-.061.258-.121.091-.106-.091-.137.212-.167.152-.243.182-.137.258.106.03-.258.137-.061.076-.121.455-.288,1.047-.379.455-.364.379-.061.182-.015.121-.015.106-.121.137-.182.137-.106.425-.212.212-.243.41-.607.212-.137.2-.167,1-1.745.152-.152.121-.045.228-.106.212-.152.091-.2.167-.3.121-.137.121-.061.182-.121.2-.288.288-.561.212-.121.834-1.729.243-.288.121-.228.03-.516.076-.364.576-.88.243-.713.319-2.336.212-.576.046-.349.121-.395.061-.121.394-.485.167-.288.121-.349.2-1,.167-.3.106-.516.243-.592-.076-.182-.091.121-.045-.121-.015-.076-.015-.743.182-.137.7.106.819-.121.212.015h.091l.576-.258,1.107-.713.288-.349.106-.076.167-.046.167.03.106-.03.091-.364.091-.106.106-.076.121-.106.167-.273.425-.971.061-.076.061-.015.03-.061.03-.319.015-.03.03-.03.061-.046.091-.152.061-.137.045-.182v-.182l.137-.228.319-.258.334-.227.243-.091-.046-.136v-.152l.015-.152.167-.3.015-.182.015-.334.03-.379.061-.152.106.045.061-.015.106-.076.137-.061.137-.015-.228-.44-.061-.182-.106-1.714.03-.2.106-.349.015-.152-.076-.8v-1.684l-.061-.47V647.2l.106-.121.137-.015.106-.03.076-.106.152-.3.288-.364.045-.091.015-.167.03-.061.076-.091h.152l.076-.045.045-.061.03-.106.046-.091.076-.046h.03Z" transform="translate(-106.886 -526.71)" fill="#fff"/><path d="M191.567,978l.091.91-.137.395-.3.5-.2.44-.258.319-.273.455-.152.319-.243.379-.03.349v2.958l.03.41.076.243.364.152.334.3.182.425.182,1.077.228.319.258.151.334-.045.319.44.652.7.865-.106.379.167.349.455.273.592.379,1.183.41.986.349.562.243.319.364.2.834.061,1.032-.227.44.03.228.152.137.319-.03.364.061.455.121.425.258.425.243.243,1.138-.667,1.82-1.684.41-.212.47-.121h.455l.986-.273,2.078.576,1.229.5.546.106-.106.243-.046.258L208.148,996l-1.3,1.35-.622,1.38-.288,1.183-.152.349-.137.425.152.2.212.2-.03.379-.425.516-.106.228-.015.182.046.182.03.212-.152.3-.334.228-.243.258.091.41-.137.2-.152.091-.152-.015-.2-.152.015.182.03.167.106.319-.2.2-.152.061-.41-.015-.243.091.015.167.167.167.258.03-.273.607-.091.091-.121.046-.152.091-.243.212-.091.03-.076-.03-.061.015-.015.152v.152l.015.091.046.03.106.015.167.061.167.106.152.015.152-.182.212.182.3.167.243.167v.228l-.212.152-.561.121-.228.121-.228.364-.091.106-.106.046-.121.03-.121.061-.152.425-.425.288-.121.288.228-.121.41-.106.364-.319.531-.212.152-.152.182-.379.137-.2.167-.106.136-.046.137-.076.121-.228.121.212.046.258-.03.91-.106.228-.167.076-.258.03-.243-.015-.045.015-.121.106-.061.106v.121l-.015.091-2.427.243-.986.349-.88.637-.667.986-.182.394-.045.2-.046.516-.106.3-.015.151-.091.364-.212.319-.258.258-.243.167-.622.258-.288.182-.258.3-.2.319-.228.258-1.608,1.153-.41.576-.152.88.03.455-.061.167-.334.137-.273.227-.091.061-.2-.03-.394-.167-.2-.03-.2.03-.349.152-.182.046.182.076.941.046-.228.592-.379.258-.41.167-.394.334-.167-.031-.3-.121-.319-.076-.243.106-.152.136-.622.379.076.076.106.2.076.091-.319.091-.394-.121-.364-.015-.212.394-.243-.2-.076-.046-.41-.061-.2.015-.167.106-.228.258-.152.106-.137.046-.41.061-.152-.03-.152-.152.046-.349-.03-.2h-.03L186,1021l.2-.364.137-.44-.015-.334-.47-.668-.061-.364v-.44l-.091-.455-.152-.425.091-.516.167-.425.076-.485.03-1.092-.379-.941-.136-.455.03-.44-.137-.576-.319-.561-.3-.44-.106-.531-.015-.5.061-.47-.061-.425-.152-.364-.334-.319-.2-.227-.061-.577-.061-.349-.03-.3v-.455l.076-.546.182-.728.713-1.487.819-2.154.485-.455-.2-.713-1.077-1.2-.425-.243-.516.273-1.289,1.881-.516.243-.455-.076-.394-.167-.288-.576-.743-1.077-.334-.834-.273-.137-2.048.941-.774.061-.455-.015-.576-.3-.167-.5-.015-.455-.364-.789-.2-.561-.061-.485.425-1.4-.03-.319-.652-.3-.334-.3-.319-.44-.228-.516-.121-.531-.061-.622.243-.637.2-1.32-.046-.592.3-1.229.228-.607.41-.713.394-.5.379-.273.258-.258,1.456-.167,2.291-1.107.759-.106.334-.2.44-.47.258-.41.288-.789.076-.319.121-.349.212-.273.273-.258.41-.243.41-.516.137-.288.121-.167.546-.455.546-.243.485-.076.576.031.728-.106.44-.243.349-.015.2.152.3.167.379.106.455-.243.394-.3.485-.243.425-.3.349-.182.228-.318.167-.334.2-.288.3-.046h.212Z" transform="translate(-108.413 -808.6)" fill="#fff"/><path d="M57.184,1060.119l-.273.091-.091-.212.137-.243.288-.182.258-.031.121.228-.152.136Zm2.9-.955.167.045.106-.015.046.152-.046.061-.03.015v.076l-.091.076-.106-.015v-.152l-.061-.061-.046-.076Zm-3.353-.576-.091.182.015-.076-.015-.106-.015-.091.061-.06.046-.015.015.061v.046Zm9.785-4.035-.076.031-.137-.061.03-.122.091-.076.091.121v.106Zm-6.432-2.108-.182.06-.152-.06-.076-.228.046-.228.137-.106.182-.03.152.046.152.137-.121.288Zm10.225,0-.106.167.046-.182-.076-.152-.121-.167-.106-.212.182-.015.182-.076.121-.152.076-.228.182.379-.137.364Zm-7.069-1.562.228.182.2.243,1.047,1.472.167.182.2.136.152.152.076.243.137.046.273.152.137.212-.228.227.243.121v.106l-.288.106-1.062-.106.076-.228-.652-.03-.228.121.121.318-.03.2-.576.8.3-.03.394-.531.258-.136.121.046.319.243.3.091.455.2-.046.121-.03.091-.061.076-.091.061v.106l.137.015.622-.227.152-.015.152-.091.091-.03.046.06.03.137.091.136.106.091.091.046-.061.167-.076.425-.03.121-.121.076-.137-.015-.137-.046-.167-.015v.121l.531.349.152.182.03.106-.091.046-.121.03-.091-.015-.061-.061-.091-.212-.091-.076-.258-.015-.061.122.076.425-.137.076-.394-.167.137.258h-.88l-.728.137-.288.136-.728.683-.212.288-.167.121h-.2l-.212-.106L61.9,1059l-.182-.106-.425.076-.137-.015-.121-.212-.076-.243-.091-.137-.243.228-.2.061-.091.046v.076l-.076.41-.182-.137-.607.485-.334.121.2.228.364-.061.713-.288-.137.333-.137.228-.364.394v-.425l-.137.015-.212.212-.167.243-.212.121-.394.091-.394.03-.243-.076-.061-.334.076-.44.137-.41.137-.273.121-.106.228-.046.228-.182.41-.212-.2-.137v-.151l.076-.182.061-.212-.015-.258-.046-.213v-.182l.091-.243.121-.167.121-.121.273-.182.2-.076.152.045.137.076.152.015.212-.228-.046-.41-.091-.455.046-.379.152-.091h.349l.152-.136.182-.334.076-.182.03-.243-.061-.379-.167-.364-.394-.607-.061-.182.046-.152.091-.121.046-.136v-.106l-.03-.076-.03-.076-.061-.091-.046-.121.015-.091.061-.091.015-.091.061-.486.167-.243.258-.091.364-.015.3.122.182.03.152-.091.167-.167.137-.031Zm-12.045-2.306.015.106-.152-.182-.106-.136.167-.015.076.015.015.076Zm10.725-1.805-.046.046-.091-.106-.121-.015.03-.045.152-.015.046-.046.03.091Zm-14.411-5.416-.106.061-.046-.046.015-.061-.03-.182.015-.228.152-.167.182-.045.167.091.061.137-.076.136Zm-1.032-1.3-.061.106-.061-.046-.167-.227v-.106l.061-.091.106.015.106.061h.076l.03.03-.061.091Zm.137-.47-.03.015-.152-.061-.015-.091.03-.091.03-.015.076.03.061.091Zm.44-.667-.228.273h-.106l-.137-.061-.03-.046.03-.061.061-.076.015-.076.015-.03.2-.076h.061l.046-.03h.091l.03.091Zm2.245-4.05-1.274.485-.091-.03-.061.03-.334.046-.061-.031v-.03l-.046-.03.046-.061.258-.046.152-.152.3-.015.44-.212.561-.045h.076l.061.045Zm-3.095.349-.228.015-.061-.076v-.061l.046-.152.243-.076h.182l.106-.091.167-.015.167.076v.091l-.137.076-.137.03-.167.091-.182.091Zm3.823-.273h-.288l-.182-.091.061-.061-.091-.045v-.091l.121-.136.137-.076.7.076.061.076.015.091-.061.046Zm-1.244-2.17.152.319.091.379.046.364-.046.364-.137.273-.212.152-.258.03-.03-.091-.076-.167-.091-.076-.091.3-.091.061H47.93l-.091-.031-.061-.167-.061-.333-.046-.334.015-.2-.167-.319-.2.03-.728.865-.182.137-.258.076.061-.212.121-.3.137-.273.137-.121.03-.045.137-.258.091-.243L47,1032.9l.288.015.941-.333.212-.015.106.03Zm3.55-5.431-.394.076-.152-.046-.212-.212-.182-.121-.258-.091-.228-.121-.091-.228-.137-.212-.015-.121.106-.061-.015-.076.076-.152.713-1.138v.076l.015.045.03.046.03.061.106.592.167.561Zm25.212,22.148-.137-.045-.106.121v.379l-.137.121-.03.091-.03.076-.061.045h-.364l-.2-.076-.121-.152-.091-.167-.076-.091-.152.03v.152l.03.2-.046.213-.3.2-.394-.106-.41-.212-.319-.106-.379.015-.212-.03-.137-.212-.3-1.062-.015-.166-.061-.2h-.167l-.349.137-1.2.227h-.394l.091-.182.152-.061.152-.015.167-.091-.228-.136-.3-.076-.576-.015.091.243.152.152.061.121-.152.182.046.045.076.137.046.046-.637.212-2-.212.137-.289.076-.091.091-.076.167-.061.425.015.137.046.121.2.334.061.212-.091-.273-.288-.334-.137-1.016.015-.47-.3-.228-.046-.106.288.076.349.349.455.137.319-.319-.061-.425-.516-.258-.136-.046-.076-.015-.151-.076-.167-.3-.106-.091-.091-.046-.152-.03-.2.364-.106h.121l.121.045.03.046v.076l.046.121.076-.121.607-.516.121-.455-.091-.546-.212-.395h-.3l.106.425-.121.395-.228.243-.243-.015-.137-.243-.243-.7-.622-1.168-.2-.213-.319-.091-1.153.212-.167.091v.2l.03.2-.03.091-.167-.06-.2-.091-.2-.075-.152.061-.349-.061-.228.015-.106.152-.061.182-.137.045-.137-.015-.121-.046-.167-.091-.091-.015-.076.031-.182.167-.076.03-.121-.061-.121-.106-.106-.167-.137-.06-.106-.152-.152-.318-.121-.122-.273-.151-.137-.121.152-.106.167-.061.137-.106.121-.2-.607-.8-.288-.485v-.334l-.182-.167-.47-.046-.243-.076-.546-.364-.167-.046-1.335-.152-.106.046-.061.106-.015.289-.046.121-.137.273-.046.228-.015.228-.076.243-.152.212-.182.046-.394-.03-.182.076-.364.228-.167.061-.228-.031-.485-.182-.258-.015-.182.045-.106.061-.061.061-.091.046-.061-.061-.046-.106-.046-.045-.137-.03-.743-.364h-.212l-.2.046-.2-.015-.789-.213-1.608.031-.789-.137-.652-.485-.349-.47-.061-.167.076-.106.334-.152.121-.091.44-.516.394-.576.334-.774.182-.349.243-.152.349-.076.531-.455.288-.167v-.106l-.258.031-.713.439-.5.182-.273.167-.182.212-.03.182.015.136.046.106-.03.152-.046.045-.364.394-.015.076-.03-.015-.106-.136.015-.091.046-.121v-.152l-.137-.121-.152.531-.364.213-.85.2v-.3l.03-.258.106-.137.182.122.046-.547.137-.364.212-.258.334-.212.7-.182.3-.136.2-.379-.394.2-.41.137-.167-.015-.212-.061-.182-.106-.03-.106.637-.773.106-.182.015-.121-.121-.137-.121.015-.137.106-.106.121-.046.076-.046.122-.046.106-.015.106-.212.152-.076.076-.319.516-.046.167-.167.182-1.107.333-.152.106-.273.3-.091.06-.091-.091-.091-.2-.061-.212v-.136l.046-.182-.015-.228-.061-.334v-1.517l.076-.379.2-.166.758-.122h.8l-.091.122.091.121.288-.258.349-.091H48.9l.288-.061.622-.243.319-.045.349.06.167-.015.121-.106.106-.122.106-.106.243-.182.561-.258.243-.2.152-.349-.5.212-.182.03-.834-.106-1.092.318-.273-.091.212-.5.137-.167.212-.152.622-.182.182-.152-1.138.167-.2-.061-.076-.395v-.379l.137-.273.273-.106.3-.06.592-.319.349-.061.607.227.319.015.258-.242-.394.015-.182-.076-.137-.182.758-.243.334-.258.106-.41-1.563.819-.956.2-.637.364-.137.015-.258.076-.121.015-.212-.031-.091-.061-.152-.3v-.258l.44-.941.212-1,.121-.258.516-.288.576.242.561.379.5.122-.137-.395-.182-.425-.182-.136-.137.379-.212-.182-.47-.227-.2-.152-.152-.2-.046-.182.076-.212.152-.273.394-.425.258-.2.121.061.091.273.212.212.485.243-.106.076-.091.106-.076.122-.046.167.379-.046.334-.152.3-.031.334.334.091.151.046.152-.015.167-.121.212-.3.243-.121.151.106.076.394-.031.152-.091.152-.167.076-.212.046-.227.076-.091.319.3.152.091.121.136.076.395.212.561.046-.046.03-.061.091.076.152.076.076.076-.061-.546-.607-.789-1.183-1.183.167-.228.2-.121,1.2-.349.212.015.121.137.2.395.167.151.212.076.243.015.212-.106.137-.213-.2-.061-.41.031-.167-.122-.106-.182-.03-.076.015-.319.076-.182.091-.076v-.015l-.44.015-.44.2-.3.091-.941.091-.212-.121-.015-.212-.106-.333-.076-.334-.212-.182-.046-.182-.046-.743.091-.273.258-.182.349.015.273.2.455.637.137.106.2.076h.182l.091-.121-.061-.106-.425-.349-.425-.562-.243-.212-.288-.015.455-.759.288-.288.258.076.44.743.03.243-.015.212.015.182.137.152.061-.228-.046-.333.061-.121.182-.091.7.091-.167-.213-.667-.243-.243-.167-.2-.273-.137-.273-.03-.273.167-.258.273-.106.3.091.319.152.3.091.243.121.288.258.258.137.167-.182-.212-.061-1.411-.819-.137-.137.046-.243.2-.228.592-.5.182-.106.228-.045.273-.015-.061-.076-.106-.182-.061-.076.9-.546.379-.015.167.5.03.076.091.091.076.121.03.167-.03.152-.106.319-.015.152.091.228.137.167.091.212-.076.3.425.045.212-.03-.046-.182-.046-.091-.046-.121-.015-.121-.015-.121-.03-.106-.243-.243-.03-.167.03-.228v-.273l-.076-.227-.091-.182-.167-.531-.03-.2.137-.561.349-.364.425-.061.364.364.091.212-.03.121-.106.121-.106.228-.061.3.046.243.106.2.212.152.03-.364.091-.243.121-.227.091-.288-.015-.334-.3-.349-.076-.288-.137-.212-.03-.121.228-.121.121-.106.121-.076.137.091.212.319.2.2.212.121.3.091-.2-.121-.44-.546-.3-.273-.046-.182.091-.228.182-.152.622-.182.091-.106.091-.227.061-.106.076-.045.2-.076.091-.061.334-.364.334-.152.349.091.516.47.394.228.152.182.364.713.076-.182.03-.243-.03-.258-.076-.212-.061-.061-.273-.152-.3-.349-.076-.045-.061-.015-.046-.03-.061-.121-.03-.121.03-.44-.076-.485-.076-.243-.091-.182.273-.41.971-1.107.334-.3.425-.288.288-.379-.046-.531H65l.106-.061.137-.288.015-.258-.046-.046.637-.212.592-.03.41.182.394.273.228.273.243.349.121.334.152.288-.106.379-.091.273-.334,1.32-.258.258-.379.273-.394.5-.41.713-.228.607-.3,1.229.046.592-.2,1.32-.243.637.061.622.121.531.228.516.319.44.334.3.652.3.03.319-.425,1.4.061.485.2.561.364.789.015.455.167.5.576.3.455.015.774-.061,2.048-.941.273.137.334.834.743,1.077.288.576.394.167.455.076.516-.242,1.289-1.881.516-.273.425.243,1.077,1.2.2.713-.485.455-.819,2.154-.713,1.487-.182.728-.076.547v.455l.03.3.061.349.061.576.2.228.334.319.152.364.061.425-.061.47.015.5.106.531.3.44.319.561.137.576-.03.44.137.455.379.94-.03,1.092-.076.485-.167.425-.091.516.152.425.091.455v.44l.061.364.47.667.015.334-.137.44-.2.364-.046.91Z" transform="translate(0 -836.171)" fill="#fff"/><path d="M687.729,223.245h-.212l-.091-.03-.137-.076-.03-.046.015-.061.03-.061.015-.045.015-.046-.015-.046-.015-.046-.076-.061-.091-.03-.091-.061-.061-.152.319-.106.076.121.121.379.137.015.091.061.076.091.061.137-.076.046-.061.015Zm1.441,10.831-.47.182-.061.561-.243.394-.212.091-.046.258.273.243-.03.182-.379-.106-.349-.2-.137.212-.091.227.152.182.121.273-.091.228-.03.349.2.41.015.425.227.531.288.47.41,1.016.152,1.2.091.182.319.41-.015.319-.091.349.182.622.137.243.182.045.2.015.394.182.121.41.273.258.349.212.834.137.516.5.182.228-.015.334.152.622.106.622.152.41.2.334.121.243.137.182,1.775.8.3.288.122.576-.273,1.183-.227.41-.7-.334-.212.152-.076.3-.137.334-.258.121-.288-.015-.167-.121.03-.152.076-.182.182-.2.076-.121.015-.182-.046-.182-.121-.121-.152-.061h-.167l-.106.061-.182.167-.106.076-.182.076-.2.03h-.395l-.061-.061-.243-.3-.243-.137-.212-.212-.3.319-.137.182-.106.228-.167.046-.167.03-.106.334.121.319.668.182.971.394.182.212-.273.652-.137.592.47.546.258.561-.212.228-.258.091-.774-.3-.243-.015-.106.349-.076.485.137.212.288.607.334.561.3.288.364.076.273-.152.2.2.228,1.365-.546.925-.576.728-.319-.106-.682.243-.88-.03-.516.061-.061.045-.03.091-.319.379-.47.167-.137.182-.076.2-.121.2-.091.228-.061.243-.137.182-.455.228-.485-.061-1.062.015-1.016-.3-.046-.592.273-.546.243-.637.152-.7-.106-.3-.152-.243.076-.349.2-.288.2-.425v-.319l-.379-.03-.379.061-.41-.243.091-.546.106-.182-.03-.243-.228-.273-.061-.364.212-.425v-.425l-.334-.288-.212-.41.409-.652.258-.622.152-.5.334-.379.182-.425-.152-.167-.334.212-.349.121-.486-.228-.394-.273h-.728l-.7.167h-.273l-.2-.182-.243.167-.061.167-.015.167-.122.046-.152.091-.2.167-.47.258-.288.046-.455-.091-.485-.03-.121.091-.106.076-.121-.061-.136.03-.243.2-.273.137-.728.137-.091.2.045.273-.288.485-.03.137.015.121-.44.152-.41.258-.318-.212-.212-.243-.152-.121-.167-.046-.228.076-1.032-.076-.819-.425.015-.046.182-.061-.076-.258.03-.228.076-.228.046-.258.03-2.579.091-.561.41-.941.152-.516.091-.576.061-.88.106-.531.015-.3-.045-.273-.106-.273-.061-.258.061-.212.182.091.212.03.227-.045.182-.076.015.167.061.137.076.121.076.076h.076v-.212l.182.137.136.2.167.106.243-.121-.091-.061-.243-.258.318-.106.364.046.318-.03.212-.319h-.212l-.091.03-.091.091-.091-.121.03-.288-.228-.212-.334-.106-.228.061-.091.167-.046.152-.076.106-.182.03-.121-.091-.015-.212.046-.243.045-.152.106-.167.106-.045.106-.015.152-.076.379-.41.182-.137.015-.288-.137-.258-.273-.03-.182.258-.106.349-.152.182-.318-.228-.046-.273.091-1.411.319-.7.546-.2.667-.015.637-.091-.045-.137-.076-.091-.091-.061-.121-.015.167-.121.121-.167.045-.212-.091-.228-.485.3-.046.076-.045.167-.061.061-.045-.015-.076-.046-.076-.03-.364.167-.2-.228-.743-2.9-.683-1.638-.121-.668v-.167l.106-.182.137-.076.334-.091.136-.076.121-.288.106-.334.152-.273.288-.121.03-.061-.061-.106-.121-.061-.167.091-.106.091-.227.152-.106.091-.334.607-.167.076-.258-.228-.167-.258-.227-.531.682-.106.7-.47,1.016-.319,1.259-.319,1.32-.319,1.077-.152.061-1.032.258-.789.243-.561.379.243.637-.349.061.182.03.212v.334l-.152,1.016.045.349.137.319.182.273.182.212.425.243.516.015.531-.137.455-.212.091-.091.046-.106.061-.076.167-.03.091.061.03.167v.319l.061.288.152.182.212.03.212-.137-.182-.046L685,232l-.076-.212-.045-.47-.106-.379-.03-.2-.2-.44-.046-.212.015-.774-.045-.182-.061-.121-.273-.895-.076-.167-.121-.167-.137-.152-.3-.212-.121-.137-.061-.152-.045-.152-.061-.152-.152-.137.258-.091.273.046h.258l.167-.243h-.379l-.182-.03-.167-.091.152-.045.152-.03.121-.076.076-.137h-.106l-.076-.046-.076-.03-.061-.03.576-.167.2-.182-.061-.349-.182.121-.061.076-.076-.152-.061-.137v-.152l.061-.152-.258-.44.076-.394.152-.349-.045-.334-.106-.046-.137-.015-.106-.061-.061-.121-.03-.03-.212-.3-.212-.121-.425-.167-.2-.182-.106-.182-.061-.243-.03-.561.106-.212h.228l.288.061.394-.091.076.076.045.121.076.121.045.121.015.046.046.046.091.046.243.243.121.015.3-.349.212.273.137.364-.015.379-.258.288.243.2h.273l.2.076.091.379.03.364-.03.2-.121-.061-.152-.137-.106.03-.045.137.076.167.121.061.349-.061.121.046.076.167-.045.152-.076.137-.03.152.076.425.167.046.47-.379-.167-.076-.076-.015.091-.137.136-.046.167.03.137.091.137.076.167-.091.288-.228.212-.076.167-.015.152.061.152.182.137.015.152-.091.121-.015.03.243-.061.2-.121.046-.334-.046-.061.076-.227.425-.152.106-.288.121-.152.121-.182.258-.182.3.152.106-.015.106-.045.106.03.121.137.137.137.091.091-.015-.015-.152.2-.152-.091-.47.152-.2.243.137.486-.106.273.228.046.167-.015.364.045.167.182.243.046.106.061.2.061.7-.03.47v.076l.015.152-.061.152-.106.167-.046.152.061.091.121-.076.136-.152.076-.121.212.273-.045.364-.167.394-.2.319-.015.137.121.046.152.03.106.046.03.182-.015.425.06.2-.106-.076-.091-.121-.061-.152-.061-.152h-.091l.061.364.076.319.03.258-.167.167.394.182.137.137.121.273.106.576.045.592.03.106Z" transform="translate(-532.563 -166.606)" fill="#fff"/><path d="M675.559,643.4l-.182.061-.076-.03-.045-.076.03-.091.046-.076.364-.379.061-.091.106-.273.061-.046.091-.015.061-.015.106.061.03.076-.2.379Zm16.247-1.365-.41,1.032-.182.728-.182.3-.576.243-.243.273-.2.364-.137.319L689.5,646.7l-.243.592-1.183,1.669-1.79,1.472-.425.455-.591.425-.683.364-2.564,2.033-.8.319-.2.136-.379.44-.2.091-.895.076-.182-.106-.106-.485-.182-.152.061-.228-.061-.182-.091-.152-.076-.2-.015-.212.182-1.168-.045-.167-.137-.106-1.4-.546-.318-.03-.288.076-.273.182-.577.637-.106.076-.121.03-.2-.045-.258-.2-.152-.152-.03-.137.152-.288-.015-.258-.076-.288-.015-.379.091-.334.258-.607.046-.394-.136-.349-.3-.091-.349.061-.243.106-.182.152-.136.152-.091.2-.076.243.546.137.167.152-.076.364-.076.121-.106.106-.121.015-.137-.091-.121-.045-.137.106-.137.137-.152.076-.546-.106-.561-.3-.44-.44-.106-.546.136-.3.212-.121.531-.106.2-.167.455-.561.288-.273.288-.652.182-.152.243-.121.152-.167.121-.015.152.41.152-.152.061-.137v-.152l-.046-.212-.061-.03-.152-.2-.076-.2.091-.106.137-.061.2-.288.136-.061.137-.045.152-.106.137-.137.091-.137.091-.2.03-.152.045-.394.243-.7.106-.228.7-.758.3-.531.364.015,1.214-.258,1.517.03.88-.243.045.03.607.2.319.121,1.851-.212,1.805-.273,2.275-.319,1.578.061,1.062.258.364.5Z" transform="translate(-531.376 -522.893)" fill="#fff"/></g></g></svg>