<svg xmlns="http://www.w3.org/2000/svg" width="121.472" height="188.743" viewBox="0 0 121.472 188.743">
  <g id="North_Island" data-name="North Island" transform="translate(-172.122 -24.1)">
    <path id="Wellington" d="M678.153,645.195l-.319.106-.133-.053-.08-.133.053-.159.08-.133.637-.664L678.5,644l.186-.478.106-.08.159-.027.106-.026.186.106.053.133-.345.664-.8.9Zm28.432-2.389-.717,1.805-.318,1.274-.319.531-1.009.425-.425.478-.345.637-.239.557-.664,2.469-.425,1.035-2.071,2.92-3.133,2.575-.743.8-1.035.743-1.195.637-4.487,3.557-1.407.557-.345.239-.664.77-.345.159-1.566.133-.319-.186-.186-.849-.319-.266.106-.4-.106-.319-.159-.266-.133-.345-.027-.372.319-2.044-.08-.292-.239-.186-2.442-.956-.557-.053-.5.133-.478.319L679,660.141l-.186.133-.212.053-.345-.08-.451-.345-.266-.265-.053-.239.266-.5-.027-.451-.133-.5-.027-.664.159-.584.451-1.062.08-.69-.239-.611-.531-.159-.611.106-.425.186-.318.265-.239.265-.159.345-.133.425.956.239.292.266-.133.637-.133.212-.186.186-.212.027-.239-.159-.212-.08-.239.186-.239.239-.266.133-.956-.186-.982-.531-.77-.77-.186-.956.239-.531.372-.212.929-.186.345-.292.8-.982.5-.478.5-1.142.319-.265.425-.212.265-.292.212-.027.266.717.266-.266.106-.239v-.266l-.08-.372-.106-.053-.266-.345-.133-.345.159-.186.239-.106.345-.5.239-.106.239-.08.266-.186.239-.239.159-.239.159-.345.053-.266.08-.69.425-1.221.186-.4,1.221-1.327.531-.929.637.027,2.124-.451,2.655.053,1.54-.425.08.053,1.062.345.557.212,3.239-.372,3.159-.478,3.982-.557,2.761.106,1.858.451.637.876.69.372Z" transform="translate(-460.108 -452.762)" fill="#7c7c7c" stroke="#fff" stroke-linecap="round" stroke-linejoin="round" stroke-width="1"/>
    <path id="Taranaki" d="M630.071,439.932l-.345.212-.451.159-.106.106-.08.106-.451.929.212,1.009.531.876.717-.319.318.611-.053.876.212.743.451.5.823.186.318.664v.823l1.354.319.4.372.212.451-.239.159-.345-.106-.239.08-1.726,2.257-.425.929-.345.159-.478.08-.584.637-.319.876-.212.372-.053.372.929.664.4.212.106.4-.08.265-.133.239.027.584.186.558.584.77.956.823.292.823.186.8L632.3,461.7l-.027,1.221.186.212.133.265-.372.345-.478.133-.212.106-.08.186v.531l.053.372-.345.425-.451.159-.611.478-.5.611-.5.319-.425.451-.557,1.009-.77.027-1.646-.611-1.248-.133-.531-.133-.478-.319-2.177-2.071-.4-.5-1.195-1.885-.823-.876-1.035-.584-1.089-.372-3.5-.557-1.168-.4-2.761-2.071-.77-.823-.611-1.062-.4-1.221-.106-1.195.106-1.221.265-1.248.611-1.195.929-.743,2.1-.956,5.23-3.292.451-.133,2.734.186.982-.319.9-.69,2.442-2.549.319-.558.159-.956.186-.611.053-.345v-.823l.08-.186,1.434.743,1.805.133.4-.133.292.08.265.212.372.425.557.372Z" transform="translate(-412.584 -303.727)" fill="#7c7c7c" stroke="#fff" stroke-linecap="round" stroke-linejoin="round" stroke-width="1"/>
    <path id="Manawatu-Whanganui" d="M714.31,439.092l.106,1.248.611.956,1.38.4.212.531.106.5.106.159-.027.239-.425.345-.08.4-.159.4.106.319.451.212.557.478-.239.664-.106.823.106,1.487-.451.318-.664.186-.637.319-.929,1.248-.425.265-.292.292.239.159.239.08.133.319-.133.425.212.664.319.584-.08.159-.186.053-.08.319-.026.345-.956,3.425-.212,1.779-.451,2.044-.027.186.08.319.372.478.425.133,1.327-.053,1.221,1.062.292.186.345.053.159.053.159.106.106.319-.053.372.08.4.239.292.69.69.053.5-.133.451v.717l.584,1.434.053.823-.106.929-.053.8.611.69.717.5,2.177.186.61.319.823.77-.027.212-.372.611-.478.027-.531-.106-.4.106-1.168,1.965-1.221,1.221-.186.345-.027.266-.08.319-.106.292-.425.77-.133.106-.345.053-.133.106-.133.239-.8,2.018-.478.77-.69-.372-.637-.876-1.858-.451-2.761-.106-3.982.557-3.159.478-3.239.372-.557-.212-1.062-.345-.08-.053-1.54.425-2.655-.053-2.124.451-.637-.027.611-1.009.956-2.15.557-1.858.212-.451.186-.557.08-1.513.106-.611v-.133l-.027-.186.027-.159.053-.053h.159l.186-.053.133-.08-.133-.425-.053-.4-.026-.4.026-.239.186-.451.239-1.54.08-1.062-.027-.292-.106-.239-.345-.611-.265-1.752-.372-1.46-.266-.69-.319-.611-1.566-1.619-.4-.743-1.885-2.15-1.434-.9-1.115-.531-.531-.106h-.9l.557-1.009.425-.451.5-.319.5-.611.611-.478.451-.159.345-.425-.053-.372v-.531l.08-.186.212-.106.478-.133.372-.345-.133-.266-.186-.212.026-1.221.319-1.195-.186-.8-.292-.823-.956-.823-.584-.77-.186-.557-.027-.584.133-.239.08-.265-.106-.4-.4-.212-.929-.664.053-.372.212-.372.319-.876.584-.637.478-.08.345-.159.425-.929,1.726-2.257.239-.08.345.106.239-.159-.212-.451-.4-.372-1.354-.319v-.823l-.319-.664-.823-.186-.451-.5-.212-.743.053-.876-.319-.611-.717.319-.531-.876-.212-1.009.451-.929.08-.106.106-.106.451-.159.345-.212.717-.451.77-.266-.027-.212.053-.239.5-.85-.08-.478.159-.345,1.274-.239.478-.239.425-.345.239-.053.212.106.186-.133.212-.159.85.053.8.159.5-.08.823-.451.345-.292.265-.159.212-.08.027-.292.106-.292.425-.292.345.319h.478l1.221-.292h1.274l.69.478.849.4.611-.212.584-.372.266.292-.319.743-.584.664-.265.876-.451,1.088-.717,1.142.372.717.584.5v.743l-.372.743.106.637.4.478.053.425-.186.319-.159.956.717.425.664-.106.664.053v.558l-.345.743-.345.5-.133.611.265.425.186.531-.266,1.221-.425,1.115-.478.956.08,1.035,1.779.531,1.858-.027.85.106.8-.4.239-.319.106-.425.159-.4.212-.345.133-.345.239-.319.823-.292.557-.664.053-.159.106-.08.9-.106,1.54.053,1.195-.425.557.186Z" transform="translate(-469.877 -293.223)" fill="#7c7c7c" stroke="#fff" stroke-linecap="round" stroke-linejoin="round" stroke-width="1"/>
    <path id="Hawkes_Bay" data-name="Hawkes Bay" d="M824.907,431.468l-.053,1.035-.159.425.186.531-.159.372-.292.4-.133.5,1.407.159.664.345.292.664-1.115,1.168-.478,1.327-.186.85-.239.292-.345.265-.292.345-.558-1.619-.159-.85.027-.77.08-.451.159-.425.186-.372.186-.292.027-.319-.292-.212-.372.027-.292.425-.212-.106-.611-.451-.319-.106-3.212-.159-3.318-.08-.265-.106-.186-.186-.186-.053-.531.478-3.8,1.885-2.787,1.354-.239.319-.106.584-.212.557-.266.531-.5.664-.743.823-.478.372-.053.08-.239.743-.265.319-.133.319-.053.345-.027.451.08.451.159.239.239.186.239.292.133.531.133,2.469.053.5.159.451h.106l.133.159.345.186.531.4.133.133.266.186h.372l.69-.08.637.159-.053.372-.372.531-.212.637-.106.212-.212.212-.266.159-.451.186-.159.292-.478,1.779v.08l.027.133.027.159-.053.186-.08.053-.319.133-.106.08-.265.5-.69,2.363-.425,1.088-.292.451-.08.239-.027.345.053.69-.026.159-.027.133-.266.4-.053.133-.345.929-.5.982-.823,1.195-.876.849-.186.08-.186-.106-.159-.212-.186-.106-.239.159-.5.743-.186.425-.08.557.133-.239.159-.186.186-.106.239-.053-1.327,2.708-.186,1.7-.823-.77-.611-.319-2.177-.186-.717-.5-.611-.69.053-.8.106-.929-.053-.823-.584-1.434v-.717l.133-.451-.053-.5-.69-.69-.239-.292-.08-.4.053-.372-.106-.319-.159-.106-.159-.053-.345-.053-.292-.186L790.1,459.5l-1.327.053-.425-.133-.372-.478-.08-.319.027-.186.451-2.044.212-1.779.956-3.425.027-.345.08-.319.186-.053.08-.159-.319-.584-.212-.664.133-.425-.133-.319-.239-.08-.239-.159.292-.292.425-.266.929-1.248.637-.319.664-.186.451-.319-.106-1.487.106-.823.239-.664-.557-.478-.451-.212-.106-.319.159-.4.08-.4.425-.345.026-.239-.106-.159-.106-.5-.212-.531-1.38-.4-.611-.956L789.6,436.3l1.009-1.274,1.38,1.327,1.593.531.319-.4-.239-.531.5-.372.584-.159-.053-.717-.159-.876,1.009-1.3,1.513.027,1.009-.133.292-.133-.159-.451-.053-.69.292-.611,1.009-1.088.77-1.062-.08-.849.133-.265.133-.239-.053-1.327.425-.637.611-.425.5-.266,1.752-.478,1.168.69.584.133h.5l.345-.345.265-.372.159-.372.159-.4.345-.4.4-.319.265-.08.133.08.4-.186.292-.478.956-.372.159-.292.186-.239.265-.611.5-.159L811.1,420l4.354,2.628.4-1.38,1.805,1.221.053,1.991,3.4,3.876,2.2,1.938.929.159.664,1.035Z" transform="translate(-545.167 -290.432)" fill="#7c7c7c" stroke="#fff" stroke-linecap="round" stroke-linejoin="round" stroke-width="1"/>
    <path id="Gisborne_District" data-name="Gisborne District" d="M889.1,361.615l-.664-1.035-.929-.159-2.2-1.938-3.4-3.876-.053-1.991-1.805-1.221-.4,1.38-4.354-2.628.345-.69-.186-.9-.027-.85,1.38-.982,2.469-1.035.77-.717.425-.823.08-.929-.133-.478.186-.4.5-.212.557-.08.557-.266.5-.4.451-.478.319-.133.292-.186.106-.319.106-.319.425-.478.08-.584.027-1.009-.239-.611.239-.212.69.212.77.8.823.69.876.531.823-1.115,1.168-4.088,1.062-2.018.77-.77.557-.982-.186-.531-.478-.027-.531.425-.451-.372.08-.611.159-.5.026-.849-.212-.743-.106-.239.053-.292.451-.212,1.168-.372.4-.664.027-.425,4.088.212.478.133.239.212-.265.292v.159l.239.133.4.4.212.186.345.133.345.053h.717l.239.08.4.345.266.08h.637l.265.053.292.133.319.266.451.478.319.5-.027.451-.186.239-.372.637-.77.823-.425,1.195-.292.637-.717.531-.319.557-.557,1.619-.239.425-.319.425-.159.266-.08.292.159.611.292.531.239.557-.133.69-.319.345-.425.319-.186.4.5,1.088-.053.531-.266.5-.292.451-.133.531.292.531.4.451.212.345-.08.292-.159.265-.345.345-.08.345-.053.584-.133.319.239.106.212.186.133.265-.027.372-.133.212-.77.425-.08.212v1.7l-.106.212-2.31,2.575L892.5,355l-.345.186-.8-.743-.531-.133-.5.133-.451.319-.159.106-.133-.053h-.08l-.026.319v.133l.08.292.027.106.4.4.159.292-.053.319-.345.637-.133.584-.026,1.38-.212,1.54Z" transform="translate(-609.364 -220.578)" fill="#7c7c7c" stroke="#fff" stroke-linecap="round" stroke-linejoin="round" stroke-width="1"/>
    <path id="Bay_of_Plenty" data-name="Bay of Plenty" d="M811.678,311.9l-.027.425-.4.664-1.168.372-.451.212-.053.292.106.239.212.743-.026.85-.159.5-.08.611.451.372.531-.425.478.027.186.531-.557.982-.77.77-1.062,2.018-1.168,4.088-.823,1.115-.876-.531-.823-.69-.77-.8-.69-.212-.239.212.239.611-.027,1.009-.08.584-.425.478-.106.319-.106.319-.292.186-.319.133-.451.478-.5.4-.557.266-.558.08-.5.212-.186.4.133.478-.08.929-.425.823-.77.717-2.469,1.035-1.38.982.026.85.186.9-.345.69-.372.186-.5.159-.266.611-.186.239-.159.292-.956.372-.292.478-.4.186-.133-.08-.266.08-.4.319-.345.4-.159.4-.159.372-.266.372-.345.345h-.5l-.584-.133-1.168-.69-1.752.478-.5.266-.611.425-.425.637.053,1.327-.133.239-.133.266.08.849-.77,1.062-1.009,1.088-.292.611.053.69.159.451-.292.133-1.009.133-1.513-.027-1.009,1.3.159.876.053.717-.584.159-.5.372.239.531-.319.4-1.593-.531-1.38-1.327.956-1.619-.4-2.389-.345-.345-.478.265-.637-.133-.531-.5-.584-.982-.5-1.062-.239-.372.133-.85.186-.611.425.027,1.354.531.451-.159.372-.4-.451-.982-.823-.956.239-1.035.478-1.142-.319-.372-1.7-.69-1.168-.319-.212-.558.186-.584.292-.053.292-.08.186-.4.239-.319.531-.557.372.372.425.239.425.531.106.106h.69l.345-.053.319-.133.186-.133.319-.292.186-.106h.292l.266.106.212.212.08.319-.027.319-.133.212-.319.345-.133.319-.053.265.292.212.5.027.451-.212.239-.584.133-.531.372-.265,1.221.584.4-.717.478-2.071-.212-1.009-.531-.5-3.106-1.407-.239-.319-.212-.425-.345-.584-.265-.717-.186-1.088-.266-1.088.027-.584-.319-.4-.9-.876-1.46-.239-.611-.372-.478-.451-.212-.717-.69-.319-.345-.027-.319-.08-.239-.425-.319-1.088.159-.611.027-.558-.557-.717-.159-.319-.266-2.1-.717-1.779-.5-.823-.4-.929-.026-.743-.345-.717.053-.611.159-.4-.212-.478-.265-.319.159-.4.239-.372.611.345.664.186.053-.319-.478-.425.08-.451.372-.159.425-.69.106-.982.823-.319.053.212.372.8.08.4.053.186.292.212.08.212v.345l-.106-.053-.159-.159-.159.053-.159.4.186.159.823.133.345.159.372.239.319.266.292.292.212.345.319.77.159.319.584.557.265.319.08.451-.743-.584-.239-.133-.319-.027-.292.053-.319-.053-.345-.319.212-.133.637-.239-.717-.478-.345-.345-.265-.319-.4-.239-.531-.053-.956.186.106.159.186.292.106.106-.08.133L768.3,312l-.027.212.027.159.133.212.133.027.106-.053h.053l.106.08.212.053.08.053.053.133-.053.159-.08.133-.027.106.08.557.027.133.106.133.106.053h.372l.159-.053.106-.133.08-.106.08-.053.345.159.186.319.106.372.212.4.319-.239.186.159.186.265.212.159.292-.133.106-.265.133-.212.4.053.266.186.106.239.026.319v.425l.106.239h.239l.345-.106.292-.053-.266-1.248-.478-.77-.106-.345.292-.106.4.345.717,1.327.5.292.557.133,1.221.611.584.133.239.106.5.478.239.106h.611l.106.106.08.186.159.08.239-.186,4.088,3,.823.4,1.3.212,1.221.478,1.38.212,1.142.717,1.885.239.77.451H791.21L791,323.1l.106.159.956.69.266.106.292.053.265-.133.053-.319-.106-.345-.133-.265.345-.106.186.133.186.186.265.133h1.327l.053.053.212.4.133.08.08-.053.106-.08.106-.053.08-.08v-.372l.133-.08.239-.027.611-.133,1.832-.133.478-.319.372-.345,1.593-.982.611-.531.212-.292.08-.239v-.637l.345-.637.08-.266.106-.159.85-.451.319-.451.239-.956.239-.451.292-.372.133-.212.053-.319.159-.186,2.044-.584.4-.027.372-.106.266-.292.478-.743.319-.186.929-.08.372-.186.266-.292.08-.239-.106-.292-.239-.4.8.159.956.053Z" transform="translate(-528.566 -207.577)" fill="#7c7c7c" stroke="#fff" stroke-linecap="round" stroke-linejoin="round" stroke-width="1"/>
    <path id="Waikato" d="M698.4,224.929h-.372l-.159-.053-.239-.133-.053-.08.026-.106.053-.106.027-.08.027-.08-.027-.08-.027-.08-.133-.106-.159-.053-.159-.106-.106-.265.557-.186.133.212.212.664.239.027.159.106.133.159.106.239-.133.08-.106.027Zm2.522,18.955-.823.319-.106.982-.425.69-.372.159-.08.451.478.425-.053.319-.664-.186-.611-.345-.239.372-.159.4.266.319.212.478-.159.4-.053.611.345.717.027.743.4.929.5.823.717,1.779.265,2.1.159.319.557.717-.026.557-.159.611.319,1.088.239.425.319.08.345.027.69.319.212.717.478.451.611.372,1.46.239.9.876.319.4-.027.584.266,1.088.186,1.088.266.717.345.584.212.425.239.319,3.106,1.407.531.5.212,1.009-.478,2.071-.4.717-1.221-.584-.372.265-.133.531-.239.584-.451.212-.5-.027-.292-.212.053-.265.133-.319.319-.345.133-.212.027-.319-.08-.319-.212-.212-.266-.106h-.292l-.186.106-.319.292-.186.133-.319.133-.345.053h-.69l-.106-.106-.425-.531-.425-.239-.372-.372-.531.557-.239.319-.186.4-.292.08-.292.053-.186.584.212.558,1.168.319,1.7.69.319.372-.478,1.142-.239,1.035.823.956.451.982-.372.4-.451.159-1.354-.531-.425-.027-.186.611-.133.85.239.372.5,1.062.584.982.531.5.637.133.478-.265.345.345.4,2.389-.956,1.619-1.009,1.274-.557-.186-1.195.425-1.54-.053-.9.106-.106.08-.053.159-.557.664-.823.292-.239.319-.133.345-.212.345-.159.4-.106.425-.239.319-.8.4-.849-.106-1.858.027-1.779-.531-.08-1.035.478-.956.425-1.115.266-1.221-.186-.531-.265-.425.133-.611.345-.5.345-.743v-.557l-.664-.053-.664.106-.717-.425.159-.956.186-.319-.053-.425-.4-.478-.106-.637.372-.743v-.743l-.584-.5-.372-.717.717-1.142.451-1.088.265-.876.584-.664.319-.743-.265-.292-.584.372-.611.212-.849-.4-.69-.478h-1.274l-1.221.292h-.478l-.345-.319-.425.292-.106.292-.027.292-.212.08-.265.159-.345.292-.823.451-.5.08-.8-.159-.849-.053-.212.159-.186.133-.212-.106-.239.053-.425.345-.478.239-1.274.239-.159.345.08.478-.5.85-.053.239.027.212-.77.265-.717.451-.558-.372-.372-.425-.265-.212-.292-.08-.4.133-1.805-.133-1.434-.743.027-.08.319-.106-.133-.451.053-.4.133-.4.08-.451.053-4.513.159-.982.717-1.646.265-.9.159-1.009.106-1.54.186-.929.027-.531-.08-.478-.186-.478-.106-.451.106-.372.319.159.372.053.4-.08.319-.133.027.292.106.239.133.212.133.133h.133v-.372l.319.239.239.345.292.186.425-.212-.159-.106-.425-.451.557-.186.637.08.558-.053.372-.557h-.372l-.159.053-.159.159-.159-.212.053-.5-.4-.372-.584-.186-.4.106-.159.292-.08.266-.133.186-.319.053-.212-.159-.027-.372.08-.425.08-.265.186-.292.186-.08.186-.027.265-.133.664-.717.319-.239.026-.5-.239-.451-.478-.053-.319.451-.186.611-.266.319-.557-.4-.08-.478.159-2.469.557-1.221.956-.345,1.168-.027,1.115-.159-.08-.239-.133-.159-.159-.106-.212-.027.292-.212.212-.292.08-.372-.159-.4-.849.531-.08.133-.08.292-.106.106-.08-.027-.133-.08-.133-.053-.637.292-.345-.4-1.3-5.071-1.195-2.867L675.544,245v-.292l.186-.319.239-.133.584-.159.239-.133.212-.5.186-.584.265-.478.5-.212.053-.106-.106-.186-.212-.106-.292.159-.186.159-.4.265-.186.159-.584,1.062-.292.133-.451-.4-.292-.451-.4-.929,1.195-.186,1.221-.823,1.779-.557,2.2-.558,2.31-.557,1.885-.265.106-1.805.451-1.38.425-.982.664.425,1.115-.611.106.319.053.372v.584l-.266,1.779.08.611.239.558.319.478.319.372.743.425.9.027.929-.239.8-.372.159-.159.08-.186.106-.133.292-.053.159.106.053.292v.558l.106.5.266.319.372.053.372-.239-.319-.08-.212-.292-.133-.372-.08-.823-.186-.664-.053-.345-.345-.77-.08-.372.027-1.354-.08-.319-.106-.212-.478-1.566-.133-.292-.212-.292-.239-.265-.531-.372-.212-.239-.106-.265-.08-.265-.106-.265-.266-.239.451-.159.478.08h.451l.292-.425h-.664l-.319-.053-.292-.159.265-.08.265-.053.212-.133.133-.239h-.186l-.133-.08-.133-.053-.106-.053,1.009-.292.345-.319-.106-.611-.319.212-.106.133-.133-.265-.106-.239V227.9l.106-.265-.451-.77.133-.69.266-.611-.08-.584-.186-.08-.239-.027-.186-.106-.106-.212-.053-.053-.372-.531-.372-.212-.743-.292-.345-.319-.186-.319-.106-.425-.053-.982.186-.372h.4l.5.106.69-.159.133.133.08.212.133.212.08.212.026.08.08.08.159.08.425.425.212.027.531-.611.372.478.239.637-.027.664-.451.5.425.345h.478l.345.133.159.664.053.637-.053.345-.212-.106-.265-.239-.186.053-.08.239.133.292.212.106.611-.106.212.08.133.292-.08.265-.133.239-.053.265.133.743.292.08.823-.664-.292-.133-.133-.027L695,227.4l.239-.08.292.053.239.159.239.133.292-.159.5-.4.372-.133.292-.027.266.106.265.319.239.027.266-.159.212-.027.053.425-.106.345-.212.08-.584-.08-.106.133-.4.743-.266.186-.5.212-.266.212-.319.451-.319.531.266.186-.027.186-.08.186.053.212.239.239.239.159.159-.027-.027-.265.345-.265-.159-.823.265-.345.425.239.849-.186.478.4.08.292-.027.637.08.292.319.425.08.186.106.345.106,1.221-.053.823v.133l.027.265-.106.265-.186.292-.08.265.106.159.212-.133.239-.265.133-.212.372.478-.08.637-.292.69-.345.558-.027.239.212.08.265.053.186.08.053.319-.027.743.106.345-.186-.133-.159-.212-.106-.265-.106-.265h-.159l.106.637.133.558.053.451-.292.292.69.319.239.239.212.478.186,1.009.08,1.035.053.186Z" transform="translate(-461.137 -144.261)" fill="#7c7c7c" stroke="#fff" stroke-linecap="round" stroke-linejoin="round" stroke-width="1"/>
    <path id="Auckland" d="M660.441,199.805l-.026.239.159.531.026.239-.053.186-.106.08-.265-.053-.159.027-.425.133-.425.053-.425-.053-.823-.319.133-.186-.451-.451-.186-.027-.266.212-.212.08-.08-.292.053-.451.159-.292h1.195l.239.133.159.239.212.133.372-.239.9-.8.451-.265.106.08.212.265.186.372-.159.133-.292.08-.212.212Zm-5.655-8.309-.319.106-.717-.027-.212-.106.319-.212v-.292l-.212-.637.053-.292.292-.186.319.133.265.292.106.345.133.611Zm4.593-5.655-.345.053-.265-.027-.4-.558.292-.478.5-.292.292.027.08.159.186.212.159.239v.319l-.186.239Zm3.982,19.937-1.115.611-.664-.425-.425.982-.451,1.38-.106,1.805-1.885.265-2.31.557-2.2.557-1.779.557-1.221.823-1.195.186-.425-1.062-.212-.8-.478-.929-.08-.239-.133-.531-.849-1.646-.159-.717.345-.027.557.133L649.4,207l.292.106.212.212-.053.265-.186.292-.026.159,1.035,2.018.08.823.292.664.345.265.212-.584-.239-.664-.053-.4.239-.186.611.106.266-.027.292-.239h-.4l-1.035-.186-.372-.159.319-.159,1.088-.982.159.053-.026.557.849-1.009.451-.372.5-.053.8.9.266.159.292-.133.053-.292-.106-.345-.186-.292.053-.292-1.035-.4-.4-.345-.319.106-.186-.319-.159-.5-.186-.372-.5.637-.319-.265-.027-.557.239-.319.239-.08.239-.186.186-.239.106-.292-1.327-.239-1.38.08-.69.186-.531.425-.186.319-.133.611-.08.292-.212.265H648.6l-.478-.451-.292.451-.451.4-.478.159-.4-.212-.239-.451-.823-2.92-.451-2.389-.4-1.142-1.062-1.964-2.814-3.557-.611-1.168L640,191.6l.053-.292.08-.239.159-.133.266-.053-.239.717-.027.345.106.345.345-.664.186-.265.292-.106.292.186.319.823.4.4.478.823.292.212.345.08.186.239-.027.292-.292.239.823.319.212.027.026.08-.212.133-.292.106-.292.053.186.133.08.212-.027.239-.106.265.265.027.186.08.4.265V196.3l.027-.345-.027-.186.212.372.212.584.186.265.212-.5.239.027.08-.292.026-.425.106-.372.133-.159.319-.292.106-.239-.319.106-.106.053-.186-.478.212-1.142-.159-.292-.186.372-.08-.186v-1.327l-.027-.08.08-.133.345-.372-.159-.292-.239-.265-.186-.292.08-.292.451-.4-.027-.159-.637-.4h-.133l-.345.451-.266.239-.159.106-1.221.106-.637-.159-.451-.425-.133-.823.265.159.159-.611.239-.053.265.186.319.133.876-.053.425-.133.319-.239.318-.345.266-.159.611-.292.558-.5.212-.106h.159l.133-.08.053-.345-.106-.106-.053-.027-.027-.053-.08-.159.611-.451,1.991-1.7.372-.239.239.292,1.168,1.779.637.743.85.611.531.212.027.133-.133.345v.08l.08.027.053.053-.053.106-.08.053-.08-.027-.027-.08-.027-.027-.106.08-.08-.053-.053.027-.053.292.159.451.451.186.584.08.478.159-.611.106-1.672-.08-.372.053.053.345.292,1.062.345.664.026.451-.053.451-.08.4-.425-1.195-.319-.5-.531-.212.372,1.115-.053.425-.451.027v.186l.186.08.186.106.159.133.159.186-.133.265-.451.265-.106.186v.345l.212.451.053.345v.5l.106.08.266.265.186.159.292.08.558.027.876-.345h.239l.212.186-.08.133-.956.557-.5.186-.319-.027-.876-.345.425.451.319.637,1.221,3.823-.451-.133-.266-.239-.292-.08-.531.292-.159-.133-.08-.159v-.186l.106-.239-.4-.08-.292-.69h-.292l-.717.372-.345.212-.319.372v.186h.159l.717-.106.372.106-.186.186-.292.186-.212.212.106.186.345.212.08.08v.159l.027,1.088.08.345.265.133.159-.133.026-.292-.026-.372.053-.265.133.212.159-.292.186-.265.239-.186.239-.133.319-.053.956.212h1.3l.425.292-.053.77-.212.292-.186.186-.106.212.08.5.106.319.133.186.133-.053.186-.265.557-2.814h.133l.451,1.221.159.584-.026.664.451-.133h.531l.265-.212-.345-.611-.08-.425.478-.133.664.08.425.186.239.584-.239,1.168.265.451.319.08.266-.106.212-.159.345-.106.478-.345.133.053.106.106.106.027.664-.319.186-.027.212.08.451.372.239.08.186.106.717.9.133.239Zm2.416-22.486.053.292.292.292.531.345.531.212.186.027.186.106-.106.212-.186.265-.106.212-.08.372-.106.292v.292l.266.425.08.106.106.08.106.053.133.027.053.027v.106l-.027.133.027.08.4.557.159.133-.4.876-.186.186-.292.027-.159-.186-.08-.319V188.2l-.106-.265-.265.08-.319.186h-.212l-.106-.265-.053-.637-.08-.212-.159-.133H665.7l-.5.133.08-.239v-.159l-.08-.133-.133-.186-.478.159-.584-.265-.478-.5-.133-.611.531.664.159.053.186-.212v-.319l-.053-.345.08-.265.159-.425-.266-.239-.425-.212-.239-.425.611.027.265-.106.239-.265-.4-.425-.08-.5.239-.372.531-.08.186.08.186.133.133.239.053.319.08.159.611.451Z" transform="translate(-436.53 -115.394)" fill="#7c7c7c" stroke="#fff" stroke-linecap="round" stroke-linejoin="round" stroke-width="1"/>
    <path id="Northland" d="M564.338,68.085l-.372.239-1.991,1.7-.611.451-.212.239-.266.159-.292.08h-.08l-.212.027-.186.106-.5.451-.212.159-.159-.292-.345.212-.4.372-.372.212-.5-.08-.292-.133-.186-.133-.106-.451.212-.106.611.212.319.319.159.027.106-.637.319-.823.478-.637.133-.265.027-.186.026-.212.106-.372.319.159.265-.053.053-.212-.239-.4-.186-.133-.77-.239.08.77-.265.876-.5.69-.584.292.319-.425.106-.08-.239-.106-.212.053h-.186l-.053-.239-.053-.4-.133-.08-.186.053h-.186l-.212-.08h-.133l-.053-.08-.026-.372.026-.265.053-.265.186-.5-.319.027-.212.159-.425.5.08-.69-.319-.027-.876.717.212.212v.557l.265.106h.372l.265.053.186.133.212.319-.106.372v.239l.186.106.133-.053.106-.106.186-.265h.186l.212.212.372.557-.743.212-.106.053-.053.239-.133.133-.159.053h-.212l-.159-.106-.266-.345-.186-.08-.239-.027-.133-.106-.478-.717-.186-.372-.239-.372-.345-.319-.372-.08-.982-.027-.186-.159-.133-.239-.319-.319-.345-.265-.265-.133-.319-.186-.159-.478V66.2l-.133-.372L550,65.217l-.239-.77-.266-.292-.611-.478.743-.69.186-.4-.08-.611-.133-.186-.212-.212-.212-.159h-.159l-.027.345.133.239.212.186.106.133-.133.531-.77.425-.08.4,1.035,1.487.159.265.425.265.159.584.106.664.159.478.133.212.265.557.159.292.186.133.266.106.239.159.159.5.186.186.212.133.159.159,1.115,1.726.266.159.319-.053.292.027.186.319-.425.186.186.319.425.425.212.558-.159.531-.4.345-.956.4-.982.027-.5-.876-.637-2.442-2.655-3.664-.743-1.487-4.619-6.239L538.8,53.908l-.133-.478.133-.4.69-.9.159-.425.026-.584.159-.557.239-.345.425.212.106-.265.027-.106.186.239.212.265.212.239.292.106.053-.159-.053-.876.08-.319.557.876.106-.451V49.5l.106-.478.345-.345h.186l.133.106.133.08.239-.186.08-.159.133-.531.345-.584-.743.239-.239-.08v-.292l-.027-.186-.08-.106-.239-.027-.08.133v.929l-.212-.372-.345-1.195-.345.372.08.478.266.451.159.425-.133.425-.319.239-.4-.027-.531-.319-.212-.027-.106.08.186.5-.133.106-.212.053-.186.08-.186.106-.133-.08-.239-.372h-.159l-.239.106-.4.319.186.372-.133.159-.266.106-.186.239v.133l.053.133.053.08.026-.027-.053,1.885-.08.212-.186.027-.159-.159-1.752-2.469-.239-.664.106-.425.69-.8H536.7l-.292-.027-.133.027.4-.478.186-.265.106-.292-.611.106-.372.4-.239.584-.186.637-.212-.186-.637-.743-.133-.265.186-.212.717-.531.239-.292-.319-.106-.584.345-.372.08-.345-.106-.292-.239-.478-.664-.823-.85-.133-.345.026-.478.292-.133.4.08.372.186.664-.929.4-1.168.08-1.274-.292-1.248-.637-1.566-.265-.425-1.248-1.248-.372-.531-.637-1.619-.265-.265-.372-.186L526.348,28.4l-.823-.69L523.8,26.644l.212-.186.133-.186.212-.478-.053-.186-.026-.4.106-.265.345.239.451.265,1.195.053.5.292.266-.265.637-.159.637-.4,2.31.212.372-.08.212-.186.212-.239.239-.08.319.345-.584.372-.159.5.026,1.327-.053.345-.08.186-.159.133-.345.027-.08-.133-.08-.292-.159-.319-.292-.106.026-.133.08-.265.027-.133-.4-.133-.159.027-.159.637-.053.531-.159.159-.345-.212v.265l-.08.186-.133.159-.186.106.186.212.664.478.053-.265.106-.239.133-.159.239-.027-.106.372-.053.159-.106.159.212.159h.212l.159-.106.106-.239.133.292.026.319v1.434l.08.159.186-.159.239-.584.053-.743-.133-.69-.318-.531.557.265.292,1.221.212,1.434.212.982.664.77.85.743.69.85.186,1.035-.982-1.195-.425-.345.08.9.85.876,2.734,1.593-.08.292-.425.531-.133.212-.053.265-.027,1.035.053.133.133-.027.239.027.664.186h.159l.159-.239.08-.292.106-.239.292-.133.265-.292-.053-.717-.292-1.195.133-.557.372-.159.5-.08.478-.319.133-.319-.027-.292-.106-.239v-.159l.239-.239h.159l.133.186.106.292v.239l-.027.212-.106.425.611-.319.239-.053-.106.265.053.212.292.372-.823.372h-.849l-.212.08-.133.4.106.478.212.425.186.319.266.4.345.319.4.239.451.08,1.009-.133.372.133.4.531.212-.425.053-.106-.212-.292-.266-.239-.212-.292-.026-.4.212-.425.265-.027.292.265.212.372.239-.239.292-.053.239.133.212.557.292.133h.611l.08-.053.053-.133.08-.106.159-.053.186.053.027.133v.159l.053.133.106.186.053.159.08.133.186.053.159.027.133.027.265.133-.265.133-.106.212-.08.265-.106.239-.478.345-.186.212.027.212.69.611.451-.027.08-.106-.027-.159v-.239l.425-.85.026-.159L546.9,40.1l.027-.133.133-.133.345-.053.372-.212h.319l.584.027-.053.133.186.292.345.425.823.637.319.4.133.611.265.451.664.106,1.168-.133.5.133.5.345.372.531.186.611-.85.265-.239-.08-.08-.239V43.82l-.106-.265-.106.053-.159.106h-.212l-.239-.345-.5.292-.212.159.212.159.372.584-.69.106-.053.345.319.265.425-.186.212.133.212.053.212-.053.212-.133.266.372-.053.345-.159.319-.053.319.133.319.77.8.106.239.08.292.026.664.08.08.133-.265.133-.4.08-.345.4.212.212.106.239.027-.053-.133-.053-.265-.053-.106.319-.027.159.133.133.159.159.08.186-.106.053-.239-.08-.265-.159-.106-.451-.027-.584-.159-.5-.265-.186-.4.133.186.292-.292.478-.027,1.035.133-.106-.239-.053-.106.212-.027.292.053.212.08v.08l.212-.133.026-.106v-.106l.106-.239.557-.611.637-.531.159.637-.186.5-.266.5-.133.584.159.584.345.265.451.053.451-.027v.159l-.186.345.611.77-.292.265-.133-.08-.558-.611-.637-.5-.212-.186.345.557.743,1.672.478.372.4.027.425.106v-.106l.053-.053.08.027.106.08.053.212.053.053.186.186.478.876.106.292-.8.133.08.292,1.088.876.982,1.062.186.584-.265.85-.319-.186-.929-.133-.372-.027-.212.133.345.292.77.425-.106.027-.292.159.531.133.212.08.08.212-.08.265-.159.186-.239.106-.212.053,1.195.743.212.292v.292l-.133.611.053.239.478.929-.557.159-.4-.265-.4-.425-.451-.319.133-.451-.584-.186.026-.4-.319.027-.5.212-.319.08-.133-.027-.212-.239-.133-.053-.133.08-.106.345-.106.08-.319.027-.053-.053.08-.212v-.451l-.053-.372-.106-.292-.159-.292-.239-.265-.08.557.08,1.38-.053.425-.106.239-.026.345.053.319.133.186.318.053.186-.212.133-.319.133-.292.372-.053,1.38.159.425.159.345.451-.08.478-.345.5-.478.478.345.345.08.611-.026.664.026.451.239.319.929.69.372.212.266.027h.5l.239.133.186.319-.026.239-.106.212-.053.292.08.584.239.319.292.239.106.106Z" transform="translate(-351.178)" fill="#7c7c7c" stroke="#fff" stroke-linecap="round" stroke-linejoin="round" stroke-width="1"/>
  </g>
</svg>
