<svg xmlns="http://www.w3.org/2000/svg" width="567.473" height="802" viewBox="0 0 567.473 802">
  <g id="nz" transform="translate(-44.7 -23.6)">
    <path id="Manawatu-Whanganui" d="M751.48,458.752l.243,2.852,1.4,2.184,3.155.91.485,1.214.243,1.153.243.364-.061.546-.971.789-.182.91-.364.91.243.728,1.032.485,1.274,1.092-.546,1.517-.243,1.881.243,3.4-1.031.728-1.517.425-1.456.728-2.124,2.852-.971.607-.667.667.546.364.546.182.3.728-.3.971.485,1.517.728,1.335-.182.364-.425.121-.182.728-.061.789-2.185,7.828-.485,4.066-1.032,4.672-.061.425.182.728.849,1.092.971.3,3.034-.121,2.791,2.427.667.425.789.121.364.121.364.243.243.728-.121.849.182.91.546.667,1.578,1.578.121,1.153-.3,1.032v1.638l1.335,3.277.121,1.881-.243,2.124-.121,1.82,1.4,1.578,1.638,1.153,4.976.425,1.4.728,1.881,1.76-.061.485-.849,1.4-1.092.061-1.214-.243-.91.243-2.67,4.49-2.791,2.791-.425.789-.061.607-.182.728-.243.667-.971,1.76-.3.243-.789.121-.3.243-.3.546-1.82,4.612-1.092,1.76-1.578-.85-1.456-2-4.248-1.031-6.311-.243-9.1,1.274-7.221,1.092-7.4.85-1.274-.485-2.427-.789-.182-.121-3.519.971-6.068-.121-4.854,1.032-1.456-.061,1.4-2.306,2.184-4.915,1.274-4.248.485-1.032.425-1.274L705,542l.243-1.4v-.3l-.061-.425.061-.364.121-.121h.364l.425-.121.3-.182-.3-.971-.121-.91-.061-.91.061-.546.425-1.032L707,531.2l.182-2.427-.061-.667-.243-.546-.789-1.4-.607-4-.849-3.337-.607-1.578-.728-1.4-3.58-3.7-.91-1.7-4.308-4.915-3.277-2.063-2.549-1.214-1.214-.243H685.4l1.274-2.306.971-1.032,1.153-.728,1.153-1.4,1.4-1.092,1.032-.364.789-.971-.121-.85v-1.214l.182-.425.485-.243,1.092-.3.849-.789-.3-.607-.425-.485.061-2.791.728-2.731-.425-1.82-.667-1.881-2.184-1.881-1.335-1.76-.425-1.274-.061-1.335.3-.546.182-.607-.243-.91-.91-.485-2.124-1.517.121-.85.485-.849.728-2,1.335-1.456,1.092-.182.789-.364.971-2.124,3.944-5.158.546-.182.789.243.546-.364-.485-1.032-.91-.85-3.095-.728V451.9l-.728-1.517-1.881-.425-1.031-1.153-.485-1.7.121-2-.728-1.4-1.638.728-1.214-2-.485-2.306L687.645,438l.182-.243.243-.243,1.031-.364.789-.485,1.638-1.032,1.76-.607-.061-.485.121-.546,1.153-1.942-.182-1.092.364-.789,2.913-.546,1.092-.546.971-.789.546-.121.485.243.425-.3.485-.364,1.942.121,1.82.364,1.153-.182,1.881-1.032.789-.667.607-.364.485-.182.061-.667.243-.667.971-.667.789.728h1.092l2.791-.667h2.913l1.578,1.092,1.942.91,1.4-.485,1.335-.85.607.667-.728,1.7-1.335,1.517-.607,2-1.032,2.488-1.638,2.609.85,1.638,1.335,1.153V440l-.85,1.7.243,1.456.91,1.092.121.971-.425.728-.364,2.184,1.638.971,1.517-.243,1.517.121v1.274l-.789,1.7-.789,1.153-.3,1.4.607.971.425,1.214-.607,2.791-.971,2.549-1.092,2.184.182,2.367,4.066,1.214,4.248-.061,1.942.243,1.82-.91.546-.728.243-.971.364-.91.485-.789.3-.789.546-.728,1.881-.667,1.274-1.517.121-.364.243-.182,2.063-.243,3.519.121,2.731-.971,1.274.425Z" transform="translate(-251.533 -156.967)" fill="#7c7c7c" stroke="#fff" stroke-linecap="round" stroke-linejoin="round" stroke-width="2"/>
    <path id="Gisborne_District" data-name="Gisborne District" d="M906.853,408.82l-1.517-2.367-2.124-.364-5.036-4.43-7.767-8.859-.121-4.551-4.126-2.791-.91,3.155-9.952-6.007.789-1.578-.425-2.063-.061-1.942,3.155-2.245,5.643-2.366,1.76-1.638.971-1.881.182-2.124-.3-1.092.425-.91,1.153-.485,1.274-.182,1.274-.607,1.153-.91,1.031-1.092.728-.3.667-.425.243-.728.243-.728.971-1.092.182-1.335.061-2.306-.546-1.4.546-.485,1.578.485,1.76,1.82,1.881,1.578,2,1.214,1.881-2.549,2.67-9.345,2.427-4.612,1.76-1.76,1.274-2.245-.425-1.214L912.132,336l-1.214.971-1.031-.85.182-1.4.364-1.153.061-1.942-.485-1.7-.243-.546.121-.667,1.031-.485,2.67-.85.91-1.517.061-.971,9.345.485,1.092.3.546.485-.607.667v.364l.546.3.91.91.485.425.789.3.789.121h1.638l.546.182.91.789.607.182h1.456l.607.121.667.3.728.607,1.032,1.092.728,1.153-.061,1.032-.425.546-.849,1.456-1.76,1.881-.971,2.731-.667,1.456L931,344.014l-.728,1.274L929,348.99l-.546.971-.728.971-.364.607-.182.667.364,1.4.667,1.214.546,1.274-.3,1.578-.728.789-.971.728-.425.91,1.153,2.488-.121,1.214-.607,1.153-.667,1.032-.3,1.214.667,1.214.91,1.032.485.789-.182.667-.364.607-.789.789-.182.789-.121,1.335-.3.728.546.243.485.425.3.607-.061.849-.3.485-1.76.971-.182.485v3.883l-.243.485-5.279,5.886-4.794,4.248-.789.425-1.82-1.7-1.214-.3-1.153.3-1.032.728-.364.243-.3-.121h-.182l-.061.728v.3l.182.667.061.243.91.91.364.667-.121.728-.789,1.456-.3,1.335-.061,3.155L907.46,407l-.607,1.82Z" transform="translate(-326.202 -118.079)" fill="#7c7c7c" stroke="#fff" stroke-linecap="round" stroke-linejoin="round" stroke-width="2"/>
    <path id="Hawkes_Bay" data-name="Hawkes Bay" d="M872.487,446.213l-.121,2.366-.364.971.425,1.214-.364.85-.667.91-.3,1.153,3.216.364,1.517.789.667,1.517-2.549,2.67-1.092,3.034-.425,1.942-.546.667-.789.607-.667.789-1.274-3.7-.364-1.942.061-1.76.182-1.032.364-.971.425-.85.425-.667.061-.728-.667-.485-.849.061-.667.971-.485-.243-1.4-1.032-.728-.243-7.342-.364-7.585-.182-.607-.243-.425-.425-.425-.121-1.214,1.092-8.677,4.308-6.371,3.095-.546.728-.243,1.335-.485,1.274-.607,1.214-1.153,1.517-1.7,1.881-1.092.85-.121.182-.546,1.7-.607.728-.3.728-.121.789-.061,1.032.182,1.032.364.546.546.425.546.667.3,1.214.3,5.643.121,1.153.364,1.032h.243l.3.364.789.425,1.214.91.3.3.607.425h.85l1.578-.182,1.456.364-.121.85-.85,1.214-.485,1.456-.243.485-.485.485-.607.364-1.032.425-.364.667-1.092,4.066v.182l.061.3.061.364-.121.425-.182.121-.728.3-.243.182-.607,1.153-1.578,5.4-.971,2.488-.667,1.032-.182.546-.061.789.121,1.578-.061.364-.061.3-.607.91-.121.3-.789,2.124L822.184,520,820.3,522.73l-2,1.942-.425.182-.425-.243-.364-.485-.425-.243-.546.364-1.153,1.7-.425.971-.182,1.274.3-.546.364-.425.425-.243.546-.121-3.034,6.189-.425,3.883-1.881-1.76-1.4-.728-4.976-.425-1.638-1.153-1.4-1.578.121-1.82.243-2.124-.121-1.881-1.335-3.277v-1.638l.3-1.032-.121-1.153-1.578-1.578-.546-.667-.182-.91.121-.85-.243-.728-.364-.243-.364-.121-.789-.121-.667-.425-2.791-2.427-3.034.121-.971-.3-.85-1.092-.182-.728.061-.425,1.032-4.672.485-4.066,2.184-7.828.061-.789.182-.728.425-.121.182-.364-.728-1.335-.485-1.517.3-.971-.3-.728-.546-.182-.546-.364.667-.667.971-.607,2.124-2.852,1.456-.728,1.517-.425,1.032-.728-.243-3.4.243-1.881.546-1.517-1.274-1.092-1.031-.485-.243-.728.364-.91.182-.91.971-.789.061-.546-.243-.364-.243-1.153-.485-1.214-3.155-.91-1.4-2.184-.243-2.852,2.306-2.913,3.155,3.034,3.641,1.214.728-.91-.546-1.214,1.153-.85,1.335-.364-.121-1.638-.364-2,2.306-2.973,3.459.061,2.306-.3.667-.3-.364-1.032-.121-1.578.667-1.4L814.3,441.6l1.76-2.427-.182-1.942.3-.607.3-.546-.121-3.034.971-1.456,1.4-.971,1.153-.607,4-1.092,2.67,1.578,1.335.3h1.153l.789-.789.607-.849.364-.85.364-.91.789-.91.91-.728.607-.182.3.182.91-.425.667-1.092,2.184-.85.364-.667.425-.546.607-1.4,1.153-.364.85-.425,9.951,6.007.91-3.155,4.126,2.791.121,4.551,7.767,8.859,5.036,4.43,2.124.364,1.517,2.366Z" transform="translate(-291.836 -155.473)" fill="#7c7c7c" stroke="#fff" stroke-linecap="round" stroke-linejoin="round" stroke-width="2"/>
    <path id="Auckland" d="M686.723,223.084l-.061.546.364,1.214.061.546-.121.425-.243.182-.607-.121-.364.061-.971.3-.971.121-.971-.121-1.881-.728.3-.425-1.032-1.032-.425-.061-.607.485-.485.182-.182-.667.121-1.032.364-.667h2.731l.546.3.364.546.485.3.85-.546,2.063-1.82,1.032-.607.243.182.485.607.425.85-.364.3-.667.182-.485.485ZM673.8,204.091l-.728.243-1.638-.061-.485-.243.728-.485v-.667l-.485-1.456.121-.667.667-.425.728.3.607.667.243.789.3,1.4-.061.607Zm10.5-12.925-.789.121-.607-.061-.91-1.274.667-1.092,1.153-.667.667.061.182.364.425.485.364.546v.728l-.425.546-.728.243Zm9.1,45.57-2.549,1.4-1.517-.971-.971,2.245-1.032,3.155-.243,4.126-4.308.607-5.279,1.274-5.036,1.274-4.066,1.274L665.607,253l-2.731.425L661.905,251l-.485-1.82-1.092-2.124-.182-.546-.3-1.214L657.9,241.53l-.364-1.638.789-.061,1.274.3,1.881-.607.667.243.485.485-.121.607-.425.667-.061.364,2.367,4.612.182,1.881.667,1.517.789.607.485-1.335-.546-1.517-.121-.91.546-.425,1.4.243.607-.061.667-.546h-.91l-2.367-.425-.85-.364.728-.364,2.488-2.245.364.121-.061,1.274,1.942-2.306,1.032-.85,1.153-.121,1.82,2.063.607.364.667-.3.121-.667-.243-.789-.425-.667.121-.667-2.367-.91-.91-.789-.728.243-.425-.728-.364-1.153-.425-.85-1.153,1.456-.728-.607-.061-1.274.546-.728.546-.182.546-.425.425-.546.243-.667-3.034-.546-3.155.182-1.578.425-1.214.971-.425.728-.3,1.4-.182.667-.485.607h-.364l-1.092-1.032-.667,1.032-1.032.91-1.092.364-.91-.485-.546-1.032-1.881-6.675-1.032-5.461-.91-2.609-2.427-4.49-6.432-8.131-1.4-2.67-.243-2.67.121-.667.182-.546.364-.3.607-.121-.546,1.638-.061.789.243.789.789-1.517.425-.607.667-.243.667.425.728,1.881.91.91,1.092,1.881.667.485.789.182.425.546-.061.667-.667.546,1.881.728.485.061.061.182-.485.3-.667.243-.667.121.425.3.182.485-.061.546-.243.607.607.061.425.182.91.607v-.425l.061-.789-.061-.425.485.85.485,1.335.425.607.485-1.153.546.061.182-.667.061-.971.243-.85.3-.364.728-.667.243-.546-.728.243-.243.121-.425-1.092.485-2.609-.364-.667-.425.85-.182-.425V204.88l-.061-.182.182-.3.789-.85-.364-.667-.546-.607-.425-.667.182-.667,1.032-.91-.061-.364-1.456-.91h-.3l-.789,1.032-.607.546-.364.243-2.791.243-1.456-.364-1.032-.971-.3-1.881.607.364.364-1.4.546-.121.607.425.728.3,2-.121.971-.3.728-.546.728-.789.607-.364,1.4-.667,1.274-1.153.485-.243h.364l.3-.182.121-.789-.243-.243-.121-.061-.061-.121-.182-.364,1.4-1.032,4.551-3.883.85-.546.546.667,2.67,4.066,1.456,1.7,1.942,1.4,1.214.485.061.3-.3.789v.182l.182.061.121.121-.121.243-.182.121-.182-.061-.061-.182-.061-.061-.243.182-.182-.121-.121.061-.121.667.364,1.032,1.032.425,1.335.182,1.092.364-1.4.243-3.823-.182-.85.121.121.789.667,2.427.789,1.517.061,1.032-.121,1.032-.182.91-.971-2.731-.728-1.153-1.214-.485.85,2.549-.121.971-1.032.061v.425l.425.182.425.243.364.3.364.425-.3.607-1.032.607-.243.425v.789l.485,1.032.121.789v1.153l.243.182.607.607.425.364.667.182,1.274.061,2-.789h.546l.485.425-.182.3-2.184,1.274-1.153.425-.728-.061-2-.789.971,1.032.728,1.456,2.791,8.738-1.032-.3-.607-.546-.667-.182-1.214.667-.364-.3-.182-.364v-.425l.243-.546-.91-.182-.667-1.578h-.667l-1.638.85-.789.485-.728.85v.425h.364l1.638-.243.85.243-.425.425-.667.425-.485.485.243.425.789.485.182.182v.364l.061,2.488.182.789.607.3.364-.3.061-.667-.061-.85.121-.607.3.485.364-.667.425-.607.546-.425.546-.3.728-.121,2.184.485H672.4l.971.667-.121,1.76-.485.667-.425.425-.243.485.182,1.153.243.728.3.425.3-.121.425-.607,1.274-6.432h.3l1.032,2.791.364,1.335-.061,1.517,1.032-.3h1.214l.607-.485-.789-1.4-.182-.971,1.092-.3,1.517.182.971.425.546,1.335-.546,2.67.607,1.032.728.182.607-.243.485-.364.789-.243,1.092-.789.3.121.243.243.243.061,1.517-.728.425-.061.485.182,1.032.85.546.182.425.243,1.638,2.063.3.546Zm5.522-51.4.121.667.667.667,1.214.789,1.214.485.425.061.425.243-.243.485-.425.607-.243.485-.182.85-.243.667v.667l.607.971.182.243.243.182.243.121.3.061.121.061v.243l-.061.3.061.182.91,1.274.364.3-.91,2-.425.425-.667.061-.364-.425-.182-.728v-.728l-.243-.607-.607.182-.728.425h-.485l-.243-.607-.121-1.456-.182-.485-.364-.3h-.364l-1.153.3.182-.546v-.364l-.182-.3-.3-.425-1.092.364-1.335-.607-1.092-1.153-.3-1.4,1.214,1.517.364.121.425-.485v-.728l-.121-.789.182-.607.364-.971-.607-.546-.971-.485-.546-.971,1.4.061.607-.243.546-.607-.91-.971-.182-1.153.546-.85,1.214-.182.425.182.425.3.3.546.121.728.182.364,1.4,1.032-.91.485Z" transform="translate(-233.681 -61.772)" fill="#7c7c7c" stroke="#fff" stroke-linecap="round" stroke-linejoin="round" stroke-width="2"/>
    <path id="Bay_of_Plenty" data-name="Bay of Plenty" d="M871.307,317.94l-.061.971-.91,1.517-2.67.85-1.032.485-.121.667.243.546.485,1.7-.061,1.942-.364,1.153-.182,1.4,1.032.85,1.214-.971,1.092.061.425,1.214-1.274,2.245-1.76,1.76-2.427,4.612-2.67,9.345-1.881,2.549-2-1.214-1.881-1.578-1.76-1.82-1.578-.485-.546.485.546,1.4-.061,2.306-.182,1.335-.971,1.092-.243.728-.243.728-.667.425-.728.3-1.032,1.092-1.153.91-1.274.607-1.274.182-1.153.485-.425.91.3,1.092-.182,2.124-.971,1.881-1.76,1.638-5.643,2.367-3.155,2.245.061,1.942.425,2.063-.789,1.578-.849.425-1.153.364-.607,1.4-.425.546-.364.667-2.184.85-.667,1.092-.91.425-.3-.182-.607.182-.91.728-.789.91-.364.91-.364.85-.607.85-.789.789H819l-1.335-.3L815,384.566l-4,1.092-1.153.607-1.4.971-.971,1.456.121,3.034-.3.546-.3.607.182,1.942-1.76,2.427-2.306,2.488-.667,1.4.121,1.578.364,1.032-.667.3-2.306.3-3.459-.061-2.306,2.973.364,2,.121,1.638-1.335.364-1.153.85.546,1.214-.728.91-3.641-1.214-3.155-3.034,2.184-3.7-.91-5.461-.789-.789-1.092.607-1.456-.3-1.214-1.153-1.335-2.245-1.153-2.427-.546-.85.3-1.942.425-1.4.971.061,3.095,1.214,1.032-.364.85-.91-1.032-2.245-1.881-2.184.546-2.366,1.092-2.609-.728-.85-3.883-1.578-2.67-.728-.485-1.274.425-1.335.667-.121.667-.182.425-.91.546-.728,1.214-1.274.85.849.971.546.971,1.214.243.243h1.578l.789-.121.728-.3.425-.3.728-.667.425-.243h.667l.607.243.485.485.182.728-.061.728-.3.485-.728.789-.3.728-.121.607.667.485,1.153.061,1.032-.485.546-1.335.3-1.214.85-.607,2.791,1.335.91-1.638,1.092-4.733-.485-2.306-1.214-1.153-7.1-3.216-.546-.728-.485-.971-.789-1.335-.607-1.638-.425-2.488-.607-2.488.061-1.335-.728-.91-2.063-2-3.337-.546-1.4-.85-1.092-1.032-.485-1.638-1.578-.728-.789-.061-.728-.182-.546-.971-.728-2.488.364-1.4.061-1.274-1.274-1.638-.364-.728-.607-4.794-1.638-4.066-1.153-1.881-.91-2.124-.061-1.7-.789-1.638.121-1.4.364-.91-.485-1.092-.607-.728.364-.91.546-.85,1.4.789,1.517.425.121-.728-1.092-.971.182-1.032.849-.364.971-1.578.243-2.245,1.881-.728.121.485.85,1.82.182.91.121.425.667.485.182.485v.789l-.243-.121-.364-.364-.364.121-.364.91.425.364,1.881.3.789.364.85.546.728.607.667.667.485.789.728,1.76.364.728,1.335,1.274.607.728.182,1.032-1.7-1.335-.546-.3-.728-.061-.667.121-.728-.121-.789-.728.485-.3,1.456-.546-1.638-1.092-.789-.789-.607-.728-.91-.546-1.214-.121-2.184.425.243.364.425.667.243.243-.182.3-.121.425-.061.485.061.364.3.485.3.061.243-.121h.121l.243.182.485.121.182.121.121.3-.121.364-.182.3-.061.243.182,1.274.061.3.243.3.243.121h.85l.364-.121.243-.3.182-.243.182-.121.789.364.425.728.243.85.485.91.728-.546.425.364.425.607.485.364.667-.3.243-.607.3-.485.91.121.607.425.243.546.061.728v.971l.243.546h.546l.789-.243.667-.121-.607-2.852-1.092-1.76-.243-.789.667-.243.91.789,1.638,3.034,1.153.667,1.274.3,2.791,1.4,1.335.3.546.243,1.153,1.092.546.243h1.4l.243.243.182.425.364.182.546-.425,9.345,6.857,1.881.91,2.973.485,2.791,1.092,3.155.485,2.609,1.638,4.308.546,1.76,1.032h-2.731l-.485.121.243.364,2.184,1.578.607.243.667.121.607-.3.121-.728-.243-.789-.3-.607.789-.243.425.3.425.425.607.3H833.2l.121.121.485.91.3.182.182-.121.243-.182.243-.121.182-.182v-.85l.3-.182.546-.061,1.4-.3,4.187-.3,1.092-.728.849-.789,3.641-2.245,1.4-1.214.485-.667.182-.546v-1.456l.789-1.456.182-.607.243-.364,1.942-1.032.728-1.032.546-2.184.546-1.032.667-.849.3-.485.121-.728.364-.425,4.672-1.335.91-.061.849-.243.607-.667,1.092-1.7.728-.425,2.124-.182.849-.425.607-.667.182-.546-.243-.667-.546-.91,1.82.364,2.184.121Z" transform="translate(-282.95 -111.119)" fill="#7c7c7c" stroke="#fff" stroke-linecap="round" stroke-linejoin="round" stroke-width="2"/>
    <path id="Canterbury" d="M494.775,765.7l-3.641,3.883-1.335,2.245-.667,1.456-.243,1.274.061,1.942-.121,1.092-.425.607-.3.607-.364.85-.061.3-.91,1.153-.91,1.7-.91.91-2.124,1.335-.971.971-1.456,2.367-.243.243-.364.061-.667-.061-.425,1.153-.243.364-.485.485-.485.364-.364.485-.061,1.032.182.607.789.971.3.607-.3.485-.364.425-.971-1.274-.485-.364-.728-.121-.607.182-1.032.91-.485.182-.546.485-2.488,3.034-.91,2.427-.728,2.791-1.092,2.306-2.063,1.092v.485h.3l.243.121.182.182.243.121-3.641,7.888-.485,2.184-.728,1.4-.91,1.153-1.456.728-.061.667.182,1.214v.728l.061.364v.364l-.364.789-.425.546-.425.243-.3.3-.121.91-.182.425-.425.425-2.063,1.274-.485.182-1.335.243-1.942.971-.243.667-.182.728-.182.546-.425.425-2.245,1.76-6.311,1.578-1.578.728-1.214,1.578-3.58,2.67-.728,1.274-1.032,2.67-1.092,1.7-.243.546.121.91.364.789-.364,1.578-.182,1.638-.061,3.4-.3.364-.3.91.121,1.4.85,4,1.335,3.823-.121,1.032-.607-.728-.546-.121-.182.425.364.91.728.485,2.852.789-1.335.607-3.095.243-1.4.485-1.214,1.153.546.485,1.274.182,1.032.364.971-1.274,1.76-.425h1.638l.789.121.182.971.425.91.425.546.243-.243.182-1.638.425-1.638,1.274.789.243.546.061,1.092-.121,1.76.182.425.607-.182.425-.485.364-.789.364-.667.607-.3.728.061.667.3.546.546.182.91,1.335-1.517.546-.3.182,1.153.546.607.667.546.546.789v.485l-.121.546-.182.425-.061.3.121.425.425.667.121.3.182,1.76-.182,1.881-.364,1.82-.546,1.638-.607-.91-1.153,1.517-.85-.182-.3,1.4v.425l-.425-.546-.364-.121-.425.243-.425.425-.182-.85-.607-1.456-.182-.85v-.971l.182-.546-.121-.546-.485-.789-.3-.85.121-.971-.061-.789-.607-.3-.728.243-.3.667.182.728.546.607-.667,1.76v1.76l.485,1.7,1.456,2.367-.182.121-1.092-.182h-3.034l-.667-.364-1.032-1.335-1.092.364-.546-.485-.971-1.274-1.82-1.942-.061-.85.91-1.214-.85.061-1.274.607-3.823.607-1.274.667-2.731.243-4.126,1.517-1.881.3-.364-.243.182-.667.425-.485.607-.3,1.214-.182,7.039-2.488.728-.061.728-.243-.364-.485-1.335-.85-.546-.121-1.517.182-.789-.3-.3-.364-.607-.91-.364-.425-1.214-.667-1.214.243-1.214.485-1.335.3-.789.667-.425,1.638-.182,1.881-.061,1.578.121.971.121.364-.121.364-.546.789-.546.243-3.884.607-.546-.121-.971.364-.85.971-2.124.728-.971.85-4.854,2.306-9.041,6.614-1.4.243-.728-.121-.728.061-.607.364-3.459,2.488-1.76.364-.728.3-.546.546-.485.607-.546.425-1.335.425-1.214.91-.485.243-.789.243-.85,1.032-.485.485-.3.546-1.214.485-.546.425-2.913,3.095-1.092.667-.971-.364-.667.485-.546.425-.364.728-.182.607-2.549,4.733-.182.728v3.762l-.243,1.214-.607.971-1.4,1.638-.061.546-.061.789-.121.607-.546.3-.364.121-1.4.789,1.032,1.335.243,2.245v4.915l.546,3.155.061,1.153-.243,1.214-.546.546-.607.364-.485.789,1.335.243.485,1.578-.061,2.124-.364,3.944-.485,1.335-.546.91-.425.91-2.184-.425-4.915-2L343.38,953.2l-3.944,1.092h-1.82l-1.881.485-1.638.849-7.282,6.735-4.551,2.67-.971-.971-1.032-1.7-.485-1.7-.243-1.82.121-1.456-.546-1.274-.91-.607-1.76-.121-4.126.91-3.337-.243-1.456-.789-.971-1.274-1.4-2.245-1.638-3.944L302,943.064,300.9,940.7l-1.4-1.82-1.517-.667-3.459.425-2.609-2.791-1.274-1.76-1.335.182-1.032-.607-.91-1.274-.728-4.308-.728-1.7-1.335-1.214-1.456-.607-.3-.971-.121-1.638V910.115l.121-1.4.971-1.517.607-1.274,1.092-1.82,1.032-1.274.789-1.76,1.214-2,.546-1.578-.364-3.641,2.488-2.973,1.638-1.578,1.578-1.881,7.282-6.068,1.274-2.306L304,877.955l.91-1.76,1.214-1.456,1.214-1.76.667-1.638.728-1.4,1.214-1.456,3.641-3.277,1.456-.91,4.672-1.638,6.311-3.641,2.245-.91,1.578-.243.789.3h1.214l4.551-5.1,8.192-6.553,4.672-2.427,1.76-1.153,2.913-5.1,1.82-1.153.971.121,3.7-1.214.91-.546.546-.667.182-.728.3-.971.607-1.153,2-2,1.092-.789,1.881-.789,1.578-.121.85-.182.728-.425.971-.728,1.7-.667.607-.061.485.121.3.243h.243l.364-.061,1.76-.485,1.942-.182,1.7-.364,2.366.061.667-.425.546-.607.243-.789.182-.85.546-1.7.364-1.7.182-.667.243-.3,2.427-.728,2.852-1.76.182-1.214.243-.728,1.092-1.335,1.092-1.638.91-.789,1.4-1.032.667-.182,1.4-.121.85-.3,1.214-.607,1.335-1.214,1.274-2.549,2.063-1.7.546-.667.485-.91.971-.971.425-.607.485-.971.667-.789,2.913-2.245,2.367-2.124,1.335-.607.91-.182,1.153-.546.607-.667.243-.728.182-.667.607-1.274.3-.728.182-.607.243-1.214,1.335-.364.85-.546.85-.728,2.184-2.609.607-1.335,1.274-3.58.121-.91.182-.667.364-.3.485-.121h.546l.546.121.3.182.728.121.485.3.789,2,.85.485.85.182h.728l.91.91.607.182.243.85.182,1.032.485,1.517.546.789.121.91-.182.789-.121.91.364.667.789.364.85.3.85.425.546,1.335.607.85.364.789.3.485,1.82,1.517-.061.91-.243.971v.728l.485.485.789.243.667.3,1.214,1.214h.91l.607-.667,1.76-1.092.91-.182.789-.607.85-1.274,1.153-1.274.91-1.942.061-.789-1.274-.91.607-.91,1.153-1.153L456.3,785.3l2.488-2.488,1.578-.849,4.308-1.76.667-.728.3-.971.485-.971.121-1.82,1.274-3.58,2.973-2.609,1.214-.728.91-.789.91-.243,1.092-.728.789-.667.971-.667.728-.667.789-2,.607-.667.85.3.667.728.485.789.425.364.546-.364.607-.546.91-.425,3.944-.849.789-.061.789.121.607.364.607.3,1.335.3.91-.061.667.061.485.243.243.364,1.4,1.7Z" transform="translate(-93.189 -290.067)" fill="#7c7c7c" stroke="#fff" stroke-linecap="round" stroke-linejoin="round" stroke-width="2"/>
    <path id="Marlborough" d="M605.487,665.26l-.364.789-.243,1.881-.364.667-.667.485-.85.061-.85-.121-.849.061-.607.364-1.153,1.032-.485.3-.728.121-2.367-.121.243-.243.485-.485.182-.121.485-.061,1.153.121.425-.243,2.367-2.791.849.849,1.032-.425.728-1.032V665.26l-.607.3-.546-.061-.485-.425-.3-.667.85-.061.607-.485.546-.485.546-.243.789.121.121.425-.061.728.121.849Zm-14.927,51.76-1.4-1.7-.243-.364-.485-.243-.667-.061-.91.061-1.335-.3-.607-.3-.607-.364-.789-.121-.789.061-3.944.849-.91.425-.607.546-.546.364-.425-.364-.485-.789-.667-.728-.849-.3-.607.667-.789,2-.728.667-.971.667-.789.667-1.092.728-.91.243-.91.789-1.214.728-2.973,2.609-1.274,3.58-.121,1.82-.485.971-.3.971-.667.728-4.308,1.76-1.578.849-2.488,2.488-1.517,1.274-1.153,1.153-.607.91,1.274.91-.061.789-.91,1.942-1.153,1.274-.85,1.274-.789.607-.91.182-1.76,1.092-.607.667h-.91l-1.214-1.214-.667-.3-.789-.243-.485-.485v-.728l.243-.971.061-.91-1.82-1.517-.3-.485-.364-.789-.607-.85-.546-1.335-.849-.425-.85-.3-.789-.364-.364-.667.121-.91.182-.789-.121-.91-.546-.789-.485-1.517-.182-1.032-.243-.85-.607-.182-.91-.91h-.728l-.85-.182-.85-.485-.789-2-.485-.3,1.578-5.461,4.733-6.007.425-1.214.546-3.337.485-1.881,1.638-2.427.789-.971.182-.849.425-.971,2.791-2.427,1.942-2.427,1.335-2.245,3.7-4.308,1.214-2,2.124-.607,1.153-.121.91-.485.425-.971-.182-1.4.061-1.638.243-1.335.061-.91.485-1.578,1.153-.425,1.578-1.092,2.124-2.184,4.066-6.311,1.942-1.881,1.456-1.881.728-1.214.789-2.124.425-2v-1.578l.607-.3.789.364.728.789.485,1.092.061,1.214h.3l.243-.607.243-.182.243.182.182.607.667-.425-.607-1.456.667-.728,1.214-.425,1.153-.607.364-.667-.061-.607-.364-.485-.607-.182-1.76,1.274-.3-.182v-.789l.061-.364.728-.971.425-.364,1.032-.546.485-.364.485-.243,2.367-.364.243-.3,1.032-1.638,1.153-.789-.182,2.852,1.153.3.182-.243,1.4-1.456.121-.3.121-.789.061-.243.243-.121.728-.243,2.306-1.274.364-.061h.546l.546.121.425.3.485,1.638-.789.243-2.245-.607.3.85-.3.425-.425.425-.243.91-.546-.243h-.485l-.485.182-.425.485.3.364.061.243.182.121.425.121-.789.728-1.517.485-1.456.061-.667-.667-.728-.121-1.335.182-.728.667,1.153,1.214-.667.425-.485.546.061.425.789.3-.182.789-.3.728-.425.607-.425.425.425.485.546.182.485-.364.182-.971,1.092-1.578v-.3l3.095-.546,1.638-.121,1.214.667-.485-.061-.425.121-.243.364-.121.607-.182.607-.364-.061-.425-.243-.3-.061-.243-.061-.364-.243h-.243l-.121.485.061.243.243.364v.243l-.061.607-.182.3-.3-.061-.425-.182-.3,1.4-.667.425-.728.243-.546.91h.728l.849.364.728.667.3.85-.121.667-.425,1.4-.121.728-.607.728-1.335.667-2.549.789.182.667.3.546.425.243.364.182,4.976-2.913,1.76-.485v-.425l-.728-.243-.607.061-.485-.121-.425-.546,2-.243h.971l.728.485.728.243,1.153-.121,1.092-.364.728-.425-.243-.182-.728-.728,2.731.3,1.4-.364.971-1.153-5.218.121-.849.3-.121.182v.243l-.061.3-.425.061h-.546l-.182-.121-.243-.243.3-.85-2.488,1.092-1.274-.061-.425-1.881.243-1.032.485-.546.607-.425.607-.546.121-.364-.121-.425v-.364l.3-.121.425-.061.243-.182.061-.425-.061-.607,1.638.364-.546.971-.121.971.3,1.942.789-1.517.425-1.214.607-.667h1.4l-.789-1.214-.182-.607.789-1.274v-.91l-.364-.667-.789-.061-.3.607-.182.971-.3.667-.607-.3-1.456-1.578-.3-.728h1.638l-.425-.789-.061-.607.364-.243.728.364.061-1.335.789.364,1.7,1.76,1.032.728.971.3.849-.3.728-1.092.789.789.789-.364.425-.971-.121-1.153.667.243.728.667.607.971.243.85v.728l-.061.485-.243.182-.971.182-.243.243v.425l.243.546.85.728.91-.3.789-.85.971-1.274L601,656.583l.667-.243.364.789-.364,1.032-2.427,3.884-.243.607-.061,1.214-.182.546-.121-.182-.667.364-.546.485.061.182-.182.121-.425.3h-.425l-.243-.667v-2.549l-.121-.243-.3.425-.364.728-.121.607-.728-.3v.546l.364.789.364.667.971,1.032.3.546.3.971-.243.121-.546.182-.182.061v-.121l-.971.607-.364.425-.243.364-.364.364-.607.121h-2.488l-1.214.364-.789.91-.546-.364-.546-.121-.485.243-.364.667-.728-.3-.85.243-.849.546-.607.607-.182.728H584.8l1.335-.425.485-.3,1.032.364.667-.3.667-.607.85-.546.485-.061.546.182.485.061.91-.607.971-.243.425-.182.485.607.667.546.667.425.607.182.546-.182.667-.607.485-.121,1.274-.182.971-.425,1.942-1.517-.607,1.578-.728,1.456-.3.425-.971.849-.425.607-.243.607-.182.607-.3.485-1.456.425-1.092.85-.728.243.243-.607.789-1.4.121-.364-.485-.182-.971,1.032-.607-.182.3-.91-1.335.971-.91,1.517-.728,1.82-.91,1.638-1.092,1.517-.243.789.061,1.153.546,1.881.061.91-.3,1.032.85.182.546.789.243.849-.182.364.182.243.546.3.485-.121.243-1.274-.243-.3-.425-1.274-.121-.971.607.607,2.609,4.43.061.85.243.849.182.607.3,1.153v.667l1.032,3.459.243.425.425,1.092,1.032.607,1.214.121.85-.3-.243,1.517-3.337,6.371-.789,1.214-5.461,5.886Zm-5.886-74.272.3.667.061.425-.182.121-.3.182-.667.85-.182.364-.182.607-.182,1.578-.243.728-.182.061-.971-.061-.243.182-.546.728-.3.3-1.153.425-.3.182-.243.425-.121.425-.121.3-.607.425-.667.3-.667.061-.607-.364.182-.243.061-.182v-.182l.061-.3.546-.3.3-.485.061-.607-.243-.667-.546.607-.121.182-.243-.667-.121-.789.121-.789.243-.667.728.667.546.728.607.546.971.182v-.425l-.546-.485-.485-.607-.425-.85-.121-.971.121-.91.607-2.367.243-.546.243.061.061.546.121.485.546.121.182-.85.243-.546.364-.243.667.364.061.91-.121,1.092.182,1.032.364-.607,1.517-.485.728-.667h-1.638l1.092-.91.425-.485.425-.667.485-1.76.243-.425.243.91-.061.91-.121.849-.485,1.578Z" transform="translate(-188.974 -241.388)" fill="#7c7c7c" stroke="#fff" stroke-linecap="round" stroke-linejoin="round" stroke-width="2"/>
    <path id="Tasman" d="M-2606.091-1323.022l-.667-.91-.971-2.124-.364-1.516-.365-2.609-.364-1.093-.546-.788-.789-.546-.667-.061-1.154.122-.485-.122-.425-.242-.364-.365-.3-.121-.243-.242-.243-.486-.364-.788-.3-.546-.728-.3-1.335.243-.607-.121-.546-.425-.485-.789-.3-.971-.061-1.213v-.85l-.121-.788-.424-.546-.425-.243-.546-.364-.486-.486-.425-1.213-.242-.91-.122-.668.546-3.1,1.153-.97.425-.911.545-1.638.121-1.578-.121-1.031-.121-.607-.243-.546-.06-.486v-.425l.121-1.092.243-.607.425-.668.91-.85.789-.425.788-.364,2.367-.365.485-.364.061-.849-.122-.85.182-.789.546-.607,1.153-.425.728-.425.607-.728.546-1.4.485-1.578.546-2.548.3-.85.425-.668,2.246-1.578.425-.788.182-.728v-.607l-.485-.789-.061-.425.243-.365.728-.424.607-.243.546-.061,1.76.546h.85l.85-.3.788-.607.971-1.093.546-.91.182-1.213v-1.032l.121-1.031.122-.728.06-.607-.122-.365-.667-.788v-.546l.485-.425,3.277-1.335,2.124-1.942.182-.485-.121-.425-.425-.485-.85-.607-2.366-.727-.606-.243-.608-.486-2-2.123-.608-.365-.546-.182-.425-.243-.364-.425-.425-.728-.365-.546-.242-.545-.243-.668-.243-.668-.606-.546-.607-.242h-.971l-1.4.3-.486-.121-.485-.182h-.425l-.365.242-.91,1.336-.546.06-.425-.485-.182-1.821.243-1.031.485-.728.3-.3.546-.789.243-.728-.121-.788-.546-.789-.607-.485-.546-.607-.365-.789-.425-1.092-.425-.728-1.517-1.336-.425-.91-.668-4.126-.182-.607.607.06.3-.06.667-.607,1.274-.911.607-.121.182-.243,2.427-1.881,4.673-5.826,2-2,1.76-.667-.789,2-.06.728.668.243.242-.3.3-.545.3-.425.789.364.425-.182.364-.3.3-.3-.183-.85,1.4-.668.061-.546-.547-.667-.121-.183-.606.607-.668.364-.668.121-.607-.243,1.821-2.306,2.123-1.153,9.224-.425,3.034.365,2.791.788,1.517.183-1.032.425-10.133-.789-.728.182-.485.607-.425,1.274-.486,2.427-.425,1.153-.728.607.425,1.274-.243.486-.607.06-.85-.121.668,1.7.243.182.788.3.243.3v1.032l-.606,1.82.3,1.032.3-.3.971-.545.667,1.76,1.578,1.638,4,3.217.607.182.607-.243,1.153-.91.243-.121h.607l.183-.182-.121-.85.06-.243.789-.788.364.06.486.728.606-.971.667-.545.668.06.607.91.243.789v.607l-.243,1.213.3.546-.06.546-.607.607.789.183.728-.061.607.182.486.911-.121.3-.485,2.731.182,1.153.122.546-.122.425-.546.85-1.031,1.092-1.213.971.485.3.3.122.364-.122.486-.3.546,3.094.06.971.3.971.486.788.364.849-.182,1.031-.182-.607-.3-.485-.364-.365-.425-.242-.3,2.184.122.546.728.788.3.425.122.728h.3l.485-.788.365.788.485,2.549.546,1.7.06.485-.3.364-.789.425-.183.425.365.911.788.545,1.032.243h2.184l.545-.121h0l.243.788.97,1.578,1.821,1.7,1.7.85-.486,1.578-.06.91-.243,1.335-.06,1.639.182,1.4-.425.971-.91.485-1.153.122-2.124.607-1.213,2-3.7,4.308-1.335,2.245-1.942,2.427-2.791,2.427-.425.97-.182.85-.789.971-1.638,2.427-.486,1.881-.545,3.337-.425,1.214-4.733,6.007-1.578,5.461-.728-.121-.3-.183-.545-.122h-.546l-.486.122-.364.3-.182.668-.121.91-1.274,3.58-.607,1.335-2.184,2.61-.85.728-.85.546-1.335.364-.85-.121h-.425l-.486.061-.3.182-.182.364-.182.365-.243.425-.364.243-.486.121Zm39.928-58.373-1.821-1.7-.97-1.578-.243-.788.425-.061.91-.425,1.7-1.516,1.638-1.032.789-.85,1.821-2.548,2.912-2.912,1.153-.486.546-.91.485-.182.243.182.06.485-.182.546-.121.485,1.578-.728.788-.485.668-.728.728-1.456.365-.425.424-.061.425.3h.365l.425-.667-.485-.668.425-.85.788-.728.122-.06v1.578l-.425,2-.789,2.123-.728,1.214-1.456,1.881-1.941,1.881-4.065,6.311-2.124,2.184-1.578,1.093-1.153.425Z" transform="translate(2928.853 1819.83)" fill="#7c7c7c" stroke="#fff" stroke-linecap="round" stroke-width="2"/>
    <path id="Northland" d="M616.458,123.993l-.849.546-4.551,3.883-1.4,1.032-.485.546-.607.364-.667.182h-.182l-.485.061-.425.243-1.153,1.032-.485.364-.364-.667-.789.485-.91.85-.85.485-1.153-.182-.667-.3-.425-.3-.243-1.032.485-.243,1.4.485.728.728.364.061.243-1.456.728-1.881,1.092-1.456.3-.607.061-.425.061-.485.243-.85.728.364.607-.121.121-.485-.546-.91-.425-.3-1.76-.546.182,1.76-.607,2-1.153,1.578-1.335.667.728-.971.243-.182-.546-.243-.485.121H600.8l-.121-.546-.121-.91-.3-.182-.425.121h-.425l-.485-.182h-.3l-.121-.182-.061-.85.061-.607.121-.607.425-1.153-.728.061-.485.364-.971,1.153.182-1.578-.728-.061-2,1.638.485.485v1.274l.607.243h.849l.607.121.425.3.485.728-.243.85v.546l.425.243.3-.121.243-.243.425-.607h.425l.485.485.849,1.274-1.7.485-.243.121-.121.546-.3.3-.364.121h-.485l-.364-.243-.607-.789-.425-.182-.546-.061-.3-.243-1.092-1.638-.425-.85-.546-.85-.789-.728-.849-.182L589.273,126l-.425-.364-.3-.546-.728-.728-.789-.607-.607-.3-.728-.425-.364-1.092v-2.245l-.3-.85-1.335-1.4-.546-1.76-.607-.667-1.4-1.092,1.7-1.578.425-.91-.182-1.4-.3-.425-.485-.485-.485-.364h-.364l-.061.789.3.546.485.425.243.3-.3,1.214-1.76.971-.182.91,2.367,3.4.364.607.971.607.364,1.335.243,1.517.364,1.092.3.485.607,1.274.364.667.425.3.607.243.546.364.364,1.153.425.425.485.3.364.364L591.882,132l.607.364.728-.121.667.061.425.728-.971.425.425.728.971.971.485,1.274-.364,1.214-.91.789-2.184.91-2.245.061-1.153-2-1.456-5.583-6.068-8.374-1.7-3.4-10.558-14.26-10.5-14.2-.3-1.092.3-.91,1.578-2.063.364-.971.061-1.335.364-1.274.546-.789.971.485.243-.607.061-.243.425.546.485.607.485.546.667.243.121-.364-.121-2,.182-.728,1.274,2,.243-1.032V81.518l.243-1.092.789-.789h.425l.3.243.3.182.546-.425.182-.364.3-1.214.789-1.335-1.7.546-.546-.182V76.42L567.61,76l-.182-.243-.546-.061-.182.3v2.124l-.485-.85-.789-2.731-.789.85.182,1.092.607,1.032.364.971-.3.971-.728.546-.91-.061-1.214-.728-.485-.061-.243.182.425,1.153-.3.243-.485.121-.425.182-.425.243-.3-.182-.546-.85h-.364l-.546.243-.91.728.425.85-.3.364-.607.243-.425.546v.3l.121.3.121.182.061-.061-.121,4.308-.182.485-.425.061-.364-.364-4-5.643-.546-1.517.243-.971,1.578-1.82h-.3l-.667-.061-.3.061.91-1.092.425-.607.243-.667-1.4.243-.849.91-.546,1.335-.425,1.456-.485-.425-1.456-1.7-.3-.607.425-.485,1.638-1.214.546-.667-.728-.243-1.335.789-.85.182-.789-.243-.667-.546-1.092-1.517L543.7,71.445l-.3-.789.061-1.092.667-.3.91.182.85.425,1.517-2.124.91-2.67.182-2.913-.667-2.852-1.456-3.58-.607-.971-2.852-2.852-.849-1.214-1.456-3.7L540,46.384l-.849-.425-9.527-12.682L527.744,31.7,523.8,29.272l.485-.425.3-.425.485-1.092-.121-.425-.061-.91.243-.607.789.546,1.032.607,2.731.121,1.153.667.607-.607,1.456-.364,1.456-.91,5.279.485.85-.182.485-.425.485-.546L542,24.6l.728.789-1.335.85-.364,1.153.061,3.034-.121.789-.182.425-.364.3-.789.061-.182-.3-.182-.667-.364-.728-.667-.243.061-.3.182-.607.061-.3-.91-.3-.364.061-.364,1.456-.121,1.214-.364.364-.789-.485v.607l-.182.425-.3.364-.425.243.425.485,1.517,1.092.121-.607.243-.546.3-.364.546-.061-.243.85-.121.364-.243.364.485.364h.485l.364-.243.243-.546.3.667.061.728v3.277l.182.364.425-.364.546-1.335.121-1.7-.3-1.578-.728-1.214,1.274.607.667,2.791.485,3.277.485,2.245,1.517,1.76,1.942,1.7,1.578,1.942.425,2.367-2.245-2.731-.971-.789.182,2.063,1.942,2,6.25,3.641-.182.667-.971,1.214-.3.485-.121.607-.061,2.367.121.3.3-.061.546.061,1.517.425h.364l.364-.546.182-.667.243-.546.667-.3.607-.667-.121-1.638-.667-2.731.3-1.274.849-.364,1.153-.182,1.092-.728.3-.728-.061-.667-.243-.546V47.78l.546-.546h.364l.3.425.243.667v.546l-.061.485-.243.971,1.4-.728.546-.121-.243.607.121.485.667.85-1.881.85h-1.942l-.485.182-.3.91.243,1.092.485.971.425.728.607.91.789.728.91.546,1.032.182,2.306-.3.85.3.91,1.214.485-.971.121-.243-.485-.667-.607-.546-.485-.667-.061-.91.485-.971.607-.061.667.607.485.85.546-.546.667-.121.546.3.485,1.274.667.3h1.4l.182-.121.121-.3.182-.243.364-.121.425.121.061.3v.364l.121.3.243.425.121.364.182.3.425.121.364.061.3.061.607.3-.607.3-.243.485-.182.607-.243.546-1.092.789-.425.485.061.485,1.578,1.4,1.032-.061.182-.243-.061-.364v-.546l.971-1.942.061-.364-.121-.85.061-.3.3-.3.789-.121.849-.485h.728l1.335.061-.121.3.425.667.789.971,1.881,1.456.728.91.3,1.4.607,1.032,1.517.243,2.67-.3,1.153.3,1.153.789.85,1.214.425,1.4-1.942.607-.546-.182-.182-.546v-.607l-.243-.607-.243.121-.364.243h-.485l-.546-.789-1.153.667-.485.364.485.364.85,1.335-1.578.243-.121.789.728.607.971-.425.485.3.485.121.485-.121.485-.3.607.85-.121.789-.364.728-.121.728.3.728,1.76,1.82.243.546.182.667.061,1.517.182.182.3-.607.3-.91.182-.789.91.485.485.243.546.061-.121-.3-.121-.607-.121-.243.728-.061.364.3.3.364.364.182.425-.243.121-.546-.182-.607-.364-.243-1.032-.061-1.335-.364-1.153-.607-.425-.91.3.425.667-.667,1.092-.061,2.367.3-.243-.546-.121-.243.485-.061.667.121.485.182v.182l.485-.3.061-.243v-.243l.243-.546,1.274-1.4,1.456-1.214.364,1.456L602.2,72.84l-.607,1.153-.3,1.335.364,1.335.789.607,1.032.121,1.032-.061v.364l-.425.789,1.4,1.76-.667.607-.3-.182-1.274-1.4-1.456-1.153-.485-.425.789,1.274,1.7,3.823,1.092.85.91.061.971.243V83.7l.121-.121.182.061.243.182.121.485.121.121.425.425,1.092,2,.243.667-1.82.3.182.667,2.488,2,2.245,2.427.425,1.335L612.21,96.2l-.728-.425-2.124-.3-.85-.061-.485.3.789.667,1.76.971-.243.061-.667.364,1.214.3.485.182.182.485-.182.607-.364.425-.546.243-.485.121,2.731,1.7.485.667v.667l-.3,1.4.121.546,1.092,2.124-1.274.364-.91-.607-.91-.971-1.032-.728.3-1.032-1.335-.425.061-.91-.728.061-1.153.485-.728.182-.3-.061-.485-.546-.3-.121-.3.182-.243.789-.243.182-.728.061-.121-.121.182-.485v-1.032l-.121-.85-.243-.667-.364-.667-.546-.607L602.38,101l.182,3.155-.121.971-.243.546-.061.789.121.728.3.425.728.121.425-.485.3-.728.3-.667.85-.121,3.155.364.971.364.789,1.032-.182,1.092-.789,1.153-1.092,1.092.789.789.182,1.4-.061,1.517.061,1.032.546.728,2.124,1.578.85.485.607.061h1.153l.546.3.425.728-.061.546-.243.485-.121.667.182,1.335.546.728.667.546.243.243Z" transform="translate(-187.991)" fill="#7c7c7c" stroke="#fff" stroke-linecap="round" stroke-linejoin="round" stroke-width="2"/>
    <path id="Taranaki" d="M659.22,442.287l-.789.485-1.032.364-.243.243-.182.243-1.032,2.124.485,2.306,1.214,2,1.638-.728.728,1.4-.121,2,.485,1.7,1.032,1.153,1.881.425.728,1.517V459.4l3.095.728.91.85.485,1.032-.546.364-.789-.243-.546.182-3.944,5.158-.971,2.124-.789.364-1.092.182-1.335,1.456-.728,2-.485.849-.121.85,2.124,1.517.91.485.243.91-.182.607-.3.546.061,1.335.425,1.274,1.335,1.76,2.184,1.881.667,1.881.425,1.82-.728,2.731-.061,2.791.425.485.3.607-.849.789-1.092.3-.485.243-.182.425V498.9l.121.85-.789.971-1.032.364-1.4,1.092-1.153,1.4-1.153.728L656,505.333l-1.274,2.306-1.76.061-3.762-1.4-2.852-.3-1.214-.3-1.092-.728-4.976-4.733-.91-1.153-2.731-4.308-1.881-2-2.367-1.335-2.488-.85-8.01-1.274-2.67-.91-6.311-4.733-1.76-1.881-1.4-2.427-.91-2.791-.243-2.731.243-2.791.607-2.852,1.4-2.731,2.124-1.7,4.794-2.184,11.954-7.524,1.032-.3,6.25.425,2.245-.728,2.063-1.578,5.583-5.825.728-1.274.364-2.184.425-1.4.121-.789v-1.881l.182-.425,3.277,1.7,4.126.3.91-.3.667.182.607.485.849.971,1.274.85Z" transform="translate(-220.863 -162.59)" fill="#7c7c7c" stroke="#fff" stroke-linecap="round" stroke-linejoin="round" stroke-width="2"/>
    <path id="West_Cpast" data-name="West Cpast" d="M364.783,645.5l.182.607.667,4.126.425.91,1.517,1.335.425.728.425,1.092.364.789.546.607.607.485.546.789.121.789-.243.728-.546.789-.3.3-.485.728-.243,1.032.182,1.82.425.485.546-.061.91-1.335.364-.243h.425l.485.182.485.121,1.4-.3h.971l.607.243.607.546.243.667.243.667.243.546.364.546.425.728.364.425.425.243.546.182.607.364,2,2.124.607.485.607.243,2.367.728.85.607.425.485.121.425-.182.485-2.124,1.942-3.277,1.335-.485.425v.546l.667.789.121.364-.061.607-.121.728-.121,1.032v1.031l-.182,1.214-.546.91-.971,1.092-.789.607-.849.3h-.849l-1.76-.546-.546.061-.607.243-.728.425-.243.364.061.425.485.789v.607l-.182.728-.425.789-2.245,1.578-.425.667-.3.85-.546,2.549-.485,1.578-.546,1.4-.607.728-.728.425-1.153.425-.546.607-.182.789.121.85-.061.85-.485.364-2.367.364-.789.364-.789.425-.91.849-.425.667-.243.607-.121,1.092V708l.061.485.243.546.121.607.121,1.032-.121,1.578-.546,1.638-.425.91-1.153.971-.546,3.095.121.667.243.91.425,1.214.485.485.546.364.425.243.425.546.121.789v.849l.061,1.214.3.971.485.789.546.425.607.121,1.335-.243.728.3.3.546.364.789.243.485.243.243.3.121.364.364.425.243.485.121,1.153-.121.667.061.789.546.546.789.364,1.092.364,2.609.364,1.517.971,2.124.667.91.667.425.485-.121.364-.243.243-.425.182-.364.182-.364.3-.182.485-.061h.425l.849.121-.243,1.214-.182.607-.3.728-.607,1.274-.182.667-.243.728-.607.667-1.153.546-.91.182-1.335.607-2.367,2.124-2.913,2.245-.667.789-.485.971-.425.607-.971.971-.485.91-.546.667-2.063,1.7-1.274,2.549L357.2,761.7l-1.214.607-.85.3-1.4.121-.667.182-1.4,1.032-.91.789-1.092,1.638-1.092,1.335-.243.728-.182,1.214-2.852,1.76-2.427.728-.243.3-.182.667-.364,1.7-.546,1.7-.182.85-.243.789-.546.607-.667.425-2.366-.061-1.7.364-1.942.182-1.76.485-.364.061h-.243l-.3-.243-.485-.121-.607.061-1.7.667-.971.728-.728.425-.85.182-1.578.121-1.881.789-1.092.789-2,2-.607,1.153-.3.971-.182.728-.546.667-.91.546-3.7,1.214-.971-.121-1.82,1.153-2.913,5.1-1.76,1.153-4.672,2.427-8.192,6.553-4.551,5.1h-1.214l-.789-.3-1.578.243-2.245.91-6.311,3.641-4.672,1.638-1.456.91-3.641,3.277-1.214,1.456-.728,1.4-.667,1.638-1.214,1.76-1.214,1.456-.91,1.76-1.032,1.092-1.274,2.306-7.282,6.068-1.578,1.881-1.638,1.578-2.488,2.973-1.4-.789h-.85l-1.214.182-.789,1.153-.667,1.335-.91,1.274-1.4.728-1.7,1.214-1.942.971-1.578,1.214-1.82.971-1.517-.425-1.214-.667-.789-.607-1.4.061-1.76.971-2.913.425-2.306-.121-1.942.3-2.184.971-2.184,1.82-.485.667-.546,1.153-1.638,2.063-1.638.971L207.2,864.8l-.85,1.092-.485,1.4-.3,1.274-1.153,3.155-1.032,1.638-1.76,1.881-1.335.789-3.034.425-9.163,4.43-5.825.667,1.335-5.279.364-1.092.425-1.517-.607-1.153-.485-1.335-.971-1.4-.91-1.092-1.578-1.092-1.638-.728-2.367.121-2.549.85-.425-.546L171.7,866.8v-.425l2.184-.789.91-.546,1.7-2,2.913-2,1.82-1.82,1.578-2,.061-.364v-.667l.182-.849.364-.789.485-.485.546-.485.546-.3.485-.243-.3-.182-.91-.728.91-.485.91-.3,2.913-.182,1.7-.364,1.578-.849.971-.667.425-.485.667-.364,1.214.121.364-.182,1.153-1.092.789.425.728,1.153.971,1.032,2.245.364,2.67-.85,2.549-1.638,2.791-2.852,2.184-1.456.91-.91.789-.607,2.973-1.638.789-.667.243-.546V838.4l.182-.546.364-.364,1.274-.789.425-.182.91-.485,1.76-2.124.85-.485.91-.364,3.4-2.306,2.367-.789,1.274-.667.546-.971.182-.485.546-.546.546-.425.485-.121,1.274-.121.364.061.425.061.425-.061.546-.364.667-.728,1.881-.546,1.578-1.214,1.881.425,1.032-.121,2.427-1.942.971-.243.728-.546,1.578-2.427.728-.789.243-.728.061-.789.91-1.153,1.214-.243.546-.607.061-.849.3-1.4.971-1.214,1.032-.849,6.189-3.095.607-1.032.425-1.7,1.032-.364.667-.607.425-1.032.364-.91.485-.425,1.092-.485,1.214-.849.667-.3.728-.182.546.182.971.607.546.182,3.034-4.854-1.456-.3-1.214,1.274-1.032,1.7-1.092.789.91-2.791,1.578-1.881,1.214-.91.425-.971v-.485l3.459-.243,1.032-.485.364-.425-.364-.546.85-.667.607-.971.728-.546,1.032.425.121-1.032.546-.243.3-.485,1.82-1.153,4.187-1.517,1.82-1.456,1.517-.243.728-.061.485-.061.425-.485.546-.728.546-.425,1.7-.85.849-.971,1.638-2.427.85-.546.789-.667,4-6.978.607-.607.485-.182.91-.425.849-.607.364-.789.667-1.214.485-.546.485-.243.728-.485.789-1.153,1.153-2.245.85-.485,3.337-6.917.971-1.153.485-.91.121-2.063.3-1.456,2.306-3.519.971-2.852,1.274-9.345.85-2.306.182-1.4.485-1.578.243-.485,1.578-1.942.667-1.153.485-1.4.789-4,.667-1.214.425-2.063.971-2.367-.3-.728-.364.485-.182-.485-.061-.3-.061-2.973.728-.546,2.791.425,3.277-.485.849.061h.364l2.306-1.032,4.43-2.852,1.153-1.4.425-.3.667-.182.667.121.425-.121.364-1.456.364-.425.425-.3.485-.425.667-1.092,1.7-3.884.243-.3.243-.061.121-.243.121-1.274.061-.121.121-.121.243-.182.364-.607.243-.546.182-.728v-.728l.546-.91,1.274-1.032,1.335-.91.971-.364-.182-.546v-.607l.061-.607.667-1.214.061-.728.061-1.335.121-1.517.243-.607.425.182.243-.061.425-.3.546-.243.546-.061-.91-1.76-.243-.728-.425-6.857.121-.789.425-1.4.061-.607-.3-3.216v-6.735l-.243-1.881V652.3l.425-.485.546-.061.425-.121.3-.425.607-1.214,1.153-1.456.182-.364.061-.667.121-.243.3-.364h.607l.3-.182.182-.243.121-.425.182-.364.3-.182h.121Z" transform="translate(-49.544 -244.14)" fill="#7c7c7c" stroke="#fff" stroke-linecap="round" stroke-linejoin="round" stroke-width="2"/>
    <path id="Otago" d="M245.769,978.589l.364,3.641-.546,1.578-1.214,2-.789,1.76-1.032,1.274-1.092,1.82-.607,1.274-.971,1.517-.121,1.4v11.833l.121,1.638.3.971,1.456.607,1.335,1.214.728,1.7.728,4.308.91,1.274,1.032.607,1.335-.182,1.274,1.76,2.609,2.791,3.459-.425,1.517.667,1.4,1.82,1.092,2.367,1.517,4.733,1.638,3.944,1.4,2.245.971,1.274,1.456.789,3.337.243,4.126-.91,1.76.121.91.607.546,1.274-.121,1.456.243,1.82.485,1.7,1.032,1.7.971.971,4.551-2.67,7.282-6.735,1.638-.849,1.881-.485h1.82l3.944-1.092,8.313,2.306,4.915,2,2.184.425-.425.971-.182,1.031-3.155,5.947-5.218,5.4-2.488,5.522-1.153,4.733-.607,1.4-.546,1.7.607.789.849.789-.121,1.517-1.7,2.063-.425.91-.061.728.182.728.121.849-.607,1.214-1.335.91-.971,1.032.364,1.638-.546.789-.607.364-.607-.061-.789-.607.061.728.121.667.425,1.274-.789.789-.607.243-1.638-.061-.971.364.061.667.667.667,1.032.121-1.092,2.427-.364.364-.485.182-.607.364-.971.849-.364.121-.3-.121-.243.061-.061.607v.607l.061.364.182.121.425.061.667.243.667.425.607.061.607-.728.85.728,1.214.667.971.667v.91l-.85.607-2.245.485-.91.485-.91,1.456-.364.425-.425.182-.485.121-.485.243-.607,1.7-1.7,1.153-.485,1.153.91-.485,1.638-.425,1.456-1.274,2.124-.849.607-.607.728-1.517.546-.789.667-.425.546-.182.546-.3.485-.91.485.849.182,1.031-.121,3.641-.425.91-.667.3-1.032.121-.971-.061-.182.061-.485.425-.243.425v.485l-.061.364-9.709.971-3.944,1.4-3.519,2.548-2.67,3.944-.728,1.578-.182.789-.182,2.063-.425,1.214-.061.607-.364,1.456-.85,1.274-1.032,1.031-.971.667-2.488,1.032-1.153.728-1.032,1.214-.789,1.274-.91,1.031-6.432,4.612-1.638,2.306-.607,3.519.121,1.82-.243.667-1.335.546-1.092.91-.364.243-.789-.121-1.578-.667-.789-.121-.789.121-1.4.607-.728.182.728.3,3.762.182-.91,2.367-1.517,1.031-1.638.667-1.578,1.335-.667-.121-1.214-.485-1.274-.3-.971.425-.607.546-2.488,1.517.3.3.425.789.3.364-1.274.364-1.578-.485-1.456-.061-.85,1.578-.971-.789-.3-.182-1.638-.243-.789.061-.667.425-.91,1.032-.607.425-.546.182-1.638.243-.607-.121-.607-.607.182-1.4-.121-.789h-.121l.182-3.641.789-1.456.546-1.76-.061-1.335-1.881-2.67-.243-1.456v-1.76l-.364-1.82-.607-1.7.364-2.063.667-1.7.3-1.942.121-4.369-1.517-3.762-.546-1.82.121-1.76-.546-2.306-1.274-2.245-1.214-1.76-.425-2.124-.061-2,.243-1.881-.243-1.7-.607-1.456-1.335-1.274-.789-.91-.243-2.306-.243-1.4-.121-1.214v-1.82l.3-2.184.728-2.913,2.852-5.947,3.277-8.616,1.942-1.82-.789-2.852-4.308-4.794-1.7-.971-2.063,1.092-5.158,7.524-2.063.971-1.82-.3-1.578-.667-1.153-2.306-2.973-4.308-1.335-3.337-1.092-.546-8.192,3.762-3.095.243-1.82-.061L182,1065.6l-.667-2-.061-1.82-1.456-3.155-.789-2.245-.243-1.942,1.7-5.582-.121-1.274-2.609-1.214-1.335-1.214-1.274-1.76-.91-2.063-.485-2.124-.243-2.488.971-2.548.789-5.279-.182-2.366,1.214-4.915.91-2.427,1.638-2.852,1.578-2,1.517-1.092,1.032-1.032,5.825-.667,9.163-4.43,3.034-.425,1.335-.789,1.76-1.881,1.032-1.638,1.153-3.155.3-1.274.485-1.4.85-1.092L209,994.426l1.638-.971,1.638-2.063.546-1.153.485-.667,2.184-1.82,2.184-.971,1.942-.3,2.306.121,2.913-.425,1.76-.971,1.4-.061.789.607,1.214.667,1.517.425,1.82-.971,1.578-1.214,1.942-.971,1.7-1.214,1.4-.728.91-1.274.667-1.335.789-1.153,1.214-.182h.85l1.4.789Z" transform="translate(-50.251 -374.802)" fill="#7c7c7c" stroke="#fff" stroke-linecap="round" stroke-linejoin="round" stroke-width="2"/>
    <path id="Southland" d="M91.634,1209.572l-1.092.364-.364-.85.546-.971,1.153-.728,1.032-.121.485.91-.607.546-1.153.849Zm11.59-3.823.667.182.425-.061.182.607-.182.243-.121.061v.3l-.364.3-.425-.061v-.607l-.243-.243-.182-.3Zm-13.41-2.306-.364.728.061-.3-.061-.425-.061-.364.243-.243.182-.061.061.243v.182l-.061.243Zm39.138-16.141-.3.121-.546-.243.121-.485.364-.3.364.485v.425Zm-25.728-8.434-.728.243-.607-.243-.3-.91.182-.91.546-.425.728-.121.607.182.607.546-.485,1.153-.546.485Zm40.9,0-.425.667.182-.728-.3-.607-.485-.667-.425-.849.728-.061.728-.3.485-.607.3-.91.728,1.517-.546,1.456Zm-28.277-6.25.91.728.789.971,4.187,5.886.667.728.789.546.607.607.3.971.546.182,1.092.607.546.849-.91.91.971.485v.425l-1.153.425-4.248-.425.3-.91-2.609-.121-.91.485.485,1.274-.121.789-2.306,3.216,1.214-.121,1.578-2.124,1.032-.546.485.182,1.274.971,1.214.364,1.82.789-.182.485-.121.364-.243.3-.364.243v.425l.546.061,2.488-.91.607-.061.607-.364.364-.121.182.243.121.546.364.546.425.364.364.182-.243.667-.3,1.7-.121.485-.485.3-.546-.061-.546-.182-.667-.061v.485l2.124,1.4.607.728.121.425-.364.182-.485.121-.364-.061-.243-.243-.364-.849-.364-.3-1.032-.061-.243.485.3,1.7-.546.3-1.578-.667.546,1.031h-3.519l-2.913.546-1.153.546-2.913,2.731-.85,1.153-.667.485h-.789l-.85-.425-.607-.546-.728-.425-1.7.3-.546-.061-.485-.849-.3-.971-.364-.546-.971.91-.789.243-.364.182v.3l-.3,1.638-.728-.546-2.427,1.942-1.335.485.789.91,1.456-.243,2.852-1.153-.546,1.335-.546.91-1.456,1.578v-1.7l-.546.061-.85.849-.667.971-.85.485-1.578.364-1.578.121-.971-.3-.243-1.335.3-1.76.546-1.638.546-1.092.485-.425.91-.182.91-.728,1.638-.849-.789-.546v-.607l.3-.728.243-.849-.061-1.031-.182-.85v-.728l.364-.971.485-.667.485-.485,1.092-.728.789-.3.607.182.546.3.607.061.85-.91-.182-1.638-.364-1.82.182-1.517.607-.364h1.4l.607-.546.728-1.335.3-.728.121-.971-.243-1.517-.667-1.456-1.578-2.427-.243-.728.182-.607.364-.485.182-.546v-.425l-.121-.3-.121-.3-.243-.364-.182-.485.061-.364.243-.364.061-.364.243-1.942.667-.971,1.032-.364,1.456-.061,1.214.485.728.121.607-.364.667-.667.546-.121,2.184,1.153Zm-48.18-9.223.061.425-.607-.728-.425-.546.667-.061.3.061.061.3Zm42.9-7.221-.182.182-.364-.425-.485-.061.121-.182.607-.061.182-.182.121.364v.364Zm-57.646-21.663-.425.243-.182-.182.061-.243-.121-.728.061-.91.607-.667.728-.182.667.364.243.546-.3.546Zm-4.126-5.218-.243.425-.243-.182-.667-.91v-.425l.243-.364.425.061.425.243h.3l.121.121-.243.364-.121.667Zm.546-1.881-.121.061-.607-.243-.061-.364.121-.364.121-.061.3.121.243.364v.485Zm1.76-2.67-.91,1.092h-.425l-.546-.243-.121-.182.121-.243.243-.3.061-.3.061-.121.789-.3h.243l.182-.121h.364l.121.364Zm8.981-16.2-5.1,1.942-.364-.121-.243.121-1.335.182-.243-.121v-.121l-.182-.121.182-.243,1.032-.182.607-.607,1.214-.061,1.76-.849,2.245-.182h.3l.243.182Zm-12.379,1.4-.91.061-.243-.3v-.243l.182-.607.971-.3h.728l.425-.364.667-.061.667.3v.364l-.546.3-.546.121-.667.364-.728.364Zm15.291-1.092H61.841l-.728-.364.243-.243-.364-.182v-.364l.485-.546.546-.3,2.791.3.243.3.061.364-.243.182-1.881.849Zm-4.976-8.677.607,1.274.364,1.517.182,1.456-.182,1.456-.546,1.092-.85.607-1.032.121-.121-.364-.3-.667-.364-.3-.364,1.214-.364.243H54.62l-.364-.121-.243-.667-.243-1.335-.182-1.335.061-.789-.667-1.274-.789.121-2.913,3.459-.728.546-1.032.3.243-.849.485-1.214.546-1.092.546-.485.121-.182.546-1.032.364-.971.546-.182,1.153.061,3.762-1.335.85-.061.425.121.91.667Zm14.2-21.723-1.578.3-.607-.182-.85-.849-.728-.485-1.032-.364-.91-.485-.364-.91-.546-.849-.061-.485.425-.243-.061-.3.3-.607,2.852-4.551v.3l.061.182.121.182.121.243.425,2.367.667,2.245,1.76,4.49Zm100.849,88.592-.546-.182-.425.485v1.517l-.546.485-.121.364-.121.3-.243.182h-1.456l-.789-.3-.485-.607-.364-.667-.3-.364-.607.121v.607l.121.789-.182.849-1.214.789-1.578-.425-1.638-.849-1.274-.425-1.517.061-.85-.121-.546-.85-1.214-4.248-.061-.667-.243-.789H156.2l-1.4.546-4.794.91h-1.578l.364-.728.607-.243.607-.061.667-.364-.91-.546-1.214-.3-2.306-.061.364.971.607.607.243.485-.607.728.182.182.3.546.182.182-2.549.85-8.01-.85.546-1.153.3-.364.364-.3.667-.243,1.7.061.546.182.485.789,1.335.243.85-.364-1.092-1.153-1.335-.546-4.066.061-1.881-1.214-.91-.182-.425,1.153.3,1.4,1.4,1.82.546,1.274-1.274-.243-1.7-2.063-1.032-.546-.182-.3-.061-.607-.3-.667-1.214-.425-.364-.364-.182-.607-.121-.789,1.456-.425h.485l.485.182.121.182v.3l.182.485.3-.485,2.427-2.063.485-1.82-.364-2.184-.85-1.578h-1.214l.425,1.7-.485,1.578-.91.971-.971-.061-.546-.971-.971-2.791-2.488-4.672-.789-.849-1.274-.364-4.612.849-.667.364v.789l.121.789-.121.364-.667-.243-.789-.364-.789-.3-.607.243-1.4-.243-.91.061-.425.607-.243.728-.546.182-.546-.061-.485-.182-.667-.364-.364-.061-.3.121-.728.667-.3.121-.485-.243-.485-.425-.425-.667-.546-.243-.425-.607-.607-1.274-.485-.485-1.092-.607-.546-.485.607-.425.667-.243.546-.425.485-.789-2.427-3.216-1.153-1.942v-1.335l-.728-.667-1.881-.182-.971-.3-2.184-1.456-.667-.182-5.34-.607-.425.182-.243.425-.061,1.153-.182.485-.546,1.092-.182.91-.061.91-.3.971-.607.849-.728.182-1.578-.121-.728.3-1.456.91-.667.243-.91-.121-1.942-.728-1.032-.061-.728.182-.425.243-.243.243-.364.182-.243-.243-.182-.425-.182-.182-.546-.121-2.973-1.456h-.85l-.789.182-.789-.061-3.155-.849-6.432.121-3.155-.546-2.609-1.942-1.4-1.881-.243-.667.3-.425,1.335-.607.485-.364,1.76-2.063,1.578-2.306,1.335-3.095.728-1.4.971-.607,1.4-.3,2.124-1.82,1.153-.667v-.425l-1.032.121-2.852,1.76-2,.728-1.092.667-.728.85-.121.728.061.546.182.425-.121.607-.182.182-1.456,1.578-.061.3-.121-.061-.425-.546.061-.364.182-.485v-.607l-.546-.485-.607,2.124-1.456.849-3.4.789v-1.214l.121-1.031.425-.546.728.485.182-2.184.546-1.456.85-1.031,1.335-.849,2.791-.728,1.214-.546.789-1.517-1.578.789-1.638.546-.667-.061-.85-.243-.728-.425-.121-.425,2.549-3.095.425-.728.061-.485-.485-.546-.485.061-.546.425-.425.485-.182.3-.182.485-.182.425-.061.425-.85.607-.3.3-1.274,2.063-.182.667-.667.728-4.43,1.335-.607.425-1.092,1.214-.364.243-.364-.364-.364-.789-.243-.849v-.546L46,1122.8l-.061-.91-.243-1.335v-6.068l.3-1.517.789-.667,3.034-.485h3.216l-.364.485.364.485,1.153-1.031,1.4-.364H58.5l1.153-.243,2.488-.971,1.274-.182,1.4.243.667-.061.485-.425.425-.485.425-.425.971-.728,2.245-1.031L71,1106.3l.607-1.4-2,.85-.728.121-3.337-.425-4.369,1.274-1.092-.364.85-2,.546-.667.85-.607,2.488-.728.728-.607-4.551.667-.789-.243-.3-1.578v-1.517l.546-1.092,1.092-.425,1.214-.243,2.367-1.274,1.4-.243,2.427.91,1.274.061,1.032-.971-1.578.061-.728-.3-.546-.728,3.034-.971,1.335-1.032.425-1.638-6.25,3.277-3.823.789-2.549,1.456-.546.061-1.032.3-.485.061-.85-.121-.364-.243-.607-1.214v-1.031l1.76-3.762.85-4,.485-1.031,2.063-1.153,2.306.971,2.245,1.517,2,.485-.546-1.578-.728-1.7-.728-.546-.546,1.517-.85-.728-1.881-.91-.789-.607-.607-.789-.182-.728.3-.85.607-1.092,1.578-1.7,1.032-.789.485.243.364,1.092.85.849,1.942.971-.425.3-.364.425-.3.485-.182.667,1.517-.182,1.335-.607,1.214-.121,1.335,1.335.364.607.182.607-.061.667-.485.849-1.214.971-.485.607.425.3,1.578-.121.607-.364.607-.667.3-.85.182-.91.3-.364,1.274,1.214.607.364.485.546.3,1.578.85,2.245.182-.182.121-.243.364.3.607.3.3.3-.243-2.184-2.427-3.155-4.733-4.733.667-.91.789-.485,4.794-1.4.85.061.485.546.789,1.578.667.607.85.3.971.061.85-.425.546-.849-.789-.243-1.638.121-.667-.485-.425-.728-.121-.3.061-1.274.3-.728.364-.3v-.061l-1.76.061-1.76.789-1.214.364-3.762.364-.85-.485-.061-.849-.425-1.335-.3-1.335-.85-.728-.182-.728-.182-2.973.364-1.092,1.032-.728,1.4.061,1.092.789,1.82,2.549.546.425.789.3h.728l.364-.485-.243-.425-1.7-1.4-1.7-2.245-.971-.849-1.153-.061,1.82-3.034,1.153-1.153,1.032.3,1.76,2.973.121.971-.061.849.061.728.546.607.243-.91-.182-1.335.243-.485.728-.364,2.791.364-.667-.85-2.67-.971-.971-.667-.789-1.092-.546-1.092-.121-1.092.667-1.031,1.092-.425,1.214.364,1.274.607,1.214.364.971.485,1.153,1.031,1.032.546.667-.728-.85-.243-5.643-3.277-.546-.546.182-.971.789-.91,2.367-2,.728-.425.91-.182,1.092-.061-.243-.3-.425-.728-.243-.3,3.58-2.184,1.517-.061.667,2,.121.3.364.364.3.485.121.667-.121.607-.425,1.274-.061.607.364.91.546.667.364.849-.3,1.214,1.7.182.85-.121-.182-.728-.182-.364-.182-.485-.061-.485-.061-.485-.121-.425-.971-.971-.121-.667.121-.91v-1.092l-.3-.91-.364-.728-.667-2.124-.121-.789.546-2.245,1.4-1.456,1.7-.243,1.456,1.456.364.849-.121.485-.425.485-.425.91-.243,1.214.182.971.425.789.85.607.121-1.456.364-.971.485-.91.364-1.153-.061-1.335-1.214-1.4-.3-1.153-.546-.85-.121-.485.91-.485.485-.425.485-.3.546.364.85,1.274.789.789.85.485,1.214.364-.789-.485-1.76-2.185-1.214-1.092-.182-.728.364-.91.728-.607,2.488-.728.364-.425.364-.91.243-.425.3-.182.789-.3.364-.243,1.335-1.456,1.335-.607,1.4.364,2.063,1.881,1.578.91.607.728,1.456,2.852.3-.728.121-.971-.121-1.031-.3-.849-.243-.243-1.092-.607-1.214-1.4-.3-.182-.243-.061-.182-.121-.243-.485-.121-.485.121-1.76-.3-1.942-.3-.971-.364-.728,1.092-1.638,3.883-4.43,1.335-1.214,1.7-1.153,1.153-1.517-.182-2.124h4.187l.425-.243.546-1.153.061-1.032-.182-.182,2.549-.849,2.367-.121,1.638.728,1.578,1.092.91,1.092.971,1.4.485,1.335.607,1.153-.425,1.517-.364,1.092-1.335,5.279-1.032,1.031-1.517,1.092-1.578,2-1.638,2.852-.91,2.427-1.214,4.915.182,2.367-.789,5.279-.971,2.548.243,2.488.485,2.124.91,2.063,1.274,1.76,1.335,1.214,2.609,1.214.121,1.274-1.7,5.583.243,1.942.789,2.245,1.456,3.155.061,1.82.667,2,2.306,1.214,1.82.061,3.095-.243,8.192-3.762,1.092.546,1.335,3.337,2.973,4.308,1.153,2.306,1.578.667,1.82.3,2.063-.971,5.158-7.524,2.063-1.092,1.7.971,4.308,4.794.789,2.852-1.942,1.82-3.277,8.616-2.852,5.947-.728,2.913-.3,2.184v1.82l.121,1.214.243,1.4.243,2.306.789.91,1.335,1.274.607,1.456.243,1.7-.243,1.881.061,2,.425,2.124,1.214,1.76,1.274,2.245.546,2.306-.121,1.76.546,1.82,1.517,3.762-.121,4.369-.3,1.942-.667,1.7-.364,2.063.607,1.7.364,1.82v1.76l.243,1.456,1.881,2.67.061,1.335-.546,1.76-.789,1.456-.182,3.641Z" transform="translate(0 -387.582)" fill="#7c7c7c" stroke="#fff" stroke-linecap="round" stroke-linejoin="round" stroke-width="2"/>
    <path id="Waikato" d="M730.417,229.981h-.849l-.364-.121-.546-.3-.121-.182.061-.243.121-.243.061-.182.061-.182-.061-.182-.061-.182-.3-.243-.364-.121-.364-.243-.243-.607,1.274-.425.3.485.485,1.517.546.061.364.243.3.364.243.546-.3.182-.243.061Zm5.765,43.325-1.881.728-.243,2.245-.971,1.578-.849.364-.182,1.032,1.092.971-.121.728-1.517-.425-1.4-.789-.546.85-.364.91.607.728.485,1.092-.364.91-.121,1.4.789,1.638.061,1.7.91,2.124,1.153,1.881,1.638,4.066.607,4.794.364.728,1.274,1.638-.061,1.274-.364,1.4.728,2.488.546.971.728.182.789.061,1.578.728.485,1.638,1.092,1.032,1.4.85,3.337.546,2.063,2,.728.91-.061,1.335.607,2.488.425,2.488.607,1.638.789,1.335.485.971.546.728,7.1,3.216,1.214,1.153.485,2.306-1.092,4.733-.91,1.638-2.791-1.335-.85.607-.3,1.214-.546,1.335-1.032.485-1.153-.061-.667-.485.121-.607.3-.728.728-.789.3-.485.061-.728-.182-.728-.485-.485-.607-.243h-.667l-.425.243-.728.667-.425.3-.728.3-.789.121h-1.578l-.243-.243-.971-1.214-.971-.546-.85-.849-1.214,1.274-.546.728-.425.91-.667.182-.667.121-.425,1.335.485,1.274,2.67.728,3.883,1.578.728.85-1.092,2.609-.546,2.367,1.881,2.184,1.032,2.245-.85.91-1.032.364L744.5,356.5l-.971-.061-.425,1.4-.3,1.942.546.85,1.153,2.427,1.335,2.245,1.214,1.153,1.456.3,1.092-.607.789.789.91,5.461-2.184,3.7L746.8,379.01l-1.274-.425-2.731.971-3.519-.121-2.063.243-.243.182-.121.364-1.274,1.517-1.881.667-.546.728-.3.789-.485.789-.364.91-.243.971-.546.728-1.82.91-1.942-.243-4.248.061-4.066-1.214-.182-2.366,1.092-2.184.971-2.549.607-2.791-.425-1.214-.607-.971.3-1.4.789-1.153.789-1.7v-1.274l-1.517-.121-1.517.243-1.638-.971.364-2.184.425-.728-.121-.971-.91-1.092-.243-1.456.85-1.7v-1.7l-1.335-1.153-.85-1.638,1.638-2.609,1.031-2.488.607-2,1.335-1.517.728-1.7-.607-.667-1.335.85-1.4.485-1.942-.91-1.578-1.092h-2.913l-2.791.667h-1.092l-.789-.728-.971.667-.243.667-.061.667-.485.182-.607.364-.789.667-1.881,1.032-1.153.182-1.82-.364L696.922,348l-.485.364-.425.3-.485-.243-.546.121-.971.789-1.092.546-2.913.546-.364.789.182,1.092-1.153,1.942-.121.546.061.485-1.76.607-1.638,1.032-1.274-.85-.85-.971-.607-.485-.667-.182-.91.3-4.126-.3-3.277-1.7.061-.182.728-.243-.3-1.032.121-.91.3-.91.182-1.032.121-10.316.364-2.245,1.638-3.762.607-2.063.364-2.306.243-3.519.425-2.124.061-1.214-.182-1.092-.425-1.092-.243-1.032.243-.849.728.364.85.121.91-.182.728-.3.061.667.243.546.3.485.3.3h.3v-.85l.728.546.546.789.667.425.971-.485-.364-.243-.971-1.032,1.274-.425,1.456.182,1.274-.121.849-1.274h-.849l-.364.121-.364.364-.364-.485.121-1.153-.91-.85L684.6,313.9l-.91.243-.364.667-.182.607-.3.425-.728.121-.485-.364-.061-.849.182-.971.182-.607.425-.667.425-.182.425-.061.607-.3,1.517-1.638.728-.546.061-1.153-.546-1.032-1.092-.121-.728,1.032-.425,1.4-.607.728-1.274-.91-.182-1.092.364-5.643,1.274-2.791,2.184-.789,2.67-.061,2.549-.364-.182-.546-.3-.364-.364-.243-.485-.061.667-.485.485-.667.182-.85-.364-.91L688,296.061l-.182.3-.182.667-.243.243-.182-.061-.3-.182-.3-.121-1.456.667-.789-.91-2.973-11.59-2.731-6.553-.485-2.67v-.667l.425-.728.546-.3,1.335-.364.546-.3.485-1.153.425-1.335.607-1.092,1.153-.485.121-.243-.243-.425-.485-.243-.667.364-.425.364-.91.607-.425.364-1.335,2.427-.667.3-1.032-.91L676.959,271l-.91-2.124,2.731-.425,2.791-1.881,4.066-1.274,5.036-1.274,5.279-1.274,4.308-.607.243-4.126,1.032-3.155.971-2.245,1.517.971,2.549-1.4.243.728.121.85V255.1l-.607,4.066.182,1.4.546,1.274.728,1.092.728.85,1.7.971,2.063.061,2.124-.546,1.82-.849.364-.364.182-.425.243-.3.667-.121.364.243.121.667v1.274l.243,1.153.607.728.849.121.85-.546-.728-.182-.485-.667-.3-.85-.182-1.881-.425-1.517-.121-.789-.789-1.76-.182-.85.061-3.095-.182-.728-.243-.485-1.092-3.58-.3-.667-.485-.667-.546-.607-1.214-.849-.485-.546-.243-.607-.182-.607-.243-.607-.607-.546,1.032-.364,1.092.182h1.032l.667-.971h-1.517l-.728-.121-.667-.364.607-.182.607-.121.485-.3.3-.546h-.425l-.3-.182-.3-.121-.243-.121,2.306-.667.789-.728-.243-1.4-.728.485-.243.3-.3-.607-.243-.546v-.607l.243-.607-1.031-1.76.3-1.578.607-1.4-.182-1.335-.425-.182-.546-.061-.425-.243-.243-.485-.121-.121-.85-1.214-.85-.485-1.7-.667-.789-.728-.425-.728-.243-.971-.121-2.245.425-.85h.91l1.153.243,1.578-.364.3.3.182.485.3.485.182.485.061.182.182.182.364.182.971.971.485.061,1.214-1.4.849,1.092.546,1.456-.061,1.517-1.032,1.153.971.789h1.092l.789.3.364,1.517.121,1.456-.121.789-.485-.243-.607-.546-.425.121-.182.546.3.667.485.243,1.4-.243.485.182.3.667-.182.607-.3.546-.121.607.3,1.7.667.182,1.881-1.517-.667-.3-.3-.061.364-.546.546-.182.667.121.546.364.546.3.667-.364,1.153-.91.849-.3.667-.061.607.243.607.728.546.061.607-.364.485-.061.121.971-.243.789-.485.182-1.335-.182-.243.3-.91,1.7-.607.425-1.153.485-.607.485-.728,1.032-.728,1.214.607.425-.061.425-.182.425.121.485.546.546.546.364.364-.061-.061-.607L726.9,244l-.364-1.881.607-.789.971.546,1.942-.425,1.092.91.182.667-.061,1.456.182.667.728.971.182.425.243.789.243,2.791-.121,1.881v.3l.061.607-.243.607-.425.667-.182.607.243.364.485-.3.546-.607.3-.485.849,1.092-.182,1.456-.667,1.578-.789,1.274-.061.546.485.182.607.121.425.182.121.728-.061,1.7.243.789-.425-.3-.364-.485-.243-.607-.243-.607h-.364l.243,1.456.3,1.274.121,1.032-.667.667,1.578.728.546.546.485,1.092.425,2.306.182,2.367.121.425Z" transform="translate(-246.854 -77.225)" fill="#7c7c7c" stroke="#fff" stroke-linecap="round" stroke-linejoin="round" stroke-width="2"/>
    <path id="Wellington" d="M685.935,650.587l-.728.243-.3-.121-.182-.3.121-.364.182-.3,1.456-1.517.243-.364.425-1.092.243-.182.364-.061.243-.061.425.243.121.3-.789,1.517-1.82,2.063Zm64.988-5.461-1.638,4.126-.728,2.913-.728,1.214-2.306.971-.971,1.092-.789,1.456-.546,1.274-1.517,5.643-.971,2.367L736,672.857l-7.16,5.886-1.7,1.82-2.366,1.7-2.731,1.456-10.255,8.131-3.216,1.274-.789.546-1.517,1.76-.789.364-3.58.3-.728-.425-.425-1.942-.728-.607.243-.91-.243-.728-.364-.607-.3-.789-.061-.85.728-4.672-.182-.667-.546-.425-5.583-2.184-1.274-.121-1.153.3-1.092.728-2.306,2.549-.425.3-.485.121-.789-.182-1.031-.789-.607-.607-.121-.546.607-1.153-.061-1.032-.3-1.153L684.6,678.2l.364-1.335L686,674.434l.182-1.578-.546-1.4-1.214-.364-1.4.243-.971.425-.728.607-.546.607-.364.789-.3.971,2.184.546.667.607-.3,1.456-.3.485-.425.425-.485.061-.546-.364-.485-.182-.546.425-.546.546-.607.3-2.184-.425-2.245-1.214-1.76-1.76-.425-2.184.546-1.214.85-.485,2.124-.425.789-.667,1.82-2.245,1.153-1.092,1.153-2.609.728-.607.971-.485.607-.667.485-.061.607,1.638.607-.607.243-.546v-.607l-.182-.849-.243-.121-.607-.789-.3-.789.364-.425.546-.243.789-1.153.546-.243.546-.182.607-.425.546-.546.364-.546.364-.789.121-.607.182-1.578.971-2.791.425-.91,2.791-3.034,1.214-2.124,1.456.061,4.854-1.032,6.068.121,3.519-.971.182.121,2.427.789,1.274.485,7.4-.849,7.221-1.092,9.1-1.274,6.311.243,4.248,1.032,1.456,2,1.578.85Z" transform="translate(-246.303 -242.371)" fill="#7c7c7c" stroke="#fff" stroke-linecap="round" stroke-linejoin="round" stroke-width="2"/>
  </g>
</svg>
