<svg xmlns="http://www.w3.org/2000/svg" width="163.23" height="193.576" viewBox="0 0 163.23 193.576">
  <g id="South_Island" data-name="South Island" transform="translate(-45.2 -181.524)">
    <path id="Canterbury" d="M375.483,763.787l-1.593,1.7-.584.982-.292.637-.106.557.027.849-.053.478-.186.266-.133.265-.159.372-.026.133-.4.5-.4.743-.4.4-.929.584-.425.425-.637,1.035-.106.106-.159.027-.292-.027-.186.5-.106.159-.212.212-.212.159-.159.212-.027.451.08.265.345.425.133.266-.133.212-.159.186-.425-.557-.212-.159-.319-.053-.265.08-.451.4-.212.08-.239.212-1.088,1.327-.4,1.062-.319,1.221-.478,1.009-.9.478v.212h.133l.106.053.08.08.106.053-1.593,3.451-.212.956-.319.611-.4.5-.637.319-.027.292.08.531v.318l.027.159v.159l-.159.345-.186.239-.186.106-.133.133-.053.4-.08.186-.186.186-.9.557-.212.08-.584.106-.85.425-.106.292-.08.318-.08.239-.186.186-.982.77-2.761.69-.69.319-.531.69L349.52,797.1l-.319.557-.451,1.168-.478.743-.106.239.053.4.159.345-.159.69-.08.717-.027,1.487-.133.159-.133.4.053.611.372,1.752.584,1.672-.053.451-.266-.318-.239-.053-.08.186.159.4.319.212,1.248.345-.584.266-1.354.106-.611.212-.531.5.239.212.557.08.451.159.425-.558.77-.186h.717l.345.053.08.425.186.4.186.239.106-.106.08-.717.186-.717.558.345.106.239.026.478-.053.77.08.186.265-.08.186-.212.159-.345.159-.292.265-.133.319.026.292.133.239.239.08.4.584-.664.239-.133.08.5.239.265.292.239.239.345v.212l-.053.239-.08.186-.027.133.053.186.186.292.053.133.08.77-.08.823-.159.8-.239.717-.266-.4-.5.664-.372-.08-.133.611v.186l-.186-.239-.159-.053-.186.106-.186.186-.08-.372-.266-.637-.08-.372v-.425l.08-.239-.053-.239-.212-.345-.133-.372.053-.425-.027-.345-.265-.133-.319.106-.133.292.08.319.239.266-.292.77v.77l.212.743.637,1.035-.08.053-.478-.08h-1.327l-.292-.159-.451-.584-.478.159-.239-.212-.425-.557-.8-.849-.026-.372.4-.531-.372.027-.557.266-1.672.265-.557.292-1.195.106-1.805.664-.823.133-.159-.106.08-.292.186-.212.265-.133.531-.08,3.079-1.088.319-.027.319-.106-.159-.212-.584-.372-.239-.053-.664.08-.345-.133-.133-.159-.265-.4-.159-.186-.531-.292-.531.106-.531.212-.584.133-.345.292-.186.717-.08.823-.027.69.053.425.053.159-.053.159-.239.345-.239.106-1.7.266-.239-.053-.425.159-.372.425-.929.319-.425.372-2.124,1.009-3.956,2.894-.611.106-.319-.053-.319.026-.266.159-1.513,1.088-.77.159-.319.133-.239.239-.212.266-.239.186-.584.186-.531.4-.212.106-.345.106-.372.451-.212.212-.133.239-.531.212-.239.186-1.274,1.354-.478.292-.425-.159-.292.212-.239.186-.159.319-.08.266-1.115,2.071-.08.319v1.646l-.106.531-.266.425-.611.717-.027.239-.027.345-.053.266-.239.133-.159.053-.611.345.451.584.106.982v2.15l.239,1.38.027.5-.106.531-.239.239-.265.159-.212.345.584.106.212.69-.027.929-.159,1.726-.212.584-.239.4-.186.4-.956-.186-2.15-.876-3.637-1.009-1.726.478h-.8l-.823.212-.717.372L302,849.827l-1.991,1.168-.425-.425-.451-.743-.212-.743-.106-.8.053-.637-.239-.557-.4-.266-.77-.053-1.805.4-1.46-.106-.637-.345-.425-.557-.611-.982-.717-1.726-.664-2.071-.478-1.035-.611-.8-.664-.292-1.513.186-1.142-1.221-.557-.77-.584.08-.451-.265-.4-.557-.319-1.885-.319-.743-.584-.531-.637-.266-.133-.425-.053-.717v-5.177l.053-.61.425-.664.266-.557.478-.8.451-.557.345-.77.531-.876.239-.69-.159-1.593,1.088-1.3.717-.69.69-.823,3.186-2.655.557-1.009.451-.478.4-.77.531-.637.531-.77.292-.717.319-.611.531-.637,1.593-1.434.637-.4,2.044-.717,2.761-1.593.982-.4.69-.106.345.133h.531l1.991-2.23,3.584-2.867,2.044-1.062.77-.5,1.274-2.23.8-.5.425.053,1.619-.531.4-.239.239-.292.08-.318.133-.425.266-.5.876-.876.478-.345.823-.345.69-.053.372-.08.319-.186.425-.318.743-.292.266-.026.212.053.133.106h.106l.159-.026.77-.212.849-.08.743-.159,1.035.026.292-.186.239-.266.106-.345.08-.372.239-.743.159-.743.08-.292.106-.133,1.062-.319,1.248-.77.08-.531.106-.319.478-.584.478-.717.4-.345.611-.451.292-.08.611-.053.372-.133.531-.266.584-.531.557-1.115.9-.743.239-.292.212-.4.425-.425.186-.266.212-.425.292-.345,1.274-.982,1.035-.929.584-.265.4-.08.5-.239.266-.292.106-.319.08-.292.265-.557.133-.319.08-.266.106-.531.584-.159.372-.239.372-.319.956-1.141.266-.584.557-1.566.053-.4.08-.292.159-.133.212-.053h.239l.239.053.133.08.319.053.212.133.345.876.372.212.372.08h.319l.4.4.265.08.106.372.08.451.212.664.239.345.053.4-.08.345-.053.4.159.292.345.159.372.133.372.186.239.584.265.372.159.345.133.212.8.664-.027.4-.106.425v.319l.212.212.345.106.292.133.531.531h.4l.266-.292.77-.478.4-.08.345-.265.372-.557.5-.557.4-.849.027-.345-.558-.4.266-.4.5-.5.664-.557,1.088-1.088.69-.372,1.885-.77.292-.319.133-.425.212-.425.053-.8.557-1.566,1.3-1.142.531-.318.4-.345.4-.106.478-.318.345-.292.425-.292.319-.292.345-.876.265-.292.372.133.292.319.212.345.186.159.239-.159.265-.239.4-.186,1.726-.372.345-.026.345.053.265.159.266.133.584.133.4-.026.292.026.212.106.106.159.611.743Z" transform="translate(-174.083 -541.86)" fill="#7c7c7c" stroke="#fff" stroke-linecap="round" stroke-linejoin="round" stroke-width="1"/>
    <path id="Marlborough" d="M560.944,650.207l-.159.345-.106.823-.159.292-.292.212-.372.027-.372-.053-.372.027-.266.159-.5.451-.212.133-.319.053-1.035-.053.106-.106.212-.212.08-.053.212-.027.5.053.186-.106,1.035-1.221.372.372.451-.186.319-.451v-.478l-.265.133-.239-.027-.212-.186-.133-.292.372-.027.266-.212.239-.212.239-.106.345.053.053.186-.026.319.053.372Zm-6.531,22.645-.611-.743-.106-.159-.212-.106-.292-.026-.4.026-.584-.133-.266-.133-.265-.159-.345-.053-.345.027-1.726.372-.4.186-.265.239-.239.159-.186-.159-.212-.345-.292-.318-.372-.133-.265.292-.345.876-.319.292-.425.292-.345.292-.478.319-.4.106-.4.345-.531.319-1.3,1.142-.557,1.566-.053.8-.212.425-.133.425-.292.319-1.885.77-.69.372-1.089,1.088-.664.557-.5.5-.265.4.557.4-.026.345-.4.849-.5.557-.372.558-.345.265-.4.08-.77.478-.266.292h-.4l-.531-.531-.292-.133-.345-.106-.212-.212v-.319l.106-.425.027-.4-.8-.664-.133-.212-.159-.345-.265-.372-.239-.584-.372-.186-.372-.133-.345-.159-.159-.292.053-.4.08-.345-.053-.4-.239-.345-.212-.664-.08-.451-.106-.372-.266-.08-.4-.4H527.6l-.372-.08-.372-.212-.345-.876-.212-.133.69-2.389,2.071-2.628.186-.531.239-1.46.212-.823.717-1.062.345-.425.08-.372.186-.425,1.221-1.062.85-1.062.584-.982,1.619-1.885.531-.876.929-.266.5-.053.4-.212.186-.425-.08-.611.026-.717.106-.584.026-.4.212-.69.5-.186.69-.478.929-.956,1.779-2.761.85-.823.637-.823.318-.531.345-.929.186-.876v-.69l.266-.133.345.159.318.345.212.478.027.531h.133l.106-.266.106-.08.106.08.08.266.292-.186-.266-.637.292-.318.531-.186.5-.265.159-.292-.027-.266-.159-.212-.265-.08-.77.557-.133-.08v-.345l.027-.159.318-.425.186-.159.451-.239.212-.159.212-.106,1.035-.159.106-.133.451-.717.5-.345-.08,1.248.5.133.08-.106.61-.637.053-.133.053-.345.027-.106.106-.053.319-.106,1.009-.557.159-.027h.239l.239.053.186.133.212.717-.345.106-.982-.265.133.372-.133.186-.186.186-.106.4-.239-.106h-.212l-.212.08-.186.212.133.159.026.106.08.053.186.053-.345.319-.664.212-.637.027-.292-.292-.319-.053-.584.08-.318.292.5.531-.292.186-.212.239.026.186.345.133-.08.345-.133.319-.186.266-.186.186.186.212.239.08.212-.159.08-.425.478-.69v-.133l1.354-.239.717-.053.531.292-.212-.027-.186.053-.106.159-.053.265-.08.266-.159-.027-.186-.106-.133-.026-.106-.027-.159-.106h-.106l-.053.212.027.106.106.159v.106l-.027.265-.08.133-.133-.027-.186-.08-.133.611-.292.186-.319.106-.239.4h.319l.372.159.318.292.133.372-.053.292-.186.611-.053.319-.266.319-.584.292-1.115.345.08.292.133.239.186.106.159.08,2.177-1.274.77-.212v-.186l-.319-.106-.266.026-.212-.053-.186-.239.876-.106h.425l.319.212.319.106.5-.053.478-.159.319-.186-.106-.08-.318-.319,1.195.133.611-.159.425-.5-2.283.053-.372.133-.053.08v.106l-.027.133-.186.026h-.239l-.08-.053-.106-.106.133-.372-1.088.478-.557-.027-.186-.823.106-.451.212-.239.266-.186.266-.239.053-.159-.053-.186v-.159l.133-.053.186-.027.106-.08.026-.186-.026-.265.717.159-.239.425-.053.425.133.849.345-.664.186-.531.265-.292h.611l-.345-.531-.08-.266.345-.557v-.4l-.159-.292-.345-.026-.133.266-.08.425-.133.292-.265-.133-.637-.69-.133-.319h.717l-.186-.345-.026-.266.159-.106.319.159.026-.584.345.159.743.77.451.319.425.133.372-.133.319-.478.345.345.345-.159.186-.425-.053-.5.292.106.319.292.265.425.106.372v.318l-.026.212-.106.08-.425.08-.106.106v.186l.106.239.372.319.4-.133.345-.372.425-.557.823-.823.292-.106.159.345-.159.451-1.062,1.7-.106.266-.026.531-.08.239-.053-.08-.292.159-.239.212.027.08-.08.053-.186.133h-.186l-.106-.292v-1.115l-.053-.106-.133.186-.159.319-.053.266-.319-.133v.239l.159.345.159.292.425.451.133.239.133.425-.106.053-.239.08-.08.026v-.053l-.425.266-.159.186-.106.159-.159.159-.265.053h-1.088l-.531.159-.345.4-.239-.159-.239-.053-.212.106-.159.292-.319-.133-.372.106-.372.239-.266.266-.08.319h.478l.584-.186.212-.133.451.159.292-.133.292-.265.372-.239.212-.027.239.08.212.026.4-.265.425-.106.186-.08.212.266.292.239.292.186.265.08.239-.08.292-.265.212-.053.557-.08.425-.186.849-.664-.265.69-.319.637-.133.186-.425.372-.186.266-.106.265-.08.266-.133.212-.637.186-.478.372-.319.106.106-.266.345-.611.053-.159-.212-.08-.425.451-.266-.08.133-.4-.584.425-.4.664-.319.8-.4.717-.478.664-.106.345.026.5.239.823.027.4-.133.451.372.08.239.345.106.372-.08.159.08.106.239.133.212-.053.106-.557-.106-.133-.186-.557-.053-.425.266.265,1.141,1.938.027.372.106.372.08.265.133.5v.292l.451,1.513.106.186.186.478.451.266.531.053.372-.133-.106.664-1.46,2.787-.345.531-2.389,2.575Zm-2.575-32.494.133.292.026.186-.08.053-.133.08-.292.372-.08.159-.08.266-.08.69-.106.319-.08.026-.425-.026-.106.08-.239.319-.133.133-.5.186-.133.08-.106.186-.053.186-.053.133-.265.186-.292.133-.292.027-.266-.159.08-.106.026-.08V644l.027-.133.239-.133.133-.212.027-.265-.106-.292-.239.266-.053.08-.106-.292-.053-.345.053-.345.106-.292.318.292.239.319.266.239.425.08v-.186l-.239-.212-.212-.265-.186-.372-.053-.425.053-.4.265-1.035.106-.239.106.026.026.239.053.212.239.053.08-.372.106-.239.159-.106.292.159.026.4-.053.478.08.451.159-.266.664-.212.319-.292h-.717l.478-.4.186-.212.186-.292.212-.77.106-.186.106.4-.027.4-.053.372Z" transform="translate(-353.014 -450.926)" fill="#7c7c7c" stroke="#fff" stroke-linecap="round" stroke-linejoin="round" stroke-width="1"/>
    <path id="Tasman" d="M-2614.794-1386.235l-.292-.4-.425-.929-.159-.663-.159-1.141-.159-.478-.239-.345-.345-.239-.292-.027-.505.053-.212-.053-.186-.106-.159-.16-.132-.053-.106-.106-.106-.213-.159-.345-.133-.239-.319-.133-.584.106-.265-.053-.239-.186-.212-.345-.133-.425-.027-.531v-.372l-.053-.345-.185-.239-.186-.106-.239-.159-.213-.213-.186-.531-.106-.4-.053-.292.239-1.354.5-.424.186-.4.239-.717.053-.69-.053-.451-.053-.266-.106-.239-.026-.213v-.186l.052-.478.106-.265.186-.292.4-.372.345-.186.345-.159,1.036-.159.212-.159.027-.372-.053-.372.08-.345.239-.266.5-.186.318-.186.265-.318.239-.611.212-.69.239-1.115.133-.372.186-.292.982-.69.186-.345.079-.318v-.265l-.212-.345-.027-.186.106-.159.319-.185.265-.106.239-.027.77.239h.372l.372-.133.345-.265.425-.478.239-.4.079-.531v-.452l.053-.451.053-.319.027-.265-.053-.159-.292-.345v-.239l.212-.186,1.434-.584.929-.85.079-.212-.053-.186-.186-.212-.372-.266-1.035-.318-.265-.106-.266-.213-.875-.929-.266-.159-.239-.08-.186-.106-.159-.186-.186-.319-.159-.239-.106-.239-.106-.292-.106-.292-.265-.239-.265-.106h-.425l-.61.133-.213-.053-.212-.08h-.186l-.16.106-.4.584-.239.026-.186-.212-.08-.8.106-.451.212-.319.133-.133.239-.345.106-.319-.053-.345-.239-.345-.266-.212-.239-.265-.159-.345-.186-.478-.186-.319-.664-.584-.186-.4-.292-1.805-.079-.265.265.026.133-.026.292-.265.558-.4.266-.053.08-.106,1.062-.823,2.045-2.549.876-.876.77-.292-.345.876-.026.319.292.106.106-.133.133-.239.132-.186.346.159.186-.079.159-.133.133-.133-.08-.372.611-.292.027-.239-.24-.292-.052-.08-.265.266-.292.159-.292.053-.265-.106.8-1.009.929-.5,4.036-.186,1.327.159,1.221.345.664.08-.452.186-4.433-.345-.319.08-.212.266-.186.557-.213,1.062-.186.5-.319.266.186.557-.106.213-.265.026-.372-.053.292.743.106.08.345.133.106.133v.452l-.265.8.133.452.133-.133.425-.239.292.77.69.717,1.752,1.407.265.08.265-.106.5-.4.106-.053h.265l.08-.08-.053-.372.026-.106.345-.345.159.026.213.319.265-.425.292-.239.292.026.265.4.106.345v.266l-.106.531.133.239-.026.239-.265.265.345.08.318-.027.265.079.213.4-.053.133-.212,1.195.079.5.053.239-.053.186-.239.372-.451.478-.531.425.212.133.133.053.159-.053.212-.133.239,1.354.026.425.133.425.213.345.159.372-.079.451-.08-.266-.133-.212-.159-.16-.186-.106-.133.956.053.239.319.345.133.186.053.319h.133l.212-.345.159.345.212,1.115.239.743.027.212-.133.159-.345.186-.08.186.159.4.345.239.452.106h.955l.239-.053h0l.106.345.425.69.8.743.743.372-.212.69-.026.4-.106.584-.026.717.08.61-.186.425-.4.212-.5.053-.929.266-.531.876-1.62,1.885-.584.982-.849,1.062-1.221,1.062-.186.424-.08.372-.345.425-.717,1.062-.212.823-.239,1.46-.186.531-2.071,2.628-.69,2.389-.319-.053-.133-.08-.239-.053h-.239l-.213.053-.159.133-.08.292-.053.4-.558,1.566-.265.584-.956,1.142-.372.318-.371.239-.584.159-.372-.053h-.186l-.213.027-.133.08-.08.159-.079.159-.106.186-.159.106-.213.053Zm17.468-25.538-.8-.743-.425-.69-.106-.345.186-.027.4-.186.743-.663.717-.452.345-.372.8-1.115,1.274-1.274.5-.213.239-.4.212-.079.106.079.026.212-.08.239-.053.212.69-.319.345-.212.292-.319.319-.637.159-.186.186-.027.186.133h.159l.186-.292-.212-.292.186-.372.345-.319.053-.026v.69l-.186.876-.345.929-.318.531-.637.823-.849.823-1.779,2.761-.929.956-.69.478-.5.186Z" transform="translate(2781.709 1617.426)" fill="#7c7c7c" stroke="#fff" stroke-linecap="round" stroke-width="1"/>
    <path id="West_Cpast" data-name="West Cpast" d="M256.174,645.5l.08.266.292,1.805.186.4.664.584.186.319.186.478.159.345.239.266.266.212.239.345.053.345-.106.319-.239.345-.133.133-.212.318-.106.451.08.8.186.212.239-.027.4-.584.159-.106h.186l.212.08.212.053.611-.133h.425l.265.106.265.239.106.292.106.292.106.239.159.239.186.319.159.186.186.106.239.08.265.159.876.929.265.212.266.106,1.035.319.372.265.186.212.053.186-.08.212-.929.849-1.434.584-.212.186v.239l.292.345.053.159-.027.266-.053.319-.053.451v.451l-.08.531-.239.4-.425.478-.345.266-.372.133h-.372l-.77-.239-.239.027-.265.106-.319.186-.106.159.027.186.212.345v.266l-.08.319-.186.345-.982.69-.186.292-.133.372-.239,1.115-.212.69-.239.61-.265.319-.319.186-.5.186-.239.266-.08.345.053.372-.027.372-.212.159-1.035.159-.345.159-.345.186-.4.372-.186.292-.106.266-.053.478v.186l.027.212.106.239.053.265.053.451-.053.69-.239.717-.186.4-.5.425L252.7,677.6l.053.292.106.4.186.531.212.212.239.159.186.106.186.239.053.345v.372l.027.531.133.425.212.345.239.186.265.053.584-.106.319.133.133.239.159.345.106.212.106.106.133.053.159.159.186.106.212.053.5-.053.292.026.345.239.239.345.159.478.159,1.141.159.664.425.929.292.4.292.186.212-.053.159-.106.106-.186.08-.159.08-.159.133-.08.212-.027h.186l.372.053-.106.531-.08.265-.133.319-.265.557-.08.292-.106.319-.265.292-.5.239-.4.08-.584.266-1.035.929-1.274.982-.292.345-.212.425-.186.265-.425.425-.212.4-.239.292-.9.743-.558,1.115-.584.531-.531.266-.372.133-.611.053-.292.08-.611.451-.4.345-.478.717-.478.584-.106.319-.08.531-1.248.77-1.062.319-.106.133-.08.292-.159.743-.239.743-.08.372-.106.345-.239.266-.292.186-1.035-.026-.743.159-.85.08-.77.212-.159.026h-.106l-.133-.106-.212-.053-.265.027-.743.292-.425.319-.319.186-.372.08-.69.053-.823.345-.478.345-.876.876-.265.5-.133.425-.08.319-.239.292-.4.239-1.619.531-.425-.053-.8.5-1.274,2.23-.77.5-2.044,1.062-3.584,2.867-1.991,2.23h-.531l-.345-.133-.69.106-.982.4-2.761,1.593-2.044.717-.637.4-1.593,1.434-.531.637-.319.611-.292.717-.531.77-.531.637-.4.77-.451.478-.558,1.009-3.186,2.655-.69.823-.717.69-1.088,1.3-.611-.345h-.372l-.531.08-.345.5-.292.584-.4.557-.611.319-.743.531-.85.425-.69.531-.8.425-.664-.186-.531-.292-.345-.266-.611.027-.77.425-1.274.186-1.009-.053-.85.133-.956.425-.956.8-.212.292-.239.5-.717.9-.717.425-.478.451-.372.478-.212.611-.133.557-.5,1.38-.451.717-.77.823-.584.345-1.327.186-4.009,1.938-2.549.292.584-2.31.159-.478.186-.664-.265-.5-.212-.584-.425-.611-.4-.478-.69-.478-.717-.318-1.035.053-1.115.372-.186-.239-.5-.212v-.186l.956-.345.4-.239.743-.876,1.274-.876.8-.8.69-.876.027-.159v-.292l.08-.372.159-.345.212-.212.239-.212.239-.133.212-.106-.133-.08-.4-.319.4-.212.4-.133,1.274-.08.743-.159.69-.372.425-.292.186-.212.292-.159.531.053.159-.08.5-.478.345.186.319.5.425.451.982.159,1.168-.372,1.115-.717,1.221-1.248.956-.637.4-.4.345-.266,1.3-.717.345-.292.106-.239v-.292l.08-.239.159-.159.557-.345.186-.08.4-.212.77-.929.372-.212.4-.159,1.487-1.009,1.035-.345.558-.292.239-.425.08-.212.239-.239.239-.186.212-.053.558-.053.159.026.186.026.186-.026.239-.159.292-.318.823-.239.69-.531.823.186.451-.053,1.062-.849.425-.106.319-.239.69-1.062.319-.345.106-.319.027-.345.4-.5.531-.106.239-.265.027-.372.133-.611.425-.531.451-.372,2.708-1.354.265-.451.186-.743.451-.159.292-.265.186-.451.159-.4.212-.186.478-.212.531-.372.292-.133.319-.08.239.08.425.266.239.08,1.327-2.124-.637-.133-.531.557-.451.743-.478.345.4-1.221.69-.823.531-.4.186-.425v-.212l1.513-.106.451-.212.159-.186-.159-.239.372-.292.265-.425.319-.239.451.186.053-.451.239-.106.133-.212.8-.5,1.832-.664.8-.637.664-.106.319-.027.212-.026.186-.212.239-.318.239-.186.743-.372.372-.425.717-1.062.372-.239.345-.292,1.752-3.053.265-.266.212-.08.4-.186.372-.265.159-.345.292-.531.212-.239.212-.106.319-.212.345-.5.5-.982.372-.212,1.46-3.026.425-.5.212-.4.053-.9.133-.637,1.009-1.54.425-1.248.557-4.088.372-1.009.08-.611.212-.69.106-.212.69-.85.292-.5.212-.61.345-1.752.292-.531.186-.9.425-1.035-.133-.319-.159.212-.08-.212-.027-.133-.027-1.3.319-.239,1.221.186,1.434-.212.372.027h.159l1.009-.451,1.938-1.248.5-.611.186-.133.292-.08.292.053.186-.053.159-.637.159-.186.186-.133.212-.186.292-.478.743-1.7.106-.133.106-.026.053-.106.053-.557.027-.053.053-.053.106-.08.159-.266.106-.239.08-.319v-.318l.239-.4.557-.451.584-.4.425-.159-.08-.239v-.265l.027-.266.292-.531.027-.319.027-.584.053-.664.106-.266.186.08.106-.027.186-.133.239-.106.239-.027-.4-.77-.106-.319-.186-3L253.6,655l.186-.611.027-.266-.133-1.407v-2.947l-.106-.823v-.478l.186-.212.239-.026.186-.053.133-.186.265-.531.5-.637.08-.159.027-.292.053-.106.133-.159h.266l.133-.08.08-.106.053-.186.08-.159.133-.08h.053Z" transform="translate(-92.551 -456.067)" fill="#7c7c7c" stroke="#fff" stroke-linecap="round" stroke-linejoin="round" stroke-width="1"/>
    <path id="Otago" d="M205.118,978.145l.159,1.593-.239.69-.531.876-.345.77-.451.557-.478.8-.265.557-.425.664-.053.61v5.177l.053.717.133.425.637.266.584.531.319.743.319,1.885.4.557.451.265.584-.08.557.77,1.142,1.221,1.513-.186.664.292.611.8.478,1.035.664,2.071.717,1.726.611.982.425.557.637.345,1.46.106,1.805-.4.77.053.4.266.239.557-.053.637.106.8.212.743.451.743.425.425,1.991-1.168,3.186-2.947.717-.372.823-.212h.8l1.726-.478,3.637,1.009,2.15.876.956.186-.186.425-.08.451-1.38,2.6-2.283,2.363-1.088,2.416-.5,2.071-.265.611-.239.743.265.345.372.345-.053.664-.743.9-.186.4-.027.319.08.319.053.372-.265.531-.584.4-.425.451.159.717-.239.345-.265.159-.265-.026-.345-.266.027.319.053.292.186.557-.345.345-.265.106-.717-.026-.425.159.027.292.292.292.451.053-.478,1.062-.159.159-.212.08-.265.159-.425.372-.159.053-.133-.053-.106.026-.027.265v.266l.027.159.08.053.186.026.292.106.292.186.265.026.265-.319.372.319.531.292.425.292v.4l-.372.266-.982.212-.4.212-.4.637-.159.186-.186.08-.212.053-.212.106-.265.743-.743.5-.212.5.4-.212.717-.186.637-.557.929-.372.265-.266.319-.664.239-.345.292-.186.239-.08.239-.133.212-.4.212.372.08.451-.053,1.593-.186.4-.292.133-.451.053-.425-.026-.08.026-.212.186-.106.186v.212l-.027.159-4.248.425-1.726.611-1.54,1.115-1.168,1.726-.319.69-.08.345-.08.9-.186.531-.027.265-.159.637-.372.557-.451.451-.425.292-1.088.451-.5.318-.451.531-.345.558-.4.451-2.814,2.018-.717,1.009-.265,1.54.053.8-.106.292-.584.239-.478.4-.159.106-.345-.053-.69-.292-.345-.053-.345.053-.611.266-.319.08.319.133,1.646.08-.4,1.035-.664.451-.717.292-.69.584-.292-.053-.531-.212-.558-.133-.425.186-.266.239-1.088.664.133.133.186.345.133.159-.557.159-.69-.212-.637-.027-.372.69-.425-.345-.133-.08-.717-.106-.345.027-.292.186-.4.451-.266.186-.239.08-.717.106-.265-.053-.265-.266.08-.611-.053-.345H195.3l.08-1.593.345-.637.239-.77-.027-.584-.823-1.168-.106-.637v-.77l-.159-.8-.265-.743.159-.9.292-.743.133-.85.053-1.911-.664-1.646-.239-.8.053-.77-.239-1.009-.557-.982-.531-.77-.186-.929-.027-.876.106-.823-.106-.743-.265-.637-.584-.557-.345-.4-.106-1.009-.106-.611-.053-.531v-.8l.133-.956.319-1.274,1.248-2.6,1.434-3.77.85-.8-.345-1.248-1.885-2.1-.743-.425-.9.478-2.257,3.292-.9.425-.8-.133-.69-.292-.5-1.009-1.3-1.885-.584-1.46-.478-.239-3.584,1.646-1.354.106-.8-.026-1.009-.531-.292-.876-.027-.8-.637-1.381-.345-.982-.106-.849.743-2.442-.053-.557-1.142-.531-.584-.531-.557-.77-.4-.9-.212-.929-.106-1.089.425-1.115.345-2.31-.08-1.035.531-2.15.4-1.062.717-1.248.69-.876.664-.478.451-.451,2.549-.292,4.009-1.938,1.327-.186.584-.345.77-.823.451-.717.5-1.38.133-.557.212-.611.372-.478.478-.451.717-.425.717-.9.239-.5.212-.292.956-.8.956-.425.85-.133,1.009.053,1.274-.186.77-.425.611-.027.345.266.531.292.664.186.8-.425.69-.531.85-.425.743-.531.611-.319.4-.557.292-.584.345-.5.531-.08h.372l.611.345Z" transform="translate(-93.873 -700.15)" fill="#7c7c7c" stroke="#fff" stroke-linecap="round" stroke-linejoin="round" stroke-width="1"/>
    <path id="Southland" d="M65.8,1097.482l-.478.159-.159-.372.239-.425.5-.319.451-.053.212.4-.265.239Zm5.071-1.673.292.08.186-.027.08.265-.08.106-.053.027v.133l-.159.133-.186-.027v-.265l-.106-.106-.08-.133ZM65,1094.8l-.159.318.027-.133-.027-.186-.027-.159.106-.106.08-.027.027.106v.08Zm17.123-7.062-.133.053-.239-.106.053-.212.159-.133.159.212Zm-11.256-3.69-.319.106-.265-.106-.133-.4.08-.4.239-.186.319-.053.265.08.265.239-.212.5-.239.212Zm17.893,0-.186.292.08-.318-.133-.265-.212-.292-.186-.372.319-.027.319-.133.212-.265.133-.4.319.664-.239.637Zm-12.371-2.734.4.319.345.425,1.832,2.575.292.318.345.239.265.266.133.425.239.08.478.266.239.372-.4.4.425.212v.186l-.5.186-1.858-.186.133-.4-1.142-.053-.4.212.212.557-.053.345-1.009,1.407.531-.053.69-.929.451-.239.212.08.557.425.531.159.8.345-.08.212-.053.159-.106.133-.159.106v.186l.239.027,1.088-.4.265-.027.265-.159.159-.053.08.106.053.239.159.239.186.159.159.08-.106.292-.133.743-.053.212-.212.133-.239-.026-.239-.08-.292-.027v.212l.929.611.265.319.053.186-.159.08-.212.053-.159-.027-.106-.106-.159-.372-.159-.133-.451-.027-.106.212.133.743-.239.133-.69-.292.239.451h-1.54l-1.274.239-.5.239-1.274,1.195-.372.5-.292.213H74.69l-.372-.186-.265-.239-.319-.186-.743.133-.239-.026-.212-.372-.133-.425-.159-.239-.425.4-.345.106-.159.08v.133l-.133.717-.319-.239-1.062.849-.584.212.345.4.637-.106,1.248-.5-.239.584-.239.4-.637.69v-.743l-.239.027-.372.372-.292.425-.372.212-.69.159-.69.053-.425-.133-.106-.584.133-.77.239-.717.239-.478.212-.186.4-.08.4-.319.717-.372-.345-.239v-.265l.133-.319.106-.372-.027-.451-.08-.372v-.319l.159-.425.212-.292.212-.212.478-.319.345-.133.265.08.239.133.265.026.372-.4-.08-.717-.159-.8.08-.664.265-.159h.611l.265-.239.319-.584.133-.318.053-.425-.106-.664-.292-.637-.69-1.062-.106-.319.08-.266.159-.212.08-.239v-.186l-.053-.133-.053-.133-.106-.159-.08-.212.027-.159.106-.159.027-.159.106-.85.292-.425.451-.159.637-.026.531.212.319.053.265-.159.292-.292.239-.053.956.5ZM55.31,1077.28l.027.186-.265-.318-.186-.239.292-.026.133.026.027.133Zm18.769-3.159-.08.08-.159-.186-.212-.027.053-.08.265-.027.08-.08.053.159v.159Zm-25.22-9.477-.186.106-.08-.08.027-.106-.053-.319.027-.4.265-.292.319-.079.292.159.106.239-.133.239Zm-1.805-2.283-.106.186-.106-.08-.292-.4v-.186l.106-.159.186.026.186.106h.133l.053.053-.106.159-.053.292Zm.239-.823-.053.026-.265-.106-.027-.159.053-.159.053-.027.133.053.106.159Zm.77-1.168-.4.478h-.186l-.239-.106-.053-.08.053-.106.106-.133.027-.133.027-.053.345-.133h.106l.08-.053h.159l.053.159Zm3.929-7.088-2.23.849-.159-.053-.106.053-.584.08-.106-.053v-.053l-.08-.053.08-.106.451-.08.265-.266.531-.027.77-.372.982-.08h.133l.106.08Zm-5.416.61-.4.027-.106-.133v-.106l.08-.266.425-.133h.319l.186-.159.292-.027.292.133v.159l-.239.133-.239.053-.292.159-.319.159Zm6.69-.478h-.5l-.319-.159.106-.106-.159-.079v-.159l.212-.239.239-.133,1.221.133.106.133.027.159-.106.08Zm-2.177-3.8.265.558.159.664.08.637-.08.637-.239.478-.372.265-.451.053-.053-.159-.133-.292-.159-.133-.159.531-.159.106H49.6l-.159-.053-.106-.292-.106-.584-.08-.584.027-.345-.292-.557-.345.053-1.274,1.513-.319.239-.451.133.106-.372.212-.531.239-.478.239-.212.053-.08.239-.451.159-.425.239-.08.5.026,1.646-.584.372-.027.186.053.4.292Zm6.212-9.5-.69.133-.265-.08-.372-.372-.319-.213-.451-.159-.4-.212-.159-.4-.239-.372-.027-.212.186-.106-.027-.133.133-.265,1.248-1.991v.133l.027.08.053.08.053.106.186,1.035.292.982.77,1.964Zm44.122,38.759-.239-.08-.186.212v.664l-.239.213-.053.159-.053.133-.106.08H99.91l-.345-.133-.212-.265-.159-.292-.133-.159-.265.053v.265l.053.345-.08.372-.531.345-.69-.186-.717-.372-.557-.186-.664.027-.372-.053-.239-.372-.531-1.858-.027-.292-.106-.345h-.292l-.611.239-2.1.4h-.69l.159-.319.265-.106.265-.026.292-.159-.4-.239-.531-.133-1.009-.027.159.425.265.266.106.212-.265.319.08.08.133.239.08.08-1.115.372-3.5-.372.239-.5.133-.159.159-.133.292-.106.743.026.239.08.212.345.584.106.372-.159-.478-.5-.584-.239-1.779.027-.823-.531-.4-.08-.186.5.133.611.611.8.239.558-.557-.106-.743-.9-.451-.239-.08-.133-.027-.265-.133-.292-.531-.186-.159-.159-.08-.266-.053-.345.637-.186h.212l.212.08.053.08v.133l.08.212.133-.212,1.062-.9.212-.8-.159-.956-.372-.69h-.531l.186.743-.212.69-.4.425-.425-.027-.239-.425-.425-1.221-1.088-2.044-.345-.372-.557-.159-2.018.372-.292.159v.345l.053.345-.053.159-.292-.106-.345-.159-.345-.133L77,1071.6l-.611-.106-.4.027-.186.265-.106.319-.239.08-.239-.026-.212-.08-.292-.159-.159-.027-.133.053-.319.292-.133.053-.212-.106-.212-.186-.186-.292-.239-.106-.186-.266-.265-.557-.212-.212-.478-.265-.239-.212.265-.186.292-.106.239-.186.212-.345-1.062-1.407-.5-.849v-.584l-.319-.292-.823-.08-.425-.133-.956-.637-.292-.08-2.336-.265-.186.08-.106.186-.027.5-.08.212-.239.478-.08.4-.027.4-.133.425-.265.372-.319.08-.69-.053-.319.133-.637.4-.292.106-.4-.053-.85-.319-.451-.027-.319.08-.186.106-.106.106-.159.08-.106-.106-.08-.186-.08-.08-.239-.053-1.3-.637h-.372l-.345.08-.345-.027-1.38-.372-2.814.053-1.38-.239-1.142-.849-.611-.823-.106-.292.133-.186.584-.266.212-.159.77-.9.69-1.009.584-1.354.319-.611.425-.266.611-.133.929-.8.5-.292v-.186l-.451.053-1.248.77-.876.318-.478.292-.319.372-.053.319.027.239.08.186-.053.266-.08.08-.637.69-.027.133-.053-.026-.186-.239.027-.159.08-.213v-.265l-.239-.212-.265.929-.637.372-1.487.345v-.531l.053-.451.186-.239.319.212.08-.956.239-.637.372-.451.584-.372,1.221-.319.531-.239.345-.664-.69.345-.717.239-.292-.027-.372-.106-.319-.186-.053-.186,1.115-1.354.186-.318.027-.213-.212-.239-.212.027-.239.186-.186.212-.08.133-.08.212-.08.186-.027.186-.372.265-.133.133-.557.9-.08.292-.292.318-1.938.584-.265.186-.478.531-.159.106-.159-.159-.159-.345-.106-.372v-.239l.08-.319-.027-.4-.106-.584v-2.655l.133-.664.345-.292,1.327-.212h1.407l-.159.212.159.212.5-.451.611-.159H51.3l.5-.106,1.088-.425.557-.079.611.106.292-.027.212-.186.186-.212.186-.186.425-.319.982-.451.425-.345.265-.611-.876.372-.319.053-1.46-.186-1.911.557-.478-.159.372-.876.239-.292.372-.266,1.088-.319.319-.266-1.991.292-.345-.106-.133-.69v-.664l.239-.478.478-.186.531-.106,1.035-.557.611-.106,1.062.4.557.026.451-.425-.69.026-.319-.133-.239-.319,1.327-.425.584-.451.186-.717-2.734,1.433-1.672.345-1.115.637-.239.027-.451.133-.212.027-.372-.053-.159-.106-.265-.531v-.451l.77-1.646.372-1.752.212-.451.9-.5,1.009.425.982.664.876.212-.239-.69-.319-.743-.319-.239-.239.664-.372-.318-.823-.4-.345-.265-.265-.345-.08-.319.133-.372.265-.478.69-.743.451-.345.212.106.159.478.372.371.85.425-.186.133-.159.186-.133.212-.08.292.664-.08.584-.265.531-.053.584.584.159.266.08.265-.027.292-.212.372-.531.425-.212.266.186.133.69-.053.265-.159.265-.292.133-.372.08-.4.133-.159.557.531.265.159.212.239.133.69.372.982.08-.08.053-.106.159.133.265.133.133.133-.106-.956-1.062-1.38-2.071-2.071.292-.4.345-.212,2.1-.611.372.027.212.239.345.69.292.265.372.133.425.027.372-.186.239-.372-.345-.106-.717.053-.292-.213-.186-.318-.053-.133.027-.557.133-.318.159-.133v-.027l-.77.027-.77.345-.531.159-1.646.159-.372-.212-.027-.372-.186-.584-.133-.584-.372-.319-.08-.319-.08-1.3.159-.478.451-.319.611.027.478.345.8,1.115.239.186.345.133h.319l.159-.212-.106-.186-.743-.611-.743-.982-.425-.372-.5-.027.8-1.327.5-.5.451.133.77,1.3.053.425-.027.372.027.319.239.265.106-.4-.08-.584.106-.213.319-.159,1.221.159-.292-.372-1.168-.425-.425-.292-.345-.478-.239-.478-.053-.478.292-.451.478-.186.531.159.557.265.531.159.425.212.5.451.451.239.292-.318-.372-.106-2.469-1.434-.239-.239.08-.425.345-.4,1.035-.876.319-.186.4-.08.478-.027-.106-.133-.186-.319-.106-.133,1.566-.956.664-.027.292.876.053.133.159.159.133.213.053.292-.053.265-.186.558-.027.265.159.4.239.292.159.372-.133.531.743.08.372-.053-.08-.319-.08-.159-.08-.212-.027-.212-.027-.212-.053-.186-.425-.425-.053-.292.053-.4v-.478l-.133-.4-.159-.318-.292-.929-.053-.345.239-.982.611-.637.743-.106.637.637.159.372-.053.212-.186.212-.186.4-.106.531.08.425.186.345.372.265.053-.637.159-.425.212-.4.159-.5-.027-.584-.531-.611-.133-.5-.239-.372-.053-.212.4-.212.212-.186.212-.133.239.159.372.558.345.345.372.212.531.159-.345-.212-.77-.956-.531-.478-.08-.319.159-.4.319-.265,1.088-.319.159-.186.159-.4.106-.186.133-.08.345-.133.159-.106.584-.637.584-.265.611.159.9.823.69.4.265.318.637,1.248.133-.319.053-.425-.053-.451-.133-.372-.106-.106-.478-.265-.531-.611-.133-.08-.106-.026-.08-.053-.106-.212-.053-.212.053-.77-.133-.85-.133-.425-.159-.319.478-.717,1.7-1.938.584-.531.743-.5.5-.664-.08-.929h1.832l.186-.106.239-.5.027-.451-.08-.08,1.115-.372,1.035-.053.717.319.69.478.4.478.425.611.212.584.265.5-.186.664-.159.478-.584,2.31-.451.451-.664.478-.69.876-.717,1.248-.4,1.062-.531,2.15.08,1.035-.345,2.31-.425,1.115.106,1.088.212.929.4.9.557.77.584.531,1.142.531.053.557-.743,2.442.106.849.345.982.637,1.38.027.8.292.876,1.009.531.8.026,1.354-.106,3.584-1.646.478.239.584,1.46,1.3,1.885.5,1.009.69.292.8.133.9-.425,2.257-3.292.9-.478.743.425,1.885,2.1.345,1.248-.85.8-1.434,3.77-1.248,2.6-.319,1.274-.133.956v.8l.053.531.106.611.106,1.009.345.4.584.558.265.637.106.743-.106.823.027.876.186.929.531.77.558.982.239,1.009-.053.77.239.8.664,1.646-.053,1.912-.133.849-.292.743-.159.9.265.743.159.8v.77l.106.637.823,1.168.027.584-.239.77-.345.637-.08,1.593Z" transform="translate(0 -724.024)" fill="#7c7c7c" stroke="#fff" stroke-linecap="round" stroke-linejoin="round" stroke-width="1"/>
  </g>
</svg>
