<svg xmlns="http://www.w3.org/2000/svg" width="40" height="40" viewBox="0 0 40 40">
  <g id="Favouriet_Light" data-name="Favouriet Light" transform="translate(-4890 -554)">
    <rect id="Frame" width="40" height="40" transform="translate(4890 554)" fill="none"/>
    <path id="Shop-595b40b85ba036ed117de28e" d="M3.909,6v4.545l-.114.767a56.769,56.769,0,0,0-.8,6.96,5.823,5.823,0,0,0,.966,3.494c-.019-.011-.038-.017-.057-.028V44.182H42.091V21.739l-.057.028A5.822,5.822,0,0,0,43,18.273a56.486,56.486,0,0,0-.8-6.96l-.142-.767h.028V6Zm1.534,6.364h3.92v8.1a3.225,3.225,0,0,1-2.273.994c-1.508,0-2.273-1.071-2.273-3.182A50.23,50.23,0,0,1,5.443,12.364Zm5.739,0h4.545v8.1a3.095,3.095,0,0,1-4.545,0Zm6.364,0h4.545v8.1a3.095,3.095,0,0,1-4.545,0Zm6.364,0h4.545v8.1a3.095,3.095,0,0,1-4.545,0Zm6.364,0h4.545v8.1a3.095,3.095,0,0,1-4.545,0Zm6.364,0h3.892a48.521,48.521,0,0,1,.653,5.909c0,2.111-.765,3.182-2.273,3.182a3.227,3.227,0,0,1-2.273-.994ZM9.364,27.818H23.909V38.727H9.364Zm19.091,0h8.182V42.364H28.455Z" transform="translate(4887 548)" fill="#72bf44"/>
  </g>
</svg>
