<svg xmlns="http://www.w3.org/2000/svg" width="40" height="40" viewBox="0 0 40 40"><g transform="translate(-205 -9)"><rect width="40" height="40" transform="translate(205 9)" fill="none"/><g transform="translate(207.046 9)"><g transform="translate(19.257 21.902)"><rect width="14.306" height="18.098" fill="#72bf44"/></g><g transform="translate(2.343 21.902)"><rect width="14.306" height="18.098" fill="#72bf44"/></g><g transform="translate(0)"><path d="M55.306,7.378A4.992,4.992,0,0,0,50.921,0,7.772,7.772,0,0,0,45.2,2.887a10.175,10.175,0,0,0-1.051,1.45A10.176,10.176,0,0,0,43.1,2.887,7.772,7.772,0,0,0,37.386,0,4.992,4.992,0,0,0,33,7.378H26.2V19.293H42.849V7.378h2.609V19.293H62.106V7.378Zm-17.921,0a2.384,2.384,0,0,1,0-4.769c2.367,0,4.618,2.421,5.273,4.769H37.386Zm13.535,0H45.648c.655-2.347,2.905-4.769,5.273-4.769a2.384,2.384,0,0,1,0,4.769Z" transform="translate(-26.2)" fill="#72bf44"/></g></g></g></svg>