<svg xmlns="http://www.w3.org/2000/svg" width="40" height="40" viewBox="0 0 40 40">
  <g id="Reservations_Dark_50x50" data-name="Reservations Dark 50x50" transform="translate(-3058 -1014)">
    <rect id="Frame" width="40" height="40" transform="translate(3058 1014)" fill="none"/>
    <path id="interests" d="M38.986,14.994a4.01,4.01,0,0,0-4-4h-6a.886.886,0,0,1-.7-1.4,4.652,4.652,0,0,0,.6-3.5A4.985,4.985,0,0,0,19,7a5.591,5.591,0,0,0,.7,2.6.9.9,0,0,1-.8,1.4h-6a4.01,4.01,0,0,0-4,4v7a.886.886,0,0,0,1.4.7,4.652,4.652,0,0,1,3.5-.6,4.985,4.985,0,0,1-.9,9.9,5.591,5.591,0,0,1-2.6-.7.828.828,0,0,0-1.3.7v6a4.01,4.01,0,0,0,4,4h21.99a4.01,4.01,0,0,0,4-4Z" transform="translate(3054.057 1012.019)" fill="#fff"/>
  </g>
</svg>
