<svg xmlns="http://www.w3.org/2000/svg" width="40" height="40" viewBox="0 0 40 40">
  <g id="Expired" transform="translate(-1360 -861)">
    <rect id="Rectangle_101" data-name="Rectangle 101" width="40" height="40" transform="translate(1360 861)" fill="none"/>
    <g id="Group_20" data-name="Group 20" transform="translate(186.552 59.397)">
      <path id="Path_37" data-name="Path 37" d="M-13559.667,11036.413a3.346,3.346,0,0,1-3.333-3.334v-26.409a3.349,3.349,0,0,1,3.333-3.334h3.072v4.1a3.657,3.657,0,0,0,1.388,2.849,4.311,4.311,0,0,0,5.425,0,3.658,3.658,0,0,0,1.386-2.849v-4.1h6.208v4.1a3.659,3.659,0,0,0,1.384,2.849,4.318,4.318,0,0,0,5.43,0,3.665,3.665,0,0,0,1.382-2.849v-4.1h3.216a3.348,3.348,0,0,1,3.334,3.334v11.42a13.012,13.012,0,0,0-1.422-.455v-4.65h-32.713v19.387a2.63,2.63,0,0,0,2.62,2.6h15.95a12.871,12.871,0,0,0,.813,1.422l0,.017Zm7.44-5.964H-13557a.609.609,0,0,1-.609-.608v-3.971a.609.609,0,0,1,.609-.608h4.775a.615.615,0,0,1,.438.174.616.616,0,0,1,.182.435v3.971a.616.616,0,0,1-.615.608Zm4.85,0a.61.61,0,0,1-.608-.608v-3.971a.611.611,0,0,1,.608-.608h3.906a12.293,12.293,0,0,0-.775,4.342,7.86,7.86,0,0,0,.03.846Zm-9.627-5.187h0Zm9.627-3.258a.612.612,0,0,1-.608-.609v-3.975a.611.611,0,0,1,.608-.6h4.778a.608.608,0,0,1,.608.6v3.975a.616.616,0,0,1-.608.609Zm-9.627,0a.614.614,0,0,1-.61-.608v-3.974a.614.614,0,0,1,.61-.606h4.777a.609.609,0,0,1,.608.606v3.974a.614.614,0,0,1-.608.608Zm18.653-4.58a.608.608,0,0,1,.608-.6h4.775a.615.615,0,0,1,.589.455,12.289,12.289,0,0,0-5.973,1.808Zm.6-.6h0Zm-16.357-9.361v-6.151a1.474,1.474,0,0,1,1.607-1.3,1.489,1.489,0,0,1,1.61,1.318v6.119a1.5,1.5,0,0,1-1.61,1.334A1.482,1.482,0,0,1-13554.1,11007.454Zm14.4-.017v-6.135a1.476,1.476,0,0,1,1.609-1.3,1.486,1.486,0,0,1,1.607,1.318v6.119a1.483,1.483,0,0,1-1.607,1.318A1.485,1.485,0,0,1-13539.7,11007.438Z" transform="translate(14736.448 -10197.65)" fill="#72bf44"/>
      <path id="Path_36" data-name="Path 36" d="M70.941,59.12a8.93,8.93,0,1,1-6.322,2.611A8.93,8.93,0,0,1,70.941,59.12Zm-.957,12.5h1.905V73.3H69.984Zm1.905-1.174H69.984c-.191-2.316-.587-3.787-.587-6.1a1.547,1.547,0,0,1,3.091,0c0,2.313-.4,3.787-.587,6.1Z" transform="translate(1133.589 763.876)" fill="#d8453e" fill-rule="evenodd"/>
    </g>
  </g>
</svg>
