<svg xmlns="http://www.w3.org/2000/svg" width="40" height="40" viewBox="0 0 40 40">
  <g id="Scheduled_" data-name="Scheduled " transform="translate(-1416 -796)">
    <rect id="Rectangle_103" data-name="Rectangle 103" width="40" height="40" transform="translate(1416 796)" fill="none"/>
    <path id="scheduled_event" data-name="scheduled event" d="M-13542.244,11036.413h-17.469a3.33,3.33,0,0,1-2.354-.98,3.327,3.327,0,0,1-.98-2.354v-26.41a3.332,3.332,0,0,1,.982-2.353,3.332,3.332,0,0,1,2.352-.98h3.072v4.1a3.642,3.642,0,0,0,1.388,2.849,4.327,4.327,0,0,0,2.713.96,4.334,4.334,0,0,0,2.712-.96,3.644,3.644,0,0,0,1.387-2.849v-4.1h6.208v4.1a3.636,3.636,0,0,0,1.384,2.849,4.331,4.331,0,0,0,2.715.961,4.336,4.336,0,0,0,2.714-.961,3.652,3.652,0,0,0,1.384-2.849v-4.1h3.216a3.326,3.326,0,0,1,2.354.979,3.327,3.327,0,0,1,.98,2.354v11.421a12.744,12.744,0,0,0-1.422-.456v-4.651h-32.713v19.387a2.642,2.642,0,0,0,2.621,2.6h15.949a12.782,12.782,0,0,0,.813,1.422l0,.017Zm-2.018-5.964h-3.146a.612.612,0,0,1-.607-.608v-3.972a.612.612,0,0,1,.607-.607h3.906a12.271,12.271,0,0,0-.774,4.342,7.887,7.887,0,0,0,.03.846Zm-8.007,0h-4.779a.611.611,0,0,1-.61-.608v-3.972a.609.609,0,0,1,.609-.608h4.787a.6.6,0,0,1,.423.174.611.611,0,0,1,.182.434v3.972a.616.616,0,0,1-.6.592Zm-3.282-7.991c-.113,0-.234-.12-.477-.358l-.1-.1-2.135-2.125a.273.273,0,0,1-.092-.223.275.275,0,0,1,.117-.21l1.117-1.155a.325.325,0,0,1,.231-.129.366.366,0,0,1,.243.129l1.125,1.058,2.31-2.348.039-.04c.134-.14.24-.25.368-.25a.412.412,0,0,1,.279.157l.976.977a.606.606,0,0,1,.233.4c0,.115-.068.226-.233.388l-3.425,3.35c-.053.052-.1.1-.143.144l-.026.025c-.177.21-.274.308-.405.308Zm12.906-.456h-4.764a.614.614,0,0,1-.608-.609v-3.974a.615.615,0,0,1,.607-.6h4.779a.609.609,0,0,1,.608.6v3.974a.618.618,0,0,1-.6.609Zm4.248-2.926v-1.657a.606.606,0,0,1,.607-.6h4.775a.615.615,0,0,1,.59.455A12.3,12.3,0,0,0-13538.4,11019.076Zm-14.146-10.307a1.486,1.486,0,0,1-1.607-1.316v-6.152a1.179,1.179,0,0,1,.471-.923,1.809,1.809,0,0,1,1.137-.38,1.49,1.49,0,0,1,1.611,1.319v6.119a1.46,1.46,0,0,1-1.586,1.318Zm14.406-.015a1.487,1.487,0,0,1-1.608-1.318v-6.136a1.185,1.185,0,0,1,.471-.924,1.806,1.806,0,0,1,1.14-.378,1.486,1.486,0,0,1,1.607,1.318v6.119a1.449,1.449,0,0,1-1.6,1.318Z" transform="translate(14979.047 -10203.252)" fill="#72bf44"/>
    <path id="scheduled_event-2" data-name="scheduled event" d="M-13531.946,11038.5h0a8.82,8.82,0,0,1-3.465-.7,8.844,8.844,0,0,1-2.83-1.907,8.888,8.888,0,0,1-1.907-2.829,8.84,8.84,0,0,1-.7-3.466,8.866,8.866,0,0,1,.7-3.464,8.871,8.871,0,0,1,1.906-2.828,8.868,8.868,0,0,1,2.828-1.909,8.843,8.843,0,0,1,3.464-.7h.006a8.851,8.851,0,0,1,3.465.7,8.871,8.871,0,0,1,2.828,1.906,8.886,8.886,0,0,1,1.908,2.829,8.875,8.875,0,0,1,.7,3.465,8.841,8.841,0,0,1-.7,3.466,8.848,8.848,0,0,1-1.906,2.829,8.87,8.87,0,0,1-2.831,1.909A8.841,8.841,0,0,1-13531.946,11038.5Zm-1.241-13.384a.366.366,0,0,0-.358.364v6.007h5.653a.368.368,0,0,0,.365-.361v-1.092a.367.367,0,0,0-.365-.361h-3.843v-4.192a.366.366,0,0,0-.366-.364Z" transform="translate(14979.047 -10203.252)" fill="#72bf44"/>
  </g>
</svg>
