<svg xmlns="http://www.w3.org/2000/svg" width="37.682" height="40" viewBox="0 0 37.682 40"><path d="M23.661,7.406c-3.457.064-5.98,1.092-7.513,3.111-1.815,2.392-2.146,6.034-1,10.8a3.049,3.049,0,0,0-.616,2.348c.247,2.06,1.07,2.917,1.731,3.257a9.4,9.4,0,0,0,2.084,4.314v.44c.007.952,0,1.78-.088,2.847-.575,1.32-2.489,2.1-4.7,2.964C9.9,38.93,5.338,40.713,5,46.408l-.059,1H42.619l-.059-1c-.342-5.7-4.884-7.478-8.54-8.922-2.2-.868-4.122-1.644-4.7-2.964a27.741,27.741,0,0,1-.059-2.847v-.44a9.573,9.573,0,0,0,2.025-4.314c.679-.339,1.484-1.187,1.732-3.257a3.056,3.056,0,0,0-.587-2.318c.546-1.858,1.661-6.7-.264-9.8a5.3,5.3,0,0,0-3.639-2.436C27.646,7.988,25.944,7.406,23.661,7.406Z" transform="translate(-4.938 -7.406)" fill="#72bf44"/></svg>