<svg xmlns="http://www.w3.org/2000/svg" width="96" height="96" viewBox="0 0 96 96">
  <g id="Group_9118" data-name="Group 9118" transform="translate(-118 -547)">
    <circle id="Ellipse_18" data-name="Ellipse 18" cx="48" cy="48" r="48" transform="translate(118 547)" fill="#e55f44"/>
    <g id="Group_7869" data-name="Group 7869" transform="translate(143.158 570.082)">
      <path id="Path_1887" data-name="Path 1887" d="M1017.259,1580.165a8.32,8.32,0,0,1-15.321-6.076l-3.91-2.231q-5.425-3.093-10.848-6.195a.582.582,0,0,0-.8.071,8.295,8.295,0,0,1-13.639-5.207,8.291,8.291,0,0,1,13.648-7.341c.2.176.346.332.662.15q7.423-4.256,14.874-8.493c-.057-.495-.148-.987-.168-1.483a8.255,8.255,0,0,1,7.175-8.734,1.318,1.318,0,0,0,.226-.079h1.752a21.205,21.205,0,0,1,2.144.584,8.293,8.293,0,0,1-1.818,15.937,8.131,8.131,0,0,1-6.861-2.149c-.132-.119-.259-.244-.388-.367a.808.808,0,0,0-.1-.045q-7.447,4.245-14.975,8.536a8.5,8.5,0,0,1,0,4.838q7.505,4.278,15.011,8.556a8.259,8.259,0,0,1,6.318-2.662,8,8,0,0,1,5.236,2.038A8.268,8.268,0,0,1,1017.259,1580.165Z" transform="translate(-972.665 -1534.548)" fill="#faf6fb"/>
    </g>
  </g>
</svg>
